<svg width="21" height="18" fill="none" xmlns="http://www.w3.org/2000/svg"><path d="M20.849 2.4a8.815 8.815 0 0 1-2.434.667A4.201 4.201 0 0 0 20.273.732a8.442 8.442 0 0 1-2.679 1.023 4.223 4.223 0 0 0-7.307 2.888c0 .335.028.657.098.964-3.511-.172-6.62-1.855-8.707-4.419A4.252 4.252 0 0 0 1.1 3.324a4.23 4.23 0 0 0 1.876 3.51 4.172 4.172 0 0 1-1.908-.52v.046a4.244 4.244 0 0 0 3.384 4.15c-.343.095-.718.14-1.107.14-.27 0-.543-.015-.8-.072.548 1.673 2.1 2.903 3.947 2.943a8.486 8.486 0 0 1-5.237 1.801c-.346 0-.678-.015-1.01-.058a11.894 11.894 0 0 0 6.479 1.895c7.773 0 12.023-6.439 12.023-12.02 0-.187-.007-.367-.016-.546A8.423 8.423 0 0 0 20.85 2.4z" fill="#7C808A"/></svg>