<svg width="175" height="40" fill="none" xmlns="http://www.w3.org/2000/svg"><path fill-rule="evenodd" clip-rule="evenodd" d="M20.32 27.634c-4.115 0-7.532-3.416-7.532-7.531s3.339-7.532 7.532-7.532c4.115 0 7.531 3.34 7.531 7.532 0 4.115-3.416 7.531-7.531 7.531zm0-10.87a3.314 3.314 0 0 0-3.339 3.339 3.314 3.314 0 0 0 3.339 3.339 3.314 3.314 0 0 0 3.338-3.339 3.314 3.314 0 0 0-3.338-3.339z" fill="#61B2AA"/><path fill-rule="evenodd" clip-rule="evenodd" d="M.365 19.715c0 15.762 3.805 19.566 19.567 19.566 15.761 0 19.566-3.804 19.566-19.566C39.498 3.953 35.693.148 19.932.148 4.17.148.365 3.953.365 19.715zm4.193 0C4.558 6.36 6.577 4.34 19.932 4.34c13.354 0 15.373 2.019 15.373 15.374s-2.019 15.373-15.373 15.373c-13.355 0-15.374-2.018-15.374-15.373zm47.829 8.852V6.67h3.339v7.61a5.457 5.457 0 0 1 2.407-1.398c.931-.31 1.863-.388 2.795-.388a9.13 9.13 0 0 1 3.338.62c1.01.389 1.786 1.01 2.485 1.787.699.776 1.242 1.63 1.553 2.64.388 1.009.543 2.096.543 3.183 0 1.164-.155 2.251-.543 3.26-.388 1.01-.854 1.864-1.553 2.64-.699.777-1.553 1.32-2.485 1.787a9.13 9.13 0 0 1-3.338.62 8.91 8.91 0 0 1-2.873-.465c-.932-.31-1.708-.777-2.485-1.475v1.475h-3.183zm13.122-7.765c0-.776-.078-1.475-.31-2.096a5.588 5.588 0 0 0-.933-1.63 4.054 4.054 0 0 0-1.475-1.088c-.62-.31-1.242-.388-2.096-.388-.777 0-1.475.155-2.097.389a3.75 3.75 0 0 0-1.553 1.087c-.388.465-.776 1.009-1.009 1.63-.233.621-.31 1.32-.31 2.019 0 .699.077 1.397.31 2.096.233.621.544 1.165 1.01 1.63.465.467.931.855 1.552 1.088a5.93 5.93 0 0 0 2.097.388c.776 0 1.475-.155 2.096-.388.621-.31 1.087-.621 1.475-1.087.389-.466.7-1.01.932-1.63.233-.622.31-1.32.31-2.02z" fill="#61B2AA"/><path d="M84.61 27.17c-.7.62-1.398 1.009-2.252 1.32-.855.31-1.709.387-2.64.387-1.01 0-1.942-.155-2.796-.465-.854-.311-1.552-.777-2.174-1.32-.62-.622-1.009-1.243-1.397-2.097a7.68 7.68 0 0 1-.466-2.717v-9.395h3.339V22.2c0 2.407 1.242 3.65 3.727 3.65.776 0 1.475-.156 2.018-.389.544-.233 1.01-.621 1.398-1.087.388-.466.621-1.01.854-1.63.155-.622.31-1.32.31-2.02v-7.841h3.34v15.762h-3.262v-1.476zm22.128-11.958L97.11 25.539h9.861v3.028h-14.83V26.16l9.628-10.327h-9.395v-3.028h14.364v2.407zm18.013 0l-9.628 10.327h9.861v3.028h-14.83V26.16l9.628-10.327h-9.395v-3.028h14.364v2.407zm26.399.699h-5.279v12.734h-3.494V15.91h-4.97v-3.028h4.97c0-1.398.155-2.485.465-3.261.311-.854.777-1.476 1.398-1.941.621-.466 1.398-.7 2.329-.855.932-.155 2.019-.232 3.261-.232h1.476v3.105h-2.174c-.777 0-1.32 0-1.786.078-.388.078-.777.233-1.01.388-.233.233-.31.544-.388.932-.077.388-.077 1.01-.077 1.708h5.279v3.106zm4.97-4.348a2.56 2.56 0 0 1-1.709-.621c-.465-.466-.698-1.01-.698-1.709 0-.698.233-1.242.698-1.63a2.41 2.41 0 0 1 1.709-.699c.698 0 1.242.233 1.708.699.466.466.699 1.01.699 1.63 0 .7-.233 1.243-.699 1.709-.466.466-1.087.62-1.708.62zm-1.709 1.32h3.339v15.762h-3.339V12.883zm19.722 3.028h-4.969v7.454c0 .31 0 .543.077.854.078.466.156.776.233.854.156.155.389.233.854.31.622.078 1.243.078 1.942.078h1.863v3.106h-1.941c-1.165 0-2.174-.078-2.951-.233a4.81 4.81 0 0 1-2.018-.854c-.544-.388-.932-1.01-1.165-1.786-.233-.776-.311-1.786-.311-2.95v-6.91h-4.658v-3.029h4.658V7.758h3.417v5.202h4.969v2.95z" fill="#61B2AA"/></svg>