<svg width="186" height="86" viewBox="0 0 186 86" fill="none" xmlns="http://www.w3.org/2000/svg">
<path d="M89.6099 37.9007C89.6099 40.9739 87.5143 43.0369 82.8659 43.0369H74.1536V23.997H82.6085C86.6422 23.997 88.8044 25.8385 88.8044 28.9754C88.8044 31.2082 87.5143 32.7585 85.4824 33.2742C88.1563 33.8264 89.6099 35.6406 89.6099 37.9007ZM79.3804 31.9181H81.4154C82.772 31.9181 83.6109 31.3994 83.6109 30.107C83.6109 28.8146 82.772 28.2958 81.4154 28.2958H79.3804V31.9181ZM79.3804 38.6743H82.124C83.4443 38.6743 84.1893 38.0949 84.1893 36.9966C84.1893 35.8954 83.4443 35.3129 82.124 35.3129H79.3804V38.6743Z" fill="#292930"/>
<path d="M99.9049 40.2618C99.484 42.2338 97.9699 43.426 95.417 43.426C92.7067 43.426 90.8049 41.7484 90.8049 38.2231V28.1025H96.0318V37.1219C96.0318 38.6115 96.4497 39.5155 97.6458 39.5155C99.0025 39.5155 99.8444 38.2868 99.8444 35.8629V28.1025H105.071V43.0377H100.389L99.9049 40.2618Z" fill="#292930"/>
<path d="M110.39 37.8995C110.681 39.1282 111.616 39.7744 112.746 39.7744C113.682 39.7744 114.327 39.4498 114.327 38.8036C114.327 38.1574 113.778 37.8661 112.713 37.6386L110.714 37.2169C108.004 36.6344 106.58 35.245 106.58 32.7876C106.58 29.1683 109.681 27.7455 113.003 27.7455C116.586 27.7455 118.748 29.232 119.263 32.014L114.517 32.7269C114.357 31.8866 113.845 31.4012 112.84 31.4012C112.101 31.4012 111.583 31.7561 111.583 32.3386C111.583 32.9211 112.001 33.2123 112.773 33.3398L114.778 33.6947C118.066 34.2438 119.456 36.0216 119.456 38.5457C119.456 42.0679 116.389 43.424 112.713 43.424C109.324 43.424 107.065 42.1983 106.226 39.5468L110.39 37.8995Z" fill="#292930"/>
<path d="M123.552 21.6359C125.102 21.6359 126.425 22.7038 126.425 24.3845C126.425 26.0652 125.105 27.1331 123.552 27.1331C122.004 27.1331 120.681 26.0652 120.681 24.3845C120.681 22.7038 122.004 21.6359 123.552 21.6359ZM126.168 28.1039V43.0391H120.975V28.1039H126.168Z" fill="#292930"/>
<path d="M133.59 30.9795C134.365 28.7466 136.109 27.7455 138.332 27.7455C140.625 27.7455 142.69 29.1016 142.69 32.5328V43.0387H137.496V34.5381C137.496 33.0182 137.042 32.0808 135.722 32.0808C134.592 32.0808 133.623 32.7603 133.623 35.0569V43.0387H128.424V28.1035H133.105L133.59 30.9795Z" fill="#292930"/>
<path d="M153.885 37.6426L158.209 39.0018C157.367 42.2024 154.721 43.428 151.753 43.428C147.335 43.428 144.107 40.6188 144.107 35.7344C144.107 30.6923 146.944 27.7496 151.623 27.7496C156.044 27.7496 158.303 30.5952 158.303 34.7333C158.303 35.2824 158.303 35.9316 158.24 36.6081H149.137C149.237 38.4527 150.136 39.4508 151.686 39.4508C152.789 39.4508 153.531 38.9654 153.885 37.6426ZM153.37 33.9566C153.37 32.6612 152.919 31.5296 151.465 31.5296C150.206 31.5296 149.403 32.5641 149.273 33.9566H153.37Z" fill="#292930"/>
<path d="M163.081 37.8995C163.372 39.1282 164.305 39.7744 165.434 39.7744C166.37 39.7744 167.018 39.4498 167.018 38.8036C167.018 38.1574 166.47 37.8661 165.407 37.6386L163.402 37.2169C160.692 36.6344 159.275 35.245 159.275 32.7876C159.275 29.1683 162.373 27.7455 165.698 27.7455C169.28 27.7455 171.442 29.232 171.957 32.014L167.212 32.7269C167.051 31.8866 166.533 31.4012 165.531 31.4012C164.789 31.4012 164.271 31.7561 164.271 32.3386C164.271 32.9211 164.692 33.2123 165.464 33.3398L167.469 33.6947C170.761 34.2438 172.148 36.0216 172.148 38.5457C172.148 42.0679 169.08 43.424 165.404 43.424C162.015 43.424 159.756 42.1983 158.914 39.5468L163.081 37.8995Z" fill="#292930"/>
<path d="M176.891 37.8995C177.182 39.1282 178.121 39.7744 179.247 39.7744C180.183 39.7744 180.831 39.4498 180.831 38.8036C180.831 38.1574 180.283 37.8661 179.214 37.6386L177.215 37.2169C174.505 36.6344 173.082 35.245 173.082 32.7876C173.082 29.1683 176.183 27.7455 179.505 27.7455C183.087 27.7455 185.249 29.232 185.764 32.014L181.022 32.7269C180.861 31.8866 180.347 31.4012 179.344 31.4012C178.602 31.4012 178.087 31.7561 178.087 32.3386C178.087 32.9211 178.505 33.2123 179.278 33.3398L181.279 33.6947C184.574 34.2438 185.961 36.0216 185.961 38.5457C185.961 42.0679 182.893 43.424 179.217 43.424C175.828 43.424 173.569 42.1983 172.727 39.5468L176.891 37.8995Z" fill="#292930"/>
<path d="M84.801 66.0947C84.1893 65.5759 83.9652 64.8691 83.7381 63.962L83.1536 61.6017C82.8326 60.2426 82.2845 59.9878 81.055 59.9878H79.4107V66.0978H74.1536V47.0609H82.2845C86.5422 47.0609 89.4797 48.7083 89.4797 53.0405C89.4797 56.0439 87.5446 57.5304 85.446 57.8854C87.1873 58.2433 88.0594 59.0139 88.5136 60.6673L89.413 63.9316C89.6402 64.772 89.8976 65.4212 90.5759 66.0978H84.801V66.0947ZM79.4137 55.7193H81.4487C83.2868 55.7193 84.0954 54.973 84.0954 53.6199C84.0954 52.2577 83.2868 51.5145 81.4487 51.5145H79.4137V55.7193Z" fill="#292930"/>
<path d="M100.035 60.6952L104.356 62.0483C103.517 65.2519 100.867 66.4806 97.9027 66.4806C93.4844 66.4806 90.2563 63.6683 90.2563 58.7839C90.2563 53.7418 93.0968 50.8021 97.7755 50.8021C102.197 50.8021 104.453 53.6448 104.453 57.7798C104.453 58.3319 104.453 58.9781 104.389 59.6546H95.2923C95.3892 61.4961 96.2886 62.4973 97.8391 62.4973C98.9353 62.5003 99.6803 62.021 100.035 60.6952ZM99.5198 57.0062C99.5198 55.7168 99.0655 54.5852 97.615 54.5852C96.3582 54.5852 95.5497 55.6197 95.4195 57.0062H99.5198Z" fill="#292930"/>
<path d="M104.069 51.1591H109.551L111.262 57.172C111.876 59.3382 112.231 60.8277 112.231 60.8277H112.297C112.297 60.8277 112.618 59.3382 113.3 57.172L115.235 51.1591H120.301L114.88 66.0943H109.266L104.069 51.1591Z" fill="#292930"/>
<path d="M124.005 44.6998C125.552 44.6998 126.879 45.7677 126.879 47.4454C126.879 49.1291 125.552 50.1909 124.005 50.1909C122.458 50.1909 121.134 49.1291 121.134 47.4454C121.134 45.7677 122.458 44.6998 124.005 44.6998ZM126.618 51.1587V66.0939H121.425V51.1587H126.618Z" fill="#292930"/>
<path d="M138.008 60.6952L142.33 62.0483C141.491 65.2519 138.847 66.4806 135.876 66.4806C131.458 66.4806 128.23 63.6683 128.23 58.7839C128.23 53.7418 131.068 50.8021 135.749 50.8021C140.167 50.8021 142.43 53.6448 142.43 57.7798C142.43 58.3319 142.43 58.9781 142.363 59.6546H133.266C133.36 61.4961 134.262 62.4973 135.816 62.4973C136.915 62.5003 137.657 62.021 138.008 60.6952ZM137.497 57.0062C137.497 55.7168 137.045 54.5852 135.592 54.5852C134.332 54.5852 133.523 55.6197 133.396 57.0062H137.497Z" fill="#292930"/>
<path d="M156.37 51.1591L157.433 56.362C157.981 59.0469 158.272 61.0522 158.272 61.0522H158.336C158.336 61.0522 158.657 59.0803 159.271 56.4257L160.467 51.1591H165.531L161.497 66.0943H155.659L154.753 61.7287C154.302 59.5262 153.945 56.9415 153.945 56.9415H153.881C153.881 56.9415 153.527 59.5262 153.075 61.7287L152.173 66.0943H146.365L142.331 51.1591H147.591L148.784 56.4257C149.399 59.0772 149.72 61.0522 149.72 61.0522H149.787C149.787 61.0522 150.077 59.0499 150.626 56.362L151.692 51.1591H156.37Z" fill="#292930"/>
<path d="M105.781 15.0652C105.781 15.7751 105.978 16.1634 106.523 16.1634C106.844 16.1634 107.168 16.036 107.459 15.8721V19.5582C106.75 20.0769 106.075 20.2711 104.879 20.2711C102.877 20.2711 101.781 19.364 101.2 17.9108C100.361 19.4641 99.0374 20.3378 96.9085 20.3378C94.1679 20.3378 92.4539 18.7208 92.4539 16.1664C92.4539 12.9658 94.7433 11.3488 99.2312 11.3488H100.748V10.3477C100.748 9.37686 100.427 8.6973 99.4916 8.6973C98.5862 8.6973 98.1683 9.24641 98.1016 10.4781L93.1322 9.70147C93.426 6.62827 95.8123 4.6897 99.6521 4.6897C103.913 4.6897 105.781 6.56456 105.781 9.83192V15.0652ZM100.748 13.9973H100.073C98.2016 13.9973 97.5535 14.5767 97.5535 15.5475C97.5535 16.2605 98.038 16.8096 98.9435 16.8096C99.8156 16.8096 100.748 16.3575 100.748 14.9681V13.9973Z" fill="#292930"/>
<path d="M118.465 10.9251C117.853 10.6976 117.496 10.5368 116.66 10.5368C115.434 10.5368 113.95 11.0222 113.95 13.6737V19.9809H108.75V5.04265H113.205L113.723 8.72866C114.141 6.23795 116.239 5.04265 118.789 5.04265L118.465 10.9251Z" fill="#292930"/>
<path d="M119.29 5.03859H124.778L126.485 11.0545C127.097 13.2206 127.452 14.7072 127.452 14.7072H127.518C127.518 14.7072 127.839 13.2206 128.517 11.0545L130.453 5.03859H135.519L130.098 19.9768H124.484L119.29 5.03859Z" fill="#292930"/>
<path d="M148.041 15.0652C148.041 15.7751 148.235 16.1634 148.783 16.1634C149.107 16.1634 149.428 16.036 149.719 15.8721V19.5582C149.01 20.0769 148.332 20.2711 147.136 20.2711C145.137 20.2711 144.038 19.364 143.456 17.9108C142.618 19.4641 141.297 20.3378 139.168 20.3378C136.425 20.3378 134.714 18.7208 134.714 16.1664C134.714 12.9658 137 11.3488 141.488 11.3488H143.005V10.3477C143.005 9.37686 142.684 8.6973 141.748 8.6973C140.843 8.6973 140.422 9.24641 140.358 10.4781L135.389 9.70147C135.68 6.62827 138.069 4.6897 141.909 4.6897C146.17 4.6897 148.041 6.56456 148.041 9.83192V15.0652ZM142.327 13.9973C140.458 13.9973 139.813 14.5767 139.813 15.5475C139.813 16.2605 140.298 16.8096 141.2 16.8096C142.072 16.8096 143.008 16.3575 143.008 14.9681V13.9973H142.327Z" fill="#292930"/>
<path d="M160.719 10.9251C160.107 10.6976 159.756 10.5368 158.914 10.5368C157.69 10.5368 156.203 11.0222 156.203 13.6737V19.9809H151.01V5.04265H155.465L155.979 8.72866C156.4 6.23795 158.499 5.04265 161.046 5.04265L160.719 10.9251Z" fill="#292930"/>
<path d="M177.276 0V19.9803H172.564L172.08 17.3925C171.531 19.3979 169.757 20.3687 167.495 20.3687C164.009 20.3687 161.523 17.6534 161.523 12.8025C161.523 7.79069 163.912 4.68716 168.106 4.68716C170.014 4.68716 171.525 5.56088 172.043 6.98371V0H177.276ZM172.08 11.4403C172.08 9.5351 171.144 8.50059 169.627 8.50059C168.112 8.50059 166.819 9.63218 166.819 12.6083C166.819 15.0656 167.855 16.358 169.563 16.358C170.886 16.358 172.08 15.3569 172.08 13.3212V11.4403Z" fill="#292930"/>
<path d="M74.1536 19.9814V0.935506H79.444V8.0163H85.9638V0.935506H91.2542V19.9784H85.9638V12.6064H79.444V19.9784L74.1536 19.9814Z" fill="#292930"/>
<path d="M18.0326 39.1896C18.4485 38.8183 19.151 37.8597 19.429 37.8057C19.7027 37.7539 19.6639 38.1857 19.5476 38.3088C19.3924 38.5009 18.9075 39.1896 18.636 39.5113C18.2869 39.8977 18.1899 40.6274 18.7912 40.9102C19.3946 41.1909 20.013 40.8239 19.9936 40.5043C19.9721 40.0164 20.2738 38.6153 20.5324 38.6153C20.735 38.6153 20.75 38.9759 20.7156 39.3796C20.8061 40.2021 20.2544 40.8562 20.3212 41.2837C20.388 41.7047 20.4785 42.1084 21.2004 42.1257C21.9267 42.1386 22.0107 41.7047 22.0818 41.2837C22.1508 40.8562 21.5991 40.2043 21.6896 39.3796C21.6616 38.9759 21.6702 38.6153 21.8749 38.6153C22.1357 38.6153 22.4374 40.0164 22.4137 40.5043C22.4008 40.8217 23.0171 41.1909 23.6248 40.9102C24.2282 40.6296 24.1226 39.8977 23.78 39.5113C23.4998 39.1896 23.0171 38.5009 22.8684 38.3088C22.752 38.1857 22.7068 37.7518 22.9848 37.8057C23.2628 37.8597 23.9717 38.8183 24.379 39.1896C24.795 39.5609 25.0686 38.7405 25.2777 38.326C25.5901 37.4322 24.0709 37.402 23.6054 37.1494C22.849 36.7522 22.2758 35.6058 22.1335 34.8092C21.9568 33.7794 21.7456 33.326 21.2069 33.3368C20.6746 33.3584 20.4548 33.7816 20.2781 34.8092C20.1359 35.6058 19.5605 36.7544 18.8106 37.1494C18.3408 37.402 16.8236 37.4322 17.1383 38.326C17.343 38.7405 17.6167 39.5631 18.0326 39.1896Z" fill="#292930"/>
<path d="M0 0.941186V28.3742C0.0754247 67.6617 32.355 84.5141 32.5533 84.6155L33.0554 84.8875L34.0122 85.3927L35.4431 84.6436C35.6823 84.5119 67.9382 67.6596 68.0137 28.3742V0.941186H0ZM65.9901 28.3742C65.9643 66.3902 34.5962 82.7654 34.5036 82.8172L34.0208 83.0741L33.5467 82.8172C33.4541 82.7675 2.08819 66.3902 2.05586 28.3742V27.3444H22.2524C21.8538 27.9511 21.5693 28.6678 21.4529 29.4062C21.1038 31.4787 22.1081 33.6722 25.8944 33.8665C25.9655 36.9753 26.7262 38.2468 30.6591 38.3159C30.3164 41.6234 32.0404 42.6985 33.9088 42.6985C35.7685 42.6985 37.4947 41.6234 37.152 38.3159C41.0849 38.2468 41.8499 36.9753 41.9103 33.8665C45.6944 33.67 46.7073 31.4787 46.356 29.4062C46.2332 28.6678 45.9552 27.9511 45.5543 27.3444H65.9858V28.3742H65.9901ZM66.0289 25.2762H1.90717V2.97054H66.0268L66.0289 25.2762Z" fill="#292930"/>
<path d="M19.5128 35.4241C19.5645 34.9858 19.808 34.4807 19.3231 34.5303C18.8038 34.5864 18.4029 34.6642 18.8684 35.2946C19.3382 35.9206 19.4546 35.8667 19.5128 35.4241Z" fill="#292930"/>
<path d="M19.4287 60.3667C19.8942 60.9949 20.0127 60.9431 20.0645 60.5049C20.114 60.058 20.3575 59.5571 19.8748 59.6111C19.3512 59.6694 18.9589 59.7493 19.4287 60.3667Z" fill="#292930"/>
<path d="M23.515 35.3416C23.9805 34.7263 23.5862 34.6399 23.0668 34.5795C22.5884 34.532 22.8233 35.0436 22.8772 35.4754C22.931 35.9202 23.0431 35.9655 23.515 35.3416Z" fill="#292930"/>
<path d="M23.4326 60.5586C23.4865 60.9925 23.605 61.0443 24.0726 60.4161C24.5403 59.803 24.1437 59.7317 23.6244 59.6562C23.1374 59.6108 23.3787 60.1182 23.4326 60.5586Z" fill="#292930"/>
<path d="M36.4985 47.8793C36.9596 47.2618 36.5653 47.1841 36.0459 47.1301C35.561 47.074 35.8089 47.5749 35.8606 48.0175C35.9145 48.4557 36.0244 48.5097 36.4985 47.8793Z" fill="#292930"/>
<path d="M31.0078 51.7325C31.4172 51.3569 32.1262 50.4026 32.402 50.3422C32.6822 50.2925 32.6391 50.7114 32.5249 50.8495C32.3697 51.0352 31.887 51.7304 31.6133 52.0499C31.2664 52.4428 31.1586 53.1574 31.7642 53.4467C32.3676 53.7295 32.9925 53.3625 32.971 53.0408C32.9516 52.5486 33.2446 51.1561 33.5076 51.1561C33.7123 51.1561 33.7231 51.5123 33.6972 51.9052C33.7812 52.745 33.2296 53.397 33.305 53.8245C33.3653 54.239 33.4515 54.647 34.1821 54.6621C34.8997 54.6751 34.9902 54.2411 35.0613 53.8245C35.1303 53.3992 34.5786 52.745 34.6605 51.9052C34.6325 51.5101 34.6389 51.1561 34.8458 51.1561C35.1066 51.1561 35.4126 52.5507 35.3824 53.0408C35.3695 53.3625 35.9901 53.7295 36.5935 53.4467C37.1926 53.1552 37.0956 52.4406 36.753 52.0499C36.475 51.7325 35.9923 51.0352 35.8393 50.8495C35.7207 50.7114 35.6776 50.2904 35.9599 50.3422C36.2293 50.4005 36.9405 51.3569 37.3542 51.7325C37.7637 52.1017 38.0395 51.2791 38.2528 50.869C38.561 49.9687 37.0482 49.9342 36.5763 49.6859C35.8242 49.2908 35.2488 48.138 35.1087 47.3435C34.9342 46.3245 34.7122 45.8603 34.1799 45.8776C33.6433 45.8992 33.4213 46.3245 33.2403 47.3435C33.1089 48.1358 32.5292 49.2886 31.7793 49.6859C31.3052 49.9342 29.7967 49.9687 30.1027 50.869C30.3139 51.2791 30.5962 52.1017 31.0078 51.7325Z" fill="#292930"/>
<path d="M44.921 35.4241C44.9663 34.988 45.2162 34.4806 44.7292 34.5303C44.2099 34.5843 43.8155 34.6641 44.2831 35.2945C44.7465 35.9206 44.8671 35.8666 44.921 35.4241Z" fill="#292930"/>
<path d="M32.4863 47.9643C32.5423 47.5326 32.7815 47.0187 32.3031 47.0749C31.7773 47.131 31.3829 47.2152 31.8527 47.837C32.3182 48.4566 32.4389 48.4048 32.4863 47.9643Z" fill="#292930"/>
<path d="M21.7565 53.8351C23.0667 54.3035 25.8919 53.6235 26.241 51.1343C26.5858 48.6451 24.586 47.1576 21.6875 47.1598C22.0366 43.6537 19.8235 42.6434 17.1944 42.8463C17.5456 39.3359 15.7505 38.1917 12.6452 38.3234C13.0589 34.2172 10.2962 33.7422 8.1585 33.8826C8.47744 30.8234 6.31382 29.5691 4.83334 29.4072H4.18038C4.16314 29.4072 4.13944 29.4158 4.11789 29.4158C4.32908 43.481 9.0248 54.4007 14.6493 62.516C17.2202 62.0367 17.5974 60.0419 17.4034 58.2802C20.8622 58.6882 22.2306 56.1904 21.7565 53.8351Z" fill="#292930"/>
<path d="M48.9249 60.4153C49.3839 59.8022 48.9982 59.7309 48.4745 59.6554C47.9853 59.61 48.231 60.1173 48.287 60.5578C48.3387 60.9939 48.4594 61.0435 48.9249 60.4153Z" fill="#292930"/>
<path d="M20.8743 66.354C20.9389 66.762 21.0316 67.1743 21.7578 67.1959C22.4797 67.2046 22.5659 66.7663 22.6413 66.354C22.706 65.9308 22.1522 65.2702 22.2341 64.4477C22.2125 64.0526 22.2211 63.6877 22.4302 63.6877C22.6952 63.6877 22.9861 65.0845 22.9646 65.5746C22.9495 65.9006 23.5723 66.259 24.1714 65.9783C24.7791 65.6933 24.6735 64.9723 24.3265 64.5837C24.0529 64.2642 23.5723 63.5668 23.415 63.3855C23.2986 63.2452 23.2598 62.8285 23.5335 62.876C23.8115 62.9386 24.5183 63.895 24.9364 64.2663C25.3459 64.6333 25.6239 63.8043 25.8329 63.4006C26.1389 62.5155 24.6261 62.4766 24.1563 62.2262C23.4021 61.8289 22.8288 60.6718 22.6931 59.8816C22.5099 58.8605 22.2944 58.4049 21.7578 58.4179C21.2191 58.433 21.0036 58.8605 20.8225 59.8816C20.6868 60.6718 20.1114 61.8289 19.355 62.2262C18.8895 62.4744 17.3745 62.5133 17.6849 63.3984C17.8917 63.8043 18.1654 64.6312 18.5792 64.2642C18.9951 63.8928 19.7019 62.9343 19.9821 62.8738C20.2558 62.8285 20.2105 63.243 20.0985 63.3833C19.9411 63.5647 19.4584 64.2598 19.1826 64.5815C18.8421 64.9723 18.7344 65.6912 19.3399 65.9762C19.9411 66.259 20.5661 65.9006 20.551 65.5725C20.5187 65.0824 20.8247 63.6856 21.0811 63.6856C21.2923 63.6856 21.3009 64.0504 21.2729 64.4455C21.3591 65.268 20.8075 65.9287 20.8743 66.354Z" fill="#292930"/>
<path d="M48.9249 35.3405C49.3839 34.7252 48.996 34.6388 48.4745 34.5806C47.9853 34.5309 48.231 35.0447 48.287 35.4765C48.3387 35.9212 48.4594 35.9666 48.9249 35.3405Z" fill="#292930"/>
<path d="M45.6769 34.8059C45.5411 35.6047 44.9658 36.751 44.2115 37.1461C43.7439 37.4009 42.2289 37.4289 42.5435 38.3227C42.7526 38.7394 43.0263 39.5598 43.4357 39.1863C43.8516 38.8149 44.5649 37.8586 44.8386 37.8024C45.1123 37.7506 45.067 38.1802 44.9593 38.3054C44.8063 38.4954 44.3214 39.1863 44.0434 39.5101C43.7008 39.8944 43.5952 40.6263 44.1964 40.9069C44.8063 41.1897 45.4183 40.8227 45.4075 40.501C45.386 40.0131 45.6812 38.612 45.9398 38.612C46.1596 38.612 46.1639 38.9725 46.1338 39.3763C46.22 40.1966 45.664 40.8508 45.7329 41.2782C45.8084 41.6992 45.8924 42.1029 46.6208 42.1224C47.3384 42.1332 47.4289 41.6992 47.4957 41.2782C47.5711 40.8508 47.0087 40.1988 47.0992 39.3763C47.0712 38.9704 47.082 38.612 47.291 38.612C47.5561 38.612 47.8491 40.0153 47.8297 40.501C47.8103 40.8206 48.4331 41.1876 49.0322 40.9069C49.6378 40.6263 49.5386 39.8944 49.1938 39.5015C48.9159 39.1863 48.4331 38.4954 48.2737 38.3054C48.1595 38.1802 48.1228 37.7484 48.3943 37.8024C48.6745 37.8586 49.3792 38.8149 49.7929 39.1863C50.2088 39.5533 50.4804 38.7372 50.6937 38.3227C50.9997 37.4289 49.4869 37.4009 49.0193 37.1461C48.2672 36.751 47.6897 35.6047 47.5582 34.8059C47.3664 33.7782 47.1531 33.3249 46.6229 33.3335C46.0799 33.3573 45.8536 33.7782 45.6769 34.8059Z" fill="#292930"/>
<path d="M46.6122 47.1595C43.7094 47.1595 41.7096 48.6448 42.0522 51.134C42.3927 53.6254 45.2244 54.3033 46.5346 53.8348C46.0584 56.1923 47.4397 58.6858 50.8877 58.2821C50.7024 59.9833 51.0752 61.8767 53.409 62.4552C59.0292 54.3508 63.7228 43.4592 63.9275 29.4112H63.4599C61.9837 29.5667 59.8115 30.8275 60.1412 33.8845C57.9992 33.7485 55.2343 34.2213 55.6502 38.3253C52.5406 38.1915 50.7498 39.34 51.0946 42.8482C48.4741 42.6453 46.2652 43.6535 46.6122 47.1595Z" fill="#292930"/>
<path d="M42.2638 67.4496C43.0202 63.3974 39.9127 62.2661 37.5659 62.9376C37.8353 60.2972 36.2514 58.5572 34.1115 58.5572C31.9759 58.5572 30.3855 60.2994 30.657 62.9376C28.3167 62.264 25.2049 63.3952 25.9634 67.4496C23.1943 66.5062 21.063 68.0347 21.063 70.349C26.8836 76.4026 32.3659 79.7877 34.0016 80.7225C35.6113 79.7769 41.2014 76.3421 47.1362 70.1504C47.0026 67.9462 44.9424 66.5386 42.2638 67.4496Z" fill="#292930"/>
<path d="M49.0068 62.2241C48.2547 61.8269 47.6772 60.6719 47.5457 59.8817C47.3561 58.8605 47.1427 58.4029 46.6104 58.418C46.076 58.4331 45.8497 58.8605 45.6709 59.8817C45.5373 60.6719 44.9597 61.829 44.2076 62.2241C43.74 62.4767 42.2229 62.5156 42.5375 63.4007C42.7465 63.8044 43.0202 64.6334 43.4297 64.2643C43.8456 63.8951 44.5589 62.9387 44.8326 62.8782C45.1063 62.8308 45.061 63.2431 44.9533 63.3856C44.8003 63.5669 44.3154 64.2621 44.0374 64.5816C43.6947 64.9724 43.5891 65.6934 44.1904 65.9784C44.8003 66.2612 45.4123 65.9007 45.4015 65.5747C45.3799 65.0846 45.6752 63.6878 45.9338 63.6878C46.1514 63.6878 46.1557 64.0505 46.1277 64.4456C46.2161 65.2681 45.6601 65.9288 45.7291 66.3541C45.8023 66.7621 45.8864 67.1744 46.6169 67.1939C47.3345 67.2047 47.425 66.7643 47.4897 66.3541C47.5651 65.9288 47.0048 65.2703 47.0953 64.4456C47.0651 64.0527 47.0759 63.6878 47.2871 63.6878C47.55 63.6878 47.8453 65.0846 47.8237 65.5747C47.8065 65.8985 48.4293 66.2591 49.0283 65.9784C49.6339 65.6913 49.5326 64.9724 49.1878 64.5816C48.9098 64.2643 48.4293 63.5648 48.2676 63.3856C48.1534 63.2431 48.1146 62.8286 48.3883 62.8782C48.6663 62.9365 49.3731 63.8951 49.7869 64.2643C50.2028 64.6334 50.4743 63.8023 50.6877 63.4007C50.9894 62.5156 49.4766 62.4767 49.0068 62.2241Z" fill="#292930"/>
<path d="M44.921 60.5049C44.9663 60.058 45.2162 59.5571 44.7292 59.6111C44.2099 59.6672 43.8155 59.7471 44.2831 60.3667C44.7465 60.9949 44.8671 60.941 44.921 60.5049Z" fill="#292930"/>
<path d="M39.852 8.90232C39.6904 8.90232 39.4878 8.90232 39.2529 8.90232C39.2659 8.93902 39.2809 8.97356 39.2896 9.02538V18.1208C39.2896 18.1812 39.2745 18.2309 39.2529 18.2784L40.0632 18.9606V9.08798C40.0654 9.02106 39.9641 8.90232 39.852 8.90232Z" fill="#292930"/>
<path d="M39.8598 19.5179H34.7676C34.7374 19.6777 34.6706 19.8224 34.5801 19.9454H40.7994C40.9567 19.9454 41.0796 19.8116 41.0796 19.6626V18.173C41.4998 18.1125 41.8123 17.8599 41.8123 17.5512C41.8123 17.2468 41.4976 16.9856 41.0796 16.9251V12.1237C41.4998 12.0611 41.8123 11.8107 41.8123 11.4998C41.8123 11.1868 41.4976 10.9364 41.0796 10.8781V8.97392C41.0796 8.81848 40.9546 8.69542 40.7994 8.69542L40.2585 8.79689C40.321 8.87461 40.3641 8.97392 40.3641 9.08618V19.0495C40.3619 19.3237 40.127 19.5179 39.8598 19.5179Z" fill="#292930"/>
<path d="M25.7672 17.5512C25.7672 17.8599 26.0862 18.119 26.5129 18.173V19.6626C26.5129 19.8116 26.6314 19.9454 26.7844 19.9454H33.0791C32.9886 19.8224 32.9153 19.6777 32.8916 19.5201H28.0558C27.7886 19.5201 27.5559 19.3258 27.5559 19.0516V9.08834C27.5559 9.00198 27.5774 8.92426 27.6205 8.8595L26.7844 8.69542C26.6292 8.69542 26.5129 8.81848 26.5129 8.97392V10.8759C26.0862 10.9363 25.7672 11.1868 25.7672 11.4998C25.7672 11.8085 26.0862 12.0611 26.5129 12.1216V16.9251C26.084 16.9834 25.7672 17.2468 25.7672 17.5512Z" fill="#292930"/>
<path d="M38.865 18.5421H34.3524C34.5808 18.6932 34.7317 18.935 34.7726 19.2135H39.8606C39.8692 19.2135 39.8864 19.2135 39.8864 19.2135L39.046 18.5032C38.99 18.527 38.9275 18.5421 38.865 18.5421Z" fill="#292930"/>
<path d="M10.9232 8.90232C10.6862 8.90448 10.4857 8.90448 10.3284 8.90448C10.2099 8.90448 10.1172 9.02322 10.1172 9.08798L10.1194 18.9023L10.9081 18.2331C10.8952 18.1899 10.8866 18.1575 10.8866 18.1229V9.02538C10.893 8.96709 10.906 8.93686 10.9232 8.90232Z" fill="#292930"/>
<path d="M33.1729 19.3448C33.1729 19.6125 33.3324 19.8349 33.5436 19.945H34.1082C34.3302 19.8349 34.4853 19.6104 34.4832 19.3448C34.4832 18.9907 34.1901 18.6971 33.8302 18.6971C33.4703 18.6971 33.1729 18.9907 33.1729 19.3448Z" fill="#292930"/>
<path d="M38.8543 8.95538C38.7465 8.90141 38.6086 8.87334 38.5784 8.87334C38.3155 8.87334 37.9082 8.85607 37.4406 8.85607C36.7251 8.85607 35.8696 8.91436 35.2188 9.1907C34.5615 9.46272 34.1154 9.91393 34.109 10.7667L34.1068 18.2365H38.8672C38.9297 18.2365 38.9836 18.1868 38.9836 18.1199V9.03742L38.9749 9.02878C38.9534 9.00719 38.9038 8.97697 38.8543 8.95538ZM37.3156 11.6367C37.0872 11.6454 36.8588 11.6518 36.8588 12.0923V15.2766C36.8588 15.6998 37.0505 15.7257 37.3156 15.7473V15.9178H35.639V15.7473C35.8955 15.7149 36.083 15.689 36.083 15.2766V12.0901C36.083 11.6626 35.861 11.6475 35.639 11.6346V11.4597H37.3156V11.6367Z" fill="#292930"/>
<path d="M31.1875 11.6853C30.9181 11.6853 30.9074 11.7544 30.8837 11.966V13.6391C31.5172 13.6326 31.7607 13.488 31.7607 12.6374C31.7607 11.9746 31.5646 11.6853 31.1875 11.6853Z" fill="#292930"/>
<path d="M22.1276 19.5179H17.0311C16.9966 19.6777 16.932 19.8224 16.8414 19.9454H23.0629C23.2202 19.9454 23.3409 19.8116 23.3409 19.6626V18.173C23.759 18.1125 24.0779 17.8599 24.0779 17.5512C24.0779 17.2468 23.7611 16.9856 23.3409 16.9251V12.1237C23.7568 12.0611 24.0779 11.8107 24.0779 11.4998C24.0779 11.1868 23.7568 10.9364 23.3409 10.8781V8.97392C23.3409 8.81848 23.2181 8.69542 23.0629 8.69542L22.5198 8.79689C22.5802 8.87461 22.6254 8.97392 22.6254 9.08618V19.0495C22.6254 19.3237 22.3884 19.5179 22.1276 19.5179Z" fill="#292930"/>
<path d="M21.5134 18.2913L22.328 18.9822V9.08798C22.328 9.02106 22.2245 8.90448 22.1125 8.90448C21.953 8.90448 21.7504 8.90448 21.5134 8.90232C21.5349 8.93902 21.55 8.97356 21.5522 9.02538V18.1208C21.5522 18.1812 21.5349 18.2374 21.5134 18.2913Z" fill="#292930"/>
<path d="M21.1206 18.5416H16.6145C16.8386 18.6927 16.9916 18.9345 17.0326 19.213H22.1378L21.3016 18.5113C21.2477 18.5308 21.1852 18.5416 21.1206 18.5416Z" fill="#292930"/>
<path d="M8.02939 17.5512C8.02939 17.8599 8.35264 18.119 8.77286 18.173V19.6626C8.77286 19.8116 8.89354 19.9454 9.05085 19.9454H15.3391C15.2443 19.8224 15.1753 19.6777 15.1538 19.5201H10.3201C10.0529 19.5201 9.81803 19.3258 9.81588 19.0516V9.08834C9.81803 9.00198 9.84389 8.92426 9.88484 8.8595L9.05301 8.69542C8.8957 8.69542 8.77286 8.81848 8.77286 8.97392V10.8759C8.35695 10.9363 8.03154 11.1868 8.03154 11.4998C8.03154 11.8085 8.35695 12.0611 8.77286 12.1216V16.9251C8.35264 16.9834 8.02939 17.2468 8.02939 17.5512Z" fill="#292930"/>
<path d="M14.9734 9.1907C14.3204 8.92084 13.4778 8.85607 12.771 8.85607C12.2883 8.85607 11.8853 8.8863 11.6138 8.8863C11.5814 8.8863 11.4629 8.90141 11.3703 8.93595C11.2841 8.97049 11.2108 9.02231 11.1871 9.03526V18.1177C11.1871 18.1846 11.2431 18.2343 11.3164 18.2343H16.0638V10.7645H16.066C16.0595 9.91609 15.6199 9.47783 14.9734 9.1907ZM15.0855 11.6626C14.8247 11.7036 14.7665 11.8332 14.6545 12.2024L13.5619 16.0711H13.4326L12.2129 12.1203C12.09 11.7231 12.0124 11.7036 11.812 11.6626V11.4964H13.4197V11.6626C13.1201 11.6864 13.0037 11.6864 13.0037 11.9325C13.0037 12.0577 13.105 12.3405 13.1503 12.5003L13.7731 14.5793L14.3851 12.4182C14.426 12.2671 14.4778 12.0944 14.4778 11.9606C14.4778 11.7015 14.3377 11.6821 14.0661 11.6626V11.4964H15.0855V11.6626Z" fill="#292930"/>
<path d="M10.2337 19.2008C10.2531 19.2137 10.2811 19.2137 10.3199 19.2137H15.1492C15.1923 18.9352 15.341 18.6977 15.5716 18.5423H11.3198C11.2357 18.5423 11.1495 18.5185 11.0827 18.4732L10.2337 19.2008Z" fill="#292930"/>
<path d="M15.4368 19.3448C15.4389 19.6125 15.5919 19.8349 15.8096 19.945H16.3699C16.5875 19.8349 16.7427 19.6104 16.7427 19.3448C16.7427 18.9907 16.4475 18.6971 16.0897 18.6971C15.7277 18.6971 15.4389 18.9907 15.4368 19.3448Z" fill="#292930"/>
<path d="M21.1091 8.95538C21.0035 8.90141 20.8613 8.87334 20.8333 8.87334C20.5682 8.87334 20.1631 8.85607 19.7019 8.85607C18.9843 8.85607 18.1287 8.91436 17.4693 9.1907C16.8164 9.46272 16.3724 9.91393 16.3681 10.7667L16.3638 18.2365H21.1156C21.1867 18.2365 21.2427 18.1868 21.2427 18.1199V9.03742L21.2319 9.02878C21.2082 9.00719 21.1608 8.97697 21.1091 8.95538ZM20.0596 16.0409H17.2538V15.8746C17.5297 15.8358 17.6805 15.8099 17.6805 15.4148V12.2196C17.6805 11.7835 17.4801 11.7749 17.2538 11.7533V11.5828H20.0144V12.9126H19.8958C19.7902 11.9778 19.4476 11.8116 18.8054 11.8116C18.5382 11.8116 18.4563 11.8353 18.4563 12.1182V13.6488C18.9153 13.6553 19.1567 13.4826 19.2321 12.6644H19.3506V14.8923H19.2321C19.1718 14.0633 18.9261 13.869 18.4563 13.869V15.4644C18.4563 15.7559 18.5447 15.8314 18.855 15.8314C19.3312 15.8314 19.8118 15.6631 20.1113 14.6613H20.2493L20.0596 16.0409Z" fill="#292930"/>
<path d="M32.7202 9.1907C32.0716 8.92084 31.2204 8.85607 30.5157 8.85607C30.0351 8.85607 29.6214 8.8863 29.3563 8.8863C29.3218 8.8863 29.2055 8.90141 29.1106 8.93595C29.0266 8.97049 28.9576 9.02231 28.9318 9.03526H28.9339V18.1177C28.9339 18.1846 28.99 18.2343 29.0632 18.2343H33.8064V10.7645C33.8021 9.91609 33.3646 9.47783 32.7202 9.1907ZM32.9853 15.92H32.0048L31.0113 13.8517H30.882V15.1449C30.882 15.6717 30.992 15.6911 31.3023 15.7494H31.3044V15.9221H29.6903V15.7494C30.0114 15.6998 30.1127 15.676 30.1127 15.1449V12.2304C30.1127 11.6669 29.9619 11.654 29.6903 11.6367V11.4597H31.2312C31.5673 11.4597 32.5759 11.5094 32.5759 12.6169C32.5759 13.4308 32.0845 13.6315 31.8281 13.7481L32.7892 15.6242C32.8539 15.7473 32.9271 15.7473 32.9853 15.7473V15.92Z" fill="#292930"/>
<path d="M56.607 18.5326H52.0707C52.3078 18.6751 52.4716 18.9169 52.519 19.1933H57.5638L56.7471 18.5024C56.6997 18.5283 56.6587 18.5326 56.607 18.5326Z" fill="#292930"/>
<path d="M50.853 14.3509H51.7861L51.3077 12.7555L50.853 14.3509Z" fill="#292930"/>
<path d="M51.568 18.6971C51.2081 18.6971 50.9193 18.9907 50.9193 19.3448C50.9193 19.6125 51.0658 19.8349 51.29 19.945H51.8481C52.0679 19.8349 52.2252 19.6104 52.2252 19.3448C52.2274 18.9907 51.9343 18.6971 51.568 18.6971Z" fill="#292930"/>
<path d="M56.5985 8.94001C56.5059 8.90331 56.3744 8.86013 56.3378 8.86876C56.3011 8.86876 56.2602 8.86013 56.2171 8.86013H56.1137C55.2064 8.86013 54.1095 8.9249 53.2734 9.24441C52.4265 9.5704 51.8576 10.0864 51.8511 11.06H51.5472C51.5472 10.0864 50.9719 9.5704 50.1336 9.24441C49.291 8.92705 48.2027 8.86013 47.2847 8.86013H47.2416C47.192 8.86013 47.1338 8.86876 47.0907 8.86876C47.0217 8.85149 46.7157 8.97455 46.6748 9.02636H46.677V18.1023C46.677 18.1779 46.7308 18.2362 46.7976 18.2362H56.605C56.6675 18.2362 56.7278 18.1779 56.7278 18.1023V9.035C56.7235 9.02852 56.7192 9.02636 56.7149 9.01341C56.6955 8.99398 56.6546 8.96807 56.5985 8.94001ZM49.7586 12.7915C49.6638 11.7336 49.1681 11.6904 48.8384 11.6753V15.1447C48.8384 15.7017 48.9526 15.7168 49.3125 15.7492V15.9219H47.5993V15.7492C47.9527 15.7125 48.0626 15.6995 48.0626 15.1447V11.6753C47.7264 11.6904 47.2372 11.7315 47.1489 12.7915H47.0067L47.0196 11.4616H49.8965L49.9008 12.7915H49.7586ZM53.2497 15.9003H51.7045V15.7448C51.9998 15.7125 52.0795 15.7017 52.0795 15.4836C52.0795 15.3044 51.933 14.8122 51.8683 14.6006H50.7908C50.6551 15.0799 50.5753 15.3498 50.5753 15.462C50.5753 15.7125 50.8038 15.7297 50.9697 15.7427L50.9719 15.8981H50.0021V15.7427C50.2607 15.6909 50.3232 15.4642 50.4741 14.9655L51.5343 11.358H51.6679L52.7303 14.8252C52.948 15.5268 53.0212 15.7578 53.2497 15.7427V15.9003ZM54.8702 15.9283C54.4112 15.9283 54.2 15.7017 54.0492 15.7017C53.95 15.7017 53.9285 15.8182 53.9048 15.9262H53.7669V14.2962H53.9048C54.0018 14.9568 54.2798 15.7103 54.8918 15.7103C55.4693 15.7103 55.4844 15.0561 55.4844 14.9612C55.4844 14.5251 55.2603 14.3653 54.9521 14.1645L54.6332 13.9573C53.8121 13.4175 53.8121 12.8541 53.8121 12.5497C53.8121 12.1438 53.9565 11.2457 54.8702 11.2457C55.2517 11.2457 55.4801 11.4659 55.6137 11.4659C55.7279 11.4659 55.7495 11.3688 55.7775 11.2371H55.9132V12.6706H55.7839C55.6956 12.2129 55.4068 11.4573 54.8401 11.4573C54.5987 11.4573 54.3336 11.6559 54.3336 12.0834C54.3336 12.4396 54.4241 12.5842 54.8293 12.8584L55.5253 13.3377C55.6956 13.4456 56.0555 13.8299 56.0555 14.5445C56.0555 15.1296 55.7495 15.9283 54.8702 15.9283Z" fill="#292930"/>
<path d="M45.7486 19.19C45.7658 19.19 45.7809 19.1943 45.8003 19.1943H50.6296C50.6792 18.9201 50.8494 18.6761 51.0779 18.5315H46.8002C46.7248 18.5315 46.6537 18.5121 46.589 18.4732L45.7486 19.19Z" fill="#292930"/>
<path d="M46.4144 8.87636C46.1795 8.88715 45.9683 8.88715 45.8067 8.88715C45.6881 8.88931 45.5998 8.99294 45.5998 9.0685L45.6019 18.9152L46.395 18.2373C46.3777 18.1941 46.3713 18.1488 46.3713 18.0991V9.01021C46.3756 8.95839 46.3885 8.91737 46.4144 8.87636Z" fill="#292930"/>
<path d="M57.6037 19.4964H52.5201C52.4921 19.6669 52.4253 19.8116 52.324 19.9454H58.5476C58.7006 19.9454 58.817 19.8116 58.817 19.6626V18.173C59.2415 18.1233 59.5626 17.8599 59.5626 17.5512C59.5626 17.2468 59.2415 16.9856 58.817 16.9251V12.1237C59.2415 12.0611 59.5626 11.8085 59.5626 11.4998C59.5626 11.1868 59.2415 10.9363 58.817 10.8759V8.97392C58.817 8.81848 58.7006 8.69542 58.5476 8.69542L58.0239 8.79689C58.0757 8.87461 58.1144 8.96528 58.1144 9.06891V19.0279C58.1101 19.3042 57.8709 19.4964 57.6037 19.4964Z" fill="#292930"/>
<path d="M28.6689 8.90232C28.4318 8.90448 28.2314 8.90448 28.0676 8.90448C27.9491 8.90448 27.8543 9.02322 27.8543 9.08798V18.9304L28.6559 18.2525C28.6387 18.2115 28.6258 18.1683 28.6258 18.1229V9.02538C28.6344 8.97356 28.6452 8.93686 28.6689 8.90232Z" fill="#292930"/>
<path d="M27.9894 19.2029C28.0131 19.2137 28.0325 19.2137 28.0519 19.2137H32.8855C32.9286 18.9352 33.0752 18.6978 33.31 18.5423H29.0583C28.9764 18.5423 28.9031 18.5272 28.8406 18.4862L27.9894 19.2029Z" fill="#292930"/>
<path d="M43.5111 17.5512C43.5111 17.8599 43.8258 18.119 44.2503 18.173V19.6626C44.2503 19.8116 44.3817 19.9454 44.5261 19.9454H50.823C50.726 19.8116 50.6549 19.6669 50.6248 19.4964H45.7933C45.526 19.4964 45.2998 19.3042 45.2933 19.0344V9.07107C45.2998 8.99335 45.317 8.91779 45.3515 8.8595L44.5283 8.69542C44.3817 8.69542 44.2524 8.81848 44.2524 8.97392V10.8759C43.8301 10.9363 43.5133 11.1868 43.5133 11.4998C43.5133 11.8085 43.8279 12.0611 44.2524 12.1216V16.9251C43.8279 16.9834 43.5111 17.2468 43.5111 17.5512Z" fill="#292930"/>
<path d="M56.9721 18.3042L57.8061 19.0059V9.0685C57.8061 8.99509 57.7091 8.88931 57.5906 8.88715C57.4247 8.88715 57.2242 8.88715 56.9915 8.87636C57.0066 8.91522 57.0217 8.95623 57.0303 9.00805V18.097C57.0325 18.1812 57.0066 18.2459 56.9721 18.3042Z" fill="#292930"/>
</svg>
