<svg width="200" height="84" fill="none" xmlns="http://www.w3.org/2000/svg"><path fill-rule="evenodd" clip-rule="evenodd" d="M8.939 51.917c1.625 0 2.52.489 2.52 1.871 0 1.222-.569 2.117-2.52 2.117H7.8v-3.988H8.94zM0 68.43h11.783c5.2 0 8.044-2.359 8.044-6.02 0-2.196-1.299-4.474-4.55-4.88v-.08c3.17-.734 3.982-2.524 3.982-4.556 0-3.498-2.194-5.45-6.745-5.45H0V68.43zm7.801-8.54h1.137c1.95 0 2.926.57 2.926 1.871 0 1.546-.813 2.197-2.844 2.197H7.8V59.89zm29.416 8.54h-6.825l-.163-2.195h-.082c-1.218 2.114-2.926 2.683-4.632 2.683-2.925 0-5.038-1.463-5.038-5.368V53.87h7.07V62.9c0 1.058.405 1.708 1.218 1.708s1.463-.488 1.463-1.627v-9.11h6.988V68.43h.001zm9.915-10.086c0-.732-.081-1.139-.326-1.383a1.818 1.818 0 0 0-1.055-.326c-1.138 0-1.545.488-1.545 1.139 0 .65.325.895 2.194 1.22 5.688.733 7.15 1.87 7.15 4.717 0 3.174-2.113 5.207-7.963 5.207-4.713 0-7.639-1.383-7.72-5.288h6.339c0 .815.162 1.301.407 1.547.324.324.73.488 1.218.488 1.056 0 1.382-.57 1.382-1.303 0-.405-.162-.893-1.057-1.056-.406-.08-.975-.164-3.088-.569-3.576-.734-4.957-1.79-4.957-4.475 0-2.602 2.113-4.88 7.313-4.88 4.47 0 7.639 1.139 7.72 4.96h-6.012v.002zM54.2 53.87h7.07V68.43H54.2V53.871zm8.533 0h6.908l.162 2.195h.082c1.137-2.114 2.925-2.683 4.55-2.683 3.007 0 5.12 1.463 5.12 5.368v9.679h-7.07v-9.029c0-1.058-.405-1.708-1.299-1.708-.73 0-1.382.488-1.382 1.627v9.11h-7.069V53.871h-.002zm24.215 5.45v-.164c0-1.383.732-2.115 1.87-2.115 1.055 0 1.787.732 1.787 2.114v.164H86.95zm3.656 4.472c-.162 1.058-.893 1.466-1.706 1.466-1.38 0-1.95-.732-1.95-2.359v-.488h9.996v-.977c0-5.205-2.6-8.052-8.126-8.052-5.283 0-8.696 2.683-8.696 7.646 0 5.939 3.9 7.89 8.126 7.89 5.526 0 8.046-1.79 8.532-5.125h-6.176zm16.01-5.45c0-.73-.163-1.138-.326-1.382a2.042 2.042 0 0 0-1.057-.326c-1.218 0-1.543.488-1.543 1.139 0 .65.325.895 2.194 1.22 5.608.733 7.152 1.87 7.152 4.717 0 3.174-2.195 5.207-7.964 5.207-4.796 0-7.72-1.383-7.72-5.288h6.338c0 .815.162 1.301.406 1.547.325.324.65.488 1.137.488 1.138 0 1.463-.57 1.463-1.303 0-.405-.162-.893-1.056-1.056-.487-.08-1.057-.164-3.169-.569-3.575-.734-4.957-1.79-4.957-4.475 0-2.602 2.113-4.88 7.314-4.88 4.55 0 7.638 1.139 7.8 4.96h-6.012v.002z" fill="#292930"/><path fill-rule="evenodd" clip-rule="evenodd" d="M122.054 58.344c0-.732-.082-1.139-.326-1.383a1.811 1.811 0 0 0-1.056-.326c-1.138 0-1.545.488-1.545 1.139 0 .65.326.895 2.195 1.22 5.688.733 7.151 1.87 7.151 4.717 0 3.174-2.194 5.207-7.964 5.207-4.712 0-7.638-1.383-7.719-5.288h6.338c0 .815.163 1.301.407 1.547.325.324.731.488 1.219.488 1.057 0 1.382-.57 1.382-1.303 0-.405-.163-.893-1.057-1.056-.406-.08-.975-.164-3.087-.569-3.576-.734-4.957-1.79-4.957-4.475 0-2.602 2.113-4.88 7.313-4.88 4.469 0 7.639 1.139 7.719 4.96h-6.013v.002zm9.344-10.9h7.477l1.788 13.178 1.951-13.177h8.612l1.951 13.177h.082l1.787-13.177h7.477l-4.552 20.985h-9.02L147 54.846h-.081L144.97 68.43h-9.021l-4.551-20.985zm31.125 6.427h6.987V68.43h-6.987V53.871zm8.532 0h6.825l.162 1.544c1.057-1.3 2.031-1.708 2.927-1.708.568 0 1.137 0 1.867.408v5.287c-.811-.245-1.705-.407-2.925-.407-1.381 0-1.869.895-1.869 1.79v7.646h-6.987v-14.56z" fill="#292930"/><path fill-rule="evenodd" clip-rule="evenodd" d="M189.338 59.32v-.163c0-1.383.731-2.115 1.869-2.115 1.057 0 1.788.732 1.788 2.114v.164h-3.657zm3.656 4.473c-.163 1.058-.893 1.466-1.706 1.466-1.382 0-1.95-.732-1.95-2.359v-.488h9.995v-.977c0-5.205-2.6-8.052-8.126-8.052-5.282 0-8.614 2.683-8.614 7.646 0 5.939 3.82 7.89 8.045 7.89 5.525 0 8.044-1.79 8.532-5.125h-6.176zm-45.912-37.498c-.325.326-3.494 2.93-5.607 3.985-.245.163-.163 0 0-.162 1.788-1.707 3.575-3.01 5.607-4.067 0 0 .325 0 0 .244zm-29.74-11.389C83.374 16.453 47.051 30.2 24.135 48.666 50.87 30.443 81.262 19.136 113.44 17.428c1.3-1.22 2.682-1.953 3.902-2.522zm64.438 36.442c0-12.607-10.158-24.24-29.984-30.097a5.56 5.56 0 0 0-.081-2.847c20.558 5.613 31.203 17.814 30.065 32.945zm-48.268-37.825c.325.407.975.65 1.463.65h-.082c.082.163.325.083.325.326-.243.163-.65 0-.893.163.162-.407-.245-.488-.487-.65a1.14 1.14 0 0 0-1.138.162c-.244-.245 0-.57.245-.57.244 0 .567-.081.567-.081zm3.087 1.14l.245.243c-.325 0-.65.326-.977.326 0 .163 0-.325-.325-.245h-.161l.325-.324h-.081c.324-.164.73-.082.974 0zm-17.145 2.277c.325-.326 2.031-1.545 2.031-1.545s-1.87 1.545-2.031 1.708c-.163.162-.327.162 0-.163zm.325 1.627c-.407.244-.488 0 0-.244.893-.731 1.543-.977 2.6-1.707 0-.002-1.95 1.545-2.6 1.951zm.486 1.384c-.486.243-.65.08-.081-.326 1.219-.814 2.032-1.139 3.414-2.033 0-.001-2.519 1.87-3.333 2.359zm1.057 2.927c-.244.244-.812.162 0-.407.732-.407 2.52-1.79 4.632-3.335-1.706 1.545-4.062 3.336-4.632 3.742zm-.731-1.382c-.244.243-.651.163-.081-.245.568-.325 2.925-2.115 4.388-3.172-1.463 1.139-3.819 3.091-4.307 3.417zm1.381 2.602c-.486.245-.405 0 0-.244.813-.732 1.219-.895 1.788-1.383l4.227-3.091c-2.115 1.546-3.82 3.255-6.015 4.718zm.813 1.221c-.487.244-.568.082-.081-.407.651-.488 1.138-.732 1.788-1.22l5.769-4.23c-2.519 1.952-4.956 3.742-7.476 5.857zm26.573-2.523c-3.25 3.254-6.908 5.939-10.647 8.298-1.949.894-1.218.243-1.056.08 4.631-3.823 9.833-7.646 11.539-8.54.245-.081.245 0 .164.162zm-21.696-8.458c0 .08 0 .08 0 0zm10.156-6.833c0-.082 0-.082 0 0zm-7.964 5.205l.081-.08-.081.08zm-6.094 13.178c.813-.488 3.982-2.847 6.095-4.392-2.031 1.627-5.607 4.474-6.256 4.962-.326.244-.569-.082.161-.57zm21.86-5.207c-.325.407-.407.896-.568 1.302 2.031-1.545 4.712-3.416 5.363-3.822.487-.326.407 0 .407 0-1.87 2.277-6.258 5.205-6.664 5.53-.325.326-.487.57-.325.895 2.194-1.79 5.444-3.905 6.42-4.474.243-.082.487 0-.244.651-.894.976-8.126 6.427-12.19 9.517l-.731.57c-1.545.732-1.057.65-2.113.976-.163-.243.325-.569.487-.813-.162-.57-.731-.326-1.383.082-1.299.731-1.056-.082-.486-.57.568-.651 1.463-.814 1.869-1.708 0 0 .405-.57-.162-.162-.732.406-1.869 1.545-3.658 2.44-.406.244-.893.082-.08-.732 1.788-1.22 1.543-1.138 2.437-1.79.976-.731 2.438-1.139 2.031-2.602-2.113 1.545-3.819 2.765-5.77 4.392-.65.488-1.056.326-.406-.244 1.057-.976 1.706-1.301 2.926-2.276l3.414-2.441c.08-.163.244-.407.08-.65-.08-.245-.407-.326-.65-.407a208.596 208.596 0 0 0-6.582 5.368c-.976.814-1.382.163-.245-.65 2.276-1.628 4.389-3.173 6.583-4.718-.163-.325-.731-.488-.813-.976-2.356 1.87-4.795 3.66-7.069 5.693-.894.732-.975 0-.406-.488.406-.325 4.875-3.335 7.394-5.287-.325-.406-.244-.895-.65-1.14-2.52 1.871-5.201 3.824-7.558 6.021-1.543 1.057-.975 0-.244-.488.325-.325 4.957-3.416 7.801-5.613-.325-.326-.568-.65-.406-1.057.081 0 .162-.082.243-.163 0-.082-.08-.163-.161-.163h-.244c-2.926 2.278-7.396 5.858-8.289 6.508-.895.65-1.138.325-.163-.407 2.763-1.708 5.851-4.23 8.614-6.264-.407-.814.893-2.277.893-2.277v-.081s-.162-.407-.245-.65c.326.405.57.081.813-.164.162-.406.732-.406 1.057-.731.244.406.406 0 .568.244.245.57.894.162 1.383.244.08-.244.405 0 .486-.163 3.088-2.359 6.176-4.717 9.182-7.239-.08-.325-.243-.57-.406-.813-.405-.081-.487.569-.975.488-1.95 1.463-3.982 2.927-6.014 4.392 2.276-1.708 4.713-3.66 6.988-5.45-.08-.162-.08-.326-.162-.407-.406.081-.65-.731-.975-.162-2.276 1.627-4.551 3.335-6.907 5.044l7.069-5.531c-.081-.408-.488-.489-.568-.895a155.638 155.638 0 0 0-5.933 4.23c2.113-1.546 4.145-3.254 6.176-4.8-.244-.569-.893-.163-.893-.813l-4.877 3.578 4.47-3.578c0-.163-.245-.489-.488-.57-.161.163.082.245 0 .326h.082v.245c-.488-.977-1.138-.245-1.706 0l-1.544 1.22c.893-.732 1.706-1.384 2.601-2.116l-.65-.569c.325-.082.811.65 1.217.081-.243-.406-.568-.569-1.056-.65-1.219.813-2.276 1.707-3.494 2.52.813-.65 2.195-1.79 3.169-2.603-.325-.324-.568-.65-.975-.731-.245.244-.813.325-.652.731v.327c-.811-.407-1.299.406-1.868.732l.08.407h-.65c-.406-.651-1.543-.732-1.382-1.627-.487.161-.568-.732-1.137-.732-.082-.243-.162 0-.326 0-.406-.243-.893-.325-1.056.245.244.65 1.056.325 1.219.894.244.163.487.163.65.407-.162.326-.325-.162-.65-.082-.082.326.568.326.568.732-.163.326-.488.326-.568.57.08.163.162.163.325.163l.244-.326c.244.244.487.732.894.732l-.081.08c.486.326 1.218.57 1.137 1.303.081.082.162.162.326.082l.568.568-.243.163c-.163-.488-.732-.325-1.057-.325-.081-.245.08-.408 0-.57-.162.244-.406 0-.65.162l.161.163-.161.163c-.245-.245-.651-.732-.894-.326.162.081.406.081.568.326 0 .163 0 .325.081.407.325-.163.245.244.406.244l.244-.244c0 .081 0 .163.082.163-.244 0-.813.976-1.219.325-.244.081-.569.245-.731.488.08.081 0 .244.08.326-.244.08-.65 0-.731.406v.163c-.081.243-.812.406-.406.731.162.57-.487.57-.731.895-.488.082-.569.733-.488 1.057-.161.407.244.733.163 1.058-.488-.082-.488-.65-.732-1.058.244-.406-.569-.08-.651-.488-.812-.244-1.057.813-1.788.082-.325.244-.975.325-.975.894l.162.163c-.569.325-.488.976-.406 1.464.244 0 .325.407.325.407.325.489.813 0 1.138.082.243-.162.161-.814.65-.65l.406.081c.081.489-.406.814-.406 1.465.325.163.975-.163 1.299.325.082.406-.486 1.302.244 1.464.163.569.488.081.813.081-.162.245-.325.57-.325.651-.244-.243-.65-.325-.975-.406l.081-.08c-.569-.652-1.058-1.384-2.032-1.628-.325-.243-.568-.813-1.057-.569-.244.081-.486-.082-.731-.162-.244-.081-.732-.732-1.218-.895 0-.082-.082-.244-.163-.325.325-.814-.487-1.547-.568-2.277l-.245-.245c.082.57-.243 1.14.245 1.627-.162.082-.325-.488-.569-.65.245-.408-.487-.651-.08-.977-.163-.488-.325-1.302-.245-1.464.081-.163-.08-.245-.162-.407v-.082c-.081-.408-.243-.814-.081-1.22.244-.895 1.382-1.627 1.138-2.684.325-.244.325-.65.568-.976-.406-.489.813-1.301-.162-1.627-.487.408-1.137.326-1.705.488l-.082-.081c.325-.081.651-.326.651-.326.162.163.244.082.406.082.488-.245.244-1.058.731-.814v-.088c.244-.163 1.057.082 1.057-.488-.081-.163-.244-.08-.325-.08.487-.408 1.218-.57 2.031-.814-.325.162-.732.244-.893.488.244.325.975-.082.893.488 0 .08-.081.08 0 .163.406.162.813.325 1.138.568.081-.08.406-.162.244-.325l-.244-.244c.406 0 .813-.568 1.056 0 .082 0 .082-.081.082-.244l-.163-.08c.245-.246.569-.246.732-.246l.406-.244c-.161.08-.081.244-.081.407-.08 0-.162 0-.244.082.162.08.488.08.65.244.244 0 .325-.244.488 0 .08-.163.08-.244.08-.408-.08 0-.08-.08-.162-.08.326-.408 1.138-.408 1.545-.245.405-.245.243-.245.812-.488 0 .325.244.08.406.243.406-.162 1.463.163 1.219.245.406.325.65.813 1.218.813l1.057-.813s-1.057.08-1.218-.163c-.894-1.382-5.933-.813-5.933-.813 4.145-.896 8.045.731 9.101 1.3 0 0 1.138.732 1.625 1.22v.08l-.08.083.325.407c.08-.082.08-.163.08-.245l-.162-.162c.976.488 1.87 1.464 2.682 2.196 0 0 .081.894-.081.65-.244.245 0 .489.081.651.081.162.244.162.325.162.245-.162 0-.325 0-.406l.326.163V6.04c.244.326.405.326.405.651-.08-.082-.325-.082-.405.082-.407.407-.081.895-.245 1.14l.163.16c.161-.405.325-.73.406-1.22.244.164.405.815.812.733.813 1.139 1.3 2.522 1.706 3.905.326 1.139.244 1.952.651 3.091 0 .245-.163.651-.163.651-.244.488-.731.65-.893 1.139l-.406-.163c-1.788 1.302-3.658 2.441-5.445 3.823.407 0 .568.489.976.408 2.031-1.384 3.657-3.498 5.933-4.149-.325.976-1.219 1.465-2.031 2.116-1.296.974-2.191 1.624-3.246 2.274zm-6.014-3.008a185.996 185.996 0 0 0 7.801-6.182c.081-.326.244-.651 0-.977-3.088 1.953-5.932 4.149-8.857 6.427v.08c0 .083.081.083.081.083 0-.082.08-.163.162-.163.243.08.081.163 0 .325.163.325.569.162.813.407zm1.625.488c2.276-1.547 4.47-3.58 6.582-5.207.162-.407-.245-.488-.325-.814-2.682 1.953-5.282 3.66-7.8 5.776.325.814 1.056-.163 1.543.245zm.731 1.138l6.095-4.8c.245-.488.081-.65-.161-.894 0 0-4.713 3.498-6.502 4.8.407.162.243.65.568.894zm6.258-3.09l.568-.57c.162-.325-.082-.488-.325-.488a100.187 100.187 0 0 0-6.339 4.474l1.218.326 4.878-3.743zM130.179 1.891h-.08v.08l.08-.08zm0-.082v.082-.082zm-10.4 11.389c-.081.08-.245.162-.325.243v.326c.08.08.161.08.325 0v-.245-.324zm-.081-.896c.081 0 .161 0 .161-.08.081-.326.245-.652.325-.977-.08.082-.161.163-.244.163-.081.325-.161.65-.242.894zm.081 2.44l-.407.408v.162c0 .895.893-.57.893-.57s-.406.163-.486 0zm.405-4.067h.163c.568-1.627 1.381-2.929 1.381-2.929a10.277 10.277 0 0 0-1.544 2.929zM3.819 75.752h-.732c-.405 0-.73.243-.975.569-.162.324-.325.65-.407.975-.162.246-.243.407-.406.407-.162 0-.162-.08-.162-.243 0-.246.486-1.87.65-2.278.08-.162.162-.407.325-.407.245 0 .245.163.245.245.081.162.081.325.325.325h3.9c.326 0 .407-.162.488-.244.163-.162.163-.326.325-.326.163 0 .163.08.163.163 0 .162-.406 1.706-.568 2.357-.081.246-.163.407-.325.407-.163 0-.244-.08-.244-.324 0-.246.163-.734.163-1.058 0-.488-.163-.57-.894-.57h-.408l-2.03 6.752c0 .245-.083.407-.083.488 0 .162.163.326.407.326.245.081.325.081.325.244 0 .163-.082.162-.407.162H.894c-.082 0-.244 0-.244-.162s.162-.162.325-.244c.488-.08.569-.08.813-.734l2.031-6.83zm8.045 3.498c0 2.032-1.463 4.636-2.926 4.636-.406 0-.65-.163-.65-.65 0-.327.162-.489.407-.489.162 0 .243.081.243.325 0 .245 0 .326.082.326.487 0 1.463-3.336 1.463-4.393 0-.405-.163-.569-.326-.569-.325 0-.812.57-1.382 1.708-.487.895-.975 2.034-1.38 3.173-.163.406-.163.406-.732.406-.568 0-.65 0-.65-.081s0-.162.082-.325c.488-1.953 1.381-4.799 1.95-6.914.163-.407.244-.732.244-.813 0-.163-.081-.163-.244-.245-.162 0-.325 0-.325-.081-.081 0-.081-.081-.081-.081 0-.162.081-.244.244-.244.406-.082 1.056-.082 1.625-.488.081 0 .244-.163.407-.163.081 0 .081.08.081.163 0 .081 0 .162-.08.325-.163.569-.57 1.953-1.545 5.287v.081c.65-1.058 1.544-2.683 2.438-2.683.892 0 1.055.893 1.055 1.789zm3.982-1.384c.245 0 .326.164.326.407 0 .162 0 .489-.164.896-.325.65-.894 1.382-2.112 1.544.406-1.79 1.3-2.847 1.869-2.847h.081zm1.381.815c0-.732-.487-1.22-1.38-1.22-1.707 0-3.577 2.114-3.577 4.391 0 1.3.569 2.034 1.545 2.034 1.137 0 2.113-.977 2.519-1.707.243-.327.325-.57.325-.651 0-.082-.082-.164-.162-.164-.081 0-.163.246-.406.569-.488.65-1.057 1.139-1.626 1.139-.487 0-.73-.488-.73-1.14 0-.323.081-.65.162-.892h.243c1.95-.327 3.087-.978 3.087-2.36zm3.252 2.44c0-1.628.73-3.172 1.868-4.23 1.138-1.058 2.764-1.79 4.47-1.79.325 0 .65.08.813.162.162.08.162.08.162.161 0 .164 0 .246-.082.488-.161.488-.405 1.059-.487 1.466-.081.243-.163.324-.325.324-.163 0-.245-.08-.245-.324 0-.246.245-1.058.245-1.466 0-.243-.163-.324-.488-.324-.732 0-1.95.568-2.844 1.706-1.056 1.303-1.463 3.012-1.463 4.231 0 .651.163 1.137.407 1.464.243.326.65.488 1.056.488.325 0 .65-.162.65-.407.082-.244.163-.408.244-.651l.407-1.464c.082-.245.082-.407.082-.488 0-.245-.082-.326-.325-.326-.407-.081-.487-.081-.487-.244 0-.08.08-.161.244-.161.406 0 .893.08 1.38.08.57 0 1.057-.08 1.383-.08.163 0 .243.08.243.161 0 .162-.08.162-.325.244-.325.08-.487.08-.568.488l-.813 2.685c0 .162-.244.244-.65.405-.568.164-1.138.164-1.706.164-.813 0-1.544-.246-2.031-.734-.491-.402-.815-1.133-.815-2.029zm7.15 1.95c0-.243.162-.812.324-1.462.325-1.466.976-3.579 1.383-4.88.16-.572.243-.896.243-1.059 0-.246-.082-.326-.407-.407-.163 0-.325-.081-.325-.162 0-.161.162-.245.487-.245.65 0 1.137-.244 1.544-.406.244-.083.325-.163.406-.163.082 0 .082.08.082.163 0 .081-.082.325-.163.732-.813 2.847-1.543 5.042-1.869 6.18-.162.654-.244.978-.244 1.14 0 .08.08.162.163.162.243 0 .407-.162.812-.732.163-.405.325-.813.406-.813.163 0 .163.081.163.162 0 .164-.163.65-.488 1.139-.488.65-1.138 1.465-1.869 1.465-.404.001-.649-.324-.649-.813zm7.476-4.066c0 .734-.407 2.197-.731 2.929-.488.977-.894 1.546-1.383 1.546-.405 0-.65-.326-.65-1.058s.406-2.197.813-2.929c.406-1.058.893-1.627 1.3-1.627.407 0 .65.327.65 1.14zm1.3.896c0-1.547-.813-2.44-2.031-2.44-1.788 0-3.25 2.032-3.25 3.986 0 1.463.73 2.44 1.95 2.44.976 0 1.869-.57 2.439-1.385.567-.73.892-1.708.892-2.601zm5.038-.732c0 1.139-1.462 4.391-2.68 4.391-.408 0-.57-.243-.57-.569 0-1.139 1.87-4.556 2.763-4.556.325 0 .487.246.487.734zm1.544.08c0-.814-.243-1.789-1.218-1.789-1.138 0-2.113 1.625-2.601 2.278h-.082l1.381-4.313c.163-.65.325-.893.325-.975 0-.083-.082-.163-.244-.163 0 0-.082.08-.163.08-.407.246-.975.408-1.788.489-.325 0-.407.083-.487.245 0 .162.162.162.407.162.244.08.325.161.325.407 0 .162 0 .325-.163.651-.243 1.058-.975 3.01-1.38 4.473-.163.653-.245 1.222-.245 1.465 0 1.14.73 1.627 1.625 1.627 2.358 0 4.308-2.522 4.308-4.636zm4.795-.731c0 .405-.488 1.463-1.056 2.359-.65.975-1.381 1.787-1.706 1.787-.244 0-.406-.161-.406-.486 0-.488.406-1.465 1.056-2.604.568-.975 1.138-1.544 1.625-1.544.324 0 .487.163.487.488zm-4.632 4.146c0 .734.243 1.222.975 1.222 1.138 0 2.356-2.034 2.926-2.928v.08c-.163.57-.325 1.14-.488 1.625 0 .246-.082.489-.082.653 0 .325.163.57.488.57.569 0 1.219-.489 1.626-1.059.487-.569.812-1.22.812-1.465 0-.081 0-.162-.081-.162-.163 0-.163.162-.488.65-.325.57-.569.813-.731.813-.082 0-.082-.08-.082-.161 0-.162 0-.405.163-.975a57.222 57.222 0 0 0 1.136-3.498c.082-.164.082-.327.082-.408 0-.161-.082-.161-.244-.161h-.65c-.163 0-.325 0-.325.161-.081.081-.163.327-.245.327-.082 0-.325-.327-.893-.327-.814 0-1.788.651-2.52 1.628-.81.976-1.38 2.279-1.38 3.415zm6.745.408c0-.244.08-.813.243-1.463a183.879 183.879 0 0 1 1.463-4.88c.163-.572.245-.896.245-1.059 0-.246-.082-.326-.407-.407-.163 0-.325-.081-.325-.162 0-.161.162-.245.487-.245.65 0 1.138-.244 1.544-.406.244-.083.325-.163.407-.163.082 0 .082.08.082.163 0 .081-.082.325-.163.732-.813 2.847-1.544 5.042-1.869 6.18-.162.654-.243.978-.243 1.14 0 .08.08.162.163.162.243 0 .407-.162.812-.732.163-.405.324-.813.406-.813.082 0 .163.081.163.162 0 .164-.163.65-.487 1.139-.487.65-1.138 1.465-1.87 1.465-.488.001-.651-.324-.651-.813zm8.857-6.996c0-.243-.163-.324-.407-.324-.244-.08-.406-.08-.406-.246 0-.161.08-.243.325-.243.407 0 .894.08 1.463.08.569 0 1.056-.08 1.381-.08.163 0 .244.08.244.161 0 .246-.162.246-.488.327-.407 0-.569.161-.65.569-.488 1.463-1.138 3.903-1.706 5.776-.163.405-.244.812-.326 1.055 0 .084 0 .164.163.164h.568c1.138 0 1.626-.245 2.113-1.22.488-.814.488-.895.65-.895.081 0 .163.08.163.162 0 .245-.162.814-.487 1.79-.162.568-.162.568-.406.568h-5.039c-.162 0-.243 0-.243-.161 0-.081.162-.162.487-.244.243 0 .488-.163.568-.488.65-2.197 1.463-4.717 1.788-5.856.163-.649.245-.814.245-.895zm7.07 1.79c.242 0 .324.164.324.407 0 .162 0 .489-.162.896-.245.65-.894 1.382-2.113 1.544.405-1.79 1.3-2.847 1.868-2.847h.082zm1.38.815c0-.732-.487-1.22-1.38-1.22-1.707 0-3.576 2.114-3.576 4.391 0 1.3.569 2.034 1.544 2.034 1.138 0 2.113-.977 2.519-1.707.244-.327.325-.57.325-.651 0-.082-.082-.164-.163-.164-.082 0-.162.246-.407.569-.487.65-1.056 1.139-1.543 1.139-.569 0-.813-.488-.813-1.14 0-.323.08-.65.163-.892h.243c1.95-.327 3.088-.978 3.088-2.36zm4.47-.163c0 .405-.488 1.463-1.137 2.359-.57.975-1.3 1.787-1.707 1.787-.244 0-.325-.161-.325-.486 0-.488.406-1.465 1.056-2.604.568-.975 1.137-1.544 1.625-1.544.326 0 .488.163.488.488zm-4.632 4.146c0 .734.162 1.222.975 1.222 1.056 0 2.356-2.034 2.926-2.928v.08c-.163.57-.325 1.14-.488 1.625-.082.246-.082.489-.082.653 0 .325.082.57.488.57.57 0 1.22-.489 1.625-1.059.488-.569.813-1.22.813-1.465 0-.081 0-.162-.08-.162-.163 0-.163.162-.488.65-.325.57-.569.813-.731.813-.08 0-.163-.08-.163-.161 0-.162.082-.405.245-.975a58.727 58.727 0 0 0 1.138-3.498c.08-.164.08-.327.08-.408 0-.161-.08-.161-.244-.161h-.65c-.245 0-.325 0-.407.161 0 .081-.081.327-.163.327s-.325-.327-.893-.327c-.813 0-1.788.651-2.6 1.628-.732.976-1.301 2.279-1.301 3.415zm11.295-4.31c0 .408-.488 1.385-1.138 2.524-.73 1.22-1.38 1.87-1.706 1.87-.244 0-.407-.163-.407-.568 0-.732.407-1.79.975-2.686.569-.893 1.219-1.627 1.788-1.627.326 0 .488.164.488.408v.08zm-4.713 4.068c0 1.058.325 1.466.976 1.466 1.056 0 2.03-1.466 2.925-2.767-.162.489-.244.896-.325 1.22-.08.408-.162.651-.162.896 0 .486.162.65.57.65.65 0 1.38-.733 1.868-1.465.244-.405.488-.812.488-1.058 0-.08-.081-.162-.163-.162-.163 0-.244.327-.406.651-.407.651-.568.813-.732.813-.162 0-.162-.081-.162-.162 0-.162.082-.569.325-1.22.65-1.951 1.38-4.23 1.95-6.1.082-.407.163-.65.163-.731 0-.084 0-.164-.08-.164-.083 0-.244.163-.408.163-.407.244-.975.406-1.544.406-.326 0-.407.083-.488.245 0 .081.162.162.407.162.243.08.325.162.325.326 0 .162-.082.325-.082.487-.162.488-.325 1.058-.488 1.627-.325-.162-.568-.244-.893-.244-.975 0-1.95.65-2.763 1.544-.813.977-1.3 2.196-1.3 3.417zm10.157-4.556c.245 0 .407.164.407.407 0 .162-.08.489-.244.896-.243.65-.893 1.382-2.031 1.544.406-1.79 1.218-2.847 1.868-2.847zm1.383.815c0-.732-.488-1.22-1.383-1.22-1.625 0-3.574 2.114-3.574 4.391 0 1.3.568 2.034 1.544 2.034 1.137 0 2.113-.977 2.601-1.707.162-.327.243-.57.243-.651 0-.082 0-.164-.082-.164-.161 0-.161.246-.405.569-.569.65-1.138 1.139-1.626 1.139-.487 0-.73-.488-.73-1.14 0-.323 0-.65.08-.892h.244c1.95-.327 3.088-.978 3.088-2.36zm5.282-.408c0 .896-.488 1.547-.975 1.547-.163 0-.245-.081-.325-.246 0-.243.08-.324.08-.65 0-.163 0-.244-.162-.244-.163 0-.488.488-.894 1.382-.325.732-.975 2.278-1.3 3.254-.162.325-.162.406-.65.406-.65 0-.731 0-.731-.081s0-.162.08-.406c.326-1.138.733-2.604 1.058-3.824.08-.243.162-.65.162-.731 0-.162 0-.162-.162-.162-.163 0-.325.162-.569.65-.162.244-.243.406-.325.489 0 .162-.081.162-.162.162s-.163 0-.163-.081c0-.164.245-.734.569-1.22.407-.488.893-.977 1.463-.977.406 0 .65.243.65.65 0 .408-.163.978-.488 2.117v.08c.813-1.79 1.462-2.928 2.275-2.928.406 0 .569.325.569.813zm6.744-2.602c0 .405-.325.975-.893.975a.555.555 0 0 1-.569-.569c0-.569.406-1.136.813-1.136.325 0 .65.243.65.65v.08zm-.65 2.44c0 .161-.082.65-.243 1.058-.325.893-.65 1.708-.895 2.602-.162.327-.243.57-.243.732 0 .08.08.161.161.161.163 0 .407-.243.732-.893.245-.407.245-.569.406-.569.082 0 .163 0 .163.081 0 .164-.245.65-.488 1.139-.488.732-1.138 1.466-1.869 1.466-.407 0-.568-.327-.568-.734 0-.244.08-.732.243-1.22.245-.732.57-1.544.813-2.195.243-.569.325-.895.325-1.058 0-.081-.082-.162-.163-.162-.162 0-.325.162-.568.568-.487.571-.487.815-.65.815 0 0-.082-.081-.082-.162 0-.164.245-.653.569-1.139.487-.569 1.136-1.139 1.706-1.139.408-.001.651.241.651.649zm6.988.243c0 .246-.081.488-.243.896-.245.893-.651 1.79-.977 2.602-.161.488-.244.65-.244.732 0 .163.082.245.163.245.244 0 .487-.326.812-.731.406-.57.406-.815.569-.815.08 0 .161 0 .161.164 0 .162-.244.569-.568 1.056-.488.65-1.22 1.385-1.87 1.385-.488 0-.732-.327-.732-.734 0-.325.163-.975.488-1.625.325-.978.65-1.627.812-2.117.081-.326.162-.569.162-.731 0-.246-.162-.327-.243-.327-.407 0-.977.57-1.707 1.547-.568.893-1.218 2.44-1.624 3.497-.082.325-.163.325-.489.325h-.65c-.163 0-.244-.081-.244-.081 0-.08.081-.405.162-.651.406-1.058.813-2.359 1.22-3.579.08-.326.161-.569.161-.731 0-.081-.08-.162-.161-.162-.246 0-.489.244-.814.732-.244.324-.325.569-.488.569-.081 0-.162 0-.162-.081 0-.164.244-.653.568-1.058.488-.57 1.137-1.22 1.787-1.22.407 0 .65.243.65.65 0 .244-.08.57-.161.894-.08.488-.325.978-.407 1.303h.082c.486-.978 1.869-2.847 3.169-2.847.488 0 .812.324.812.813v.08h.006zm9.264 3.01c.65-2.278 1.138-3.741 1.299-4.554.163-.407.163-.653.163-.734 0-.243-.081-.324-.406-.405-.244 0-.326-.08-.326-.164 0-.161.082-.243.244-.243.325 0 .65.08.976.08.326 0 .569-.08.812-.08.082 0 .163.08.163.243 0 .164-.163.164-.325.164-.325.081-.488.244-.652.732a231.979 231.979 0 0 0-1.949 6.669c-.163.65-.244.734-.488.734-.243 0-.325-.246-.405-.57l-2.032-6.507c-.65 2.033-1.138 3.66-1.463 4.8-.244.812-.325 1.22-.325 1.3 0 .325.245.408.406.489.244.08.488.08.488.243 0 .163-.081.162-.245.162h-2.032c-.163 0-.163 0-.163-.162s.082-.162.163-.243c.325 0 .568-.081.65-.246.163-.325.325-.732.488-1.3.813-2.603 1.299-4.15 1.543-4.962.163-.407.163-.653.163-.734 0-.243-.081-.324-.407-.405-.161 0-.243-.08-.243-.164 0-.161.081-.243.243-.243.326 0 .651.08.895.08.325 0 .568-.08.731-.08.162 0 .244.162.325.488.491 1.87 1.14 3.741 1.709 5.612zm5.526-3.498c.244 0 .406.164.406.407 0 .162 0 .489-.162.896-.325.65-.976 1.382-2.114 1.544.407-1.79 1.301-2.847 1.87-2.847zm1.463.815c0-.732-.488-1.22-1.383-1.22-1.706 0-3.574 2.114-3.574 4.391 0 1.3.487 2.034 1.462 2.034 1.219 0 2.114-.977 2.601-1.707.162-.327.325-.57.325-.651 0-.082-.082-.164-.162-.164-.162 0-.162.246-.406.569-.488.65-1.057 1.139-1.626 1.139-.486 0-.73-.488-.73-1.14 0-.323 0-.65.08-.892h.245c1.949-.327 3.168-.978 3.168-2.36zm5.768-1.058c.245 0 .245.08.245.161s0 .246-.081.488c-.244.978-1.219 3.498-1.219 4.31 0 .246.081.408.326.408.975 0 2.275-2.683 2.275-3.417 0-.569-.325-.813-.325-1.382 0-.408.162-.732.487-.732.407 0 .568.405.568.975 0 1.385-1.951 5.451-3.9 5.451-.488 0-.732-.326-.732-.814 0-.408.163-.975.244-1.544v-.081c-.405.812-1.299 2.44-2.437 2.44-.568 0-.893-.408-.893-1.059 0-.977 1.382-3.66 1.382-4.148 0-.081-.082-.162-.163-.162-.162 0-.325.162-.65.568-.487.653-.487.734-.568.734-.081 0-.163 0-.163-.081 0-.327 1.219-2.278 2.276-2.278.488 0 .65.243.65.65 0 .976-1.381 3.661-1.381 4.392 0 .246.162.407.325.407.569 0 1.299-1.382 1.869-2.685.325-.893.65-1.79.813-2.195.08-.327.161-.407.325-.407h.727zm5.934 4.148c0 .57-.326 1.14-.732 1.466-.406.405-.975.65-1.625.65-.406 0-1.057-.163-1.382-.407-.08-.08-.162-.161-.162-.326 0-.162 0-.651.162-1.056.081-.488.162-.651.325-.651.164 0 .245.08.245.405.161.732.406 1.627 1.138 1.627.405 0 .65-.488.65-.895 0-.568-.325-1.056-.732-1.464-.325-.488-.731-.977-.731-1.627 0-1.139.975-2.032 2.113-2.032.568 0 1.463.162 1.463.569 0 .243-.081.488-.162.812-.162.489-.244.651-.407.651-.244 0-.325-.407-.405-.812-.082-.407-.245-.815-.651-.815-.487 0-.732.407-.732.815 0 .488.406.977.732 1.382.404.57.893 1.057.893 1.708zm7.475-5.207c.08-.324.162-.65.244-.731.082-.081.65-.081.894-.081 1.057 0 1.299.65 1.299 1.627 0 1.139-.406 2.845-1.056 4.068-.65 1.217-1.382 1.87-2.52 1.87-.406 0-.569-.08-.569-.407 0-.246.082-.812.163-1.058l1.545-5.288zm-3.25 6.1c-.163.489-.325.572-.731.653-.163 0-.325.081-.325.244 0 .163.161.162.325.162h3.25c1.463 0 2.681-.651 3.494-1.79.812-1.22 1.219-2.764 1.219-4.068 0-.732-.163-1.382-.652-1.87-.406-.489-1.056-.732-1.705-.732-.651 0-1.382.08-2.114.08-.487 0-.893-.08-1.299-.08-.245 0-.406.08-.406.243 0 .164.161.164.325.246.325 0 .406.08.406.405 0 .246-.081.653-.162.895l-1.625 5.612zm11.052-6.993c0 .405-.407.975-.894.975-.407 0-.651-.243-.651-.569 0-.569.407-1.136.895-1.136a.64.64 0 0 1 .65.65v.08zm-.65 2.44c0 .161-.163.65-.327 1.058-.244.893-.568 1.708-.893 2.602-.081.327-.161.57-.161.732 0 .08 0 .161.161.161.163 0 .325-.243.732-.893.244-.407.244-.569.406-.569.082 0 .082 0 .082.081 0 .164-.163.65-.488 1.139-.407.732-1.138 1.466-1.788 1.466-.407 0-.65-.327-.65-.734 0-.244.161-.732.325-1.22.243-.732.568-1.544.812-2.195.162-.569.244-.895.244-1.058 0-.081 0-.162-.081-.162-.162 0-.325.162-.65.568-.407.571-.407.815-.568.815-.081 0-.081-.081-.081-.162 0-.164.243-.653.568-1.139.488-.569 1.057-1.139 1.706-1.139.406-.001.651.241.651.649zm3.9 3.66c0 .57-.245 1.14-.651 1.466-.407.405-.976.65-1.625.65-.406 0-1.057-.163-1.382-.407-.081-.08-.244-.161-.244-.326 0-.162.081-.651.162-1.056.162-.488.244-.651.406-.651.162 0 .162.08.244.405.163.732.325 1.627 1.057 1.627.488 0 .731-.488.731-.895 0-.568-.325-1.056-.731-1.464-.407-.488-.732-.977-.732-1.627 0-1.139.977-2.032 2.114-2.032.569 0 1.463.162 1.463.569 0 .243-.082.488-.162.812-.163.489-.245.651-.406.651-.244 0-.325-.407-.407-.812-.081-.407-.244-.815-.65-.815-.488 0-.731.407-.731.815 0 .488.325.977.731 1.382.406.57.813 1.057.813 1.708zm.73 1.383c0-.244.163-.732.326-1.464.245-.65.732-2.278 1.137-3.578h-.811c-.081 0-.081 0-.081-.08.081-.082.081-.165.081-.247 0-.081.08-.08.161-.08h.812l.569-1.79c.081-.162.081-.244.245-.244h.974c.162 0 .162 0 .162.081 0 .08 0 .244-.081.488-.162.325-.326.893-.488 1.464h.976c.081 0 .162 0 .081.08v.246c-.081.08-.081.08-.161.08h-1.058c-.487 1.628-.812 2.603-1.057 3.254-.162.734-.325.977-.325 1.139 0 .162.081.246.245.246.08 0 .325-.164.65-.57.407-.65.407-.977.65-.977.082 0 .082.081.082.162 0 .164-.163.569-.488.977-.486.732-1.218 1.547-1.949 1.547-.407-.002-.652-.246-.652-.734zm8.696-4.88c0 .895-.487 1.546-.975 1.546-.163 0-.326-.081-.326-.246-.081-.243.082-.324.082-.65 0-.163-.082-.244-.163-.244-.161 0-.486.488-.893 1.382-.407.732-.976 2.278-1.3 3.254-.162.325-.162.406-.732.406-.65 0-.65 0-.65-.081s0-.162.081-.406a255.14 255.14 0 0 0 1.057-3.824c0-.243.161-.65.161-.731 0-.162-.08-.162-.161-.162-.163 0-.326.162-.65.65-.082.244-.163.406-.245.489-.08.162-.08.162-.162.162-.081 0-.162 0-.162-.081 0-.164.245-.734.569-1.22.406-.488.893-.977 1.463-.977.406 0 .568.243.568.65 0 .408-.162.978-.407 2.117v.08c.813-1.79 1.463-2.928 2.276-2.928.406 0 .569.325.569.813zm3.575-2.603c0 .405-.325.975-.813.975-.405 0-.65-.243-.65-.569 0-.569.406-1.136.894-1.136.325 0 .568.243.568.65v.08h.001zm-.568 2.44c0 .161-.163.65-.325 1.058-.245.893-.569 1.708-.894 2.602-.161.327-.161.57-.161.732 0 .08 0 .161.081.161.244 0 .405-.243.811-.893.245-.407.244-.569.407-.569.081 0 .081 0 .081.081 0 .164-.163.65-.488 1.139-.406.732-1.137 1.466-1.788 1.466-.406 0-.65-.327-.65-.734 0-.244.162-.732.325-1.22.244-.732.488-1.544.813-2.195.162-.569.244-.895.244-1.058 0-.081 0-.162-.162-.162-.081 0-.245.162-.569.568-.406.571-.406.815-.568.815-.082 0-.082-.081-.082-.162 0-.164.163-.653.568-1.139.487-.569 1.058-1.139 1.707-1.139.405-.001.65.241.65.649zm5.037 1.058c0 1.139-1.462 4.391-2.681 4.391-.406 0-.568-.243-.568-.569 0-1.139 1.869-4.556 2.762-4.556.325 0 .487.246.487.734zm1.545.08c0-.814-.245-1.789-1.219-1.789-1.137 0-2.114 1.625-2.682 2.278l1.382-4.313c.163-.65.245-.893.245-.975 0-.083 0-.163-.163-.163 0 0-.081.08-.162.08-.406.246-.976.408-1.787.489-.325 0-.488.083-.488.245 0 .163.163.162.406.162.244.08.325.161.325.407 0 .162-.081.325-.162.651-.244 1.058-.975 3.01-1.382 4.473-.161.653-.244 1.222-.244 1.465 0 1.14.732 1.627 1.625 1.627 2.356 0 4.306-2.522 4.306-4.636zm.65 3.823c0-.244.08-.57.243-1.056.326-.896.732-1.954 1.057-2.686.082-.326.162-.568.162-.65 0-.082 0-.162-.08-.162-.163 0-.488.244-.732.65-.407.49-.488.733-.65.733-.081 0-.081-.081-.081-.162 0-.327 1.218-2.278 2.519-2.278.325 0 .568.243.568.65 0 .162-.081.57-.244.976-.245.734-.65 1.708-.976 2.442-.162.488-.244.812-.244.975 0 .163.081.246.244.246.326 0 .894-.57 1.544-1.385a17.493 17.493 0 0 0 1.706-3.498c0-.161.081-.161.245-.243h.975c.161 0 .161.08.161.161s0 .246-.08.327c-.244.732-.976 2.602-1.3 3.66-.081.327-.162.651-.162.732 0 .162.081.162.162.162s.325-.162.732-.732c.406-.486.406-.65.569-.65.08 0 .162 0 .162.08 0 .326-1.3 2.524-2.6 2.524-.326 0-.569-.246-.569-.651 0-.408.245-1.14.487-1.954-.649 1.058-2.113 2.605-3.088 2.605-.487-.002-.73-.327-.73-.816zm6.907.082c0-.244.081-.732.244-1.464.245-.65.731-2.278 1.219-3.578h-.894c-.08 0-.08 0-.08-.08.08-.082.08-.165.08-.247.082-.08.082-.08.163-.08h.811l.652-1.79c0-.162.08-.244.161-.244h.974c.163 0 .163 0 .163.081 0 .08 0 .244-.081.488-.082.325-.325.893-.487 1.464h1.057c.08 0 .08 0 .08.08-.08.081-.08.164-.08.246 0 .082-.081.08-.163.08h-.975c-.569 1.628-.894 2.603-1.057 3.254-.245.734-.325.977-.325 1.139 0 .162.08.246.162.246.162 0 .325-.164.65-.57.407-.65.488-.977.651-.977.08 0 .08.081.08.162 0 .164-.161.569-.486.977-.488.732-1.219 1.547-1.869 1.547-.488-.002-.65-.246-.65-.734zm7.232-7.483c0 .405-.325.975-.894.975a.555.555 0 0 1-.568-.569c0-.569.406-1.136.893-1.136.325 0 .569.243.569.65v.08zm-.65 2.44c0 .161-.081.65-.244 1.058-.325.893-.65 1.708-.893 2.602-.163.327-.245.57-.245.732 0 .08.081.161.163.161.161 0 .406-.243.812-.893.244-.407.244-.569.325-.569.08 0 .162 0 .162.081 0 .164-.162.65-.487 1.139-.487.732-1.138 1.466-1.869 1.466-.406 0-.568-.327-.568-.734 0-.244.08-.732.244-1.22.325-.732.568-1.544.812-2.195.244-.569.325-.895.325-1.058 0-.081-.081-.162-.162-.162-.162 0-.325.162-.568.568-.407.571-.488.815-.57.815-.08 0-.161-.081-.161-.162 0-.164.244-.653.65-1.139.406-.569 1.057-1.139 1.706-1.139.324-.001.568.241.568.649zm4.551.894c0 .734-.488 2.197-.813 2.929-.406.977-.893 1.546-1.299 1.546-.488 0-.732-.326-.732-1.058s.488-2.197.813-2.929c.487-1.058.893-1.627 1.3-1.627.488 0 .731.327.731 1.14zm1.22.896c0-1.547-.732-2.44-2.033-2.44-1.788 0-3.25 2.032-3.25 3.986 0 1.463.731 2.44 2.031 2.44.976 0 1.789-.57 2.437-1.385.488-.73.815-1.708.815-2.601zm6.987-1.547c0 .246-.081.488-.245.896-.244.893-.65 1.79-.975 2.602-.163.488-.244.65-.244.732 0 .163.08.245.162.245.243 0 .487-.326.812-.731.407-.57.407-.815.568-.815.082 0 .163 0 .163.164 0 .162-.245.569-.569 1.056-.487.65-1.218 1.385-1.95 1.385-.406 0-.65-.327-.65-.734 0-.325.162-.975.487-1.625.325-.978.65-1.627.812-2.117.082-.326.162-.569.162-.731 0-.246-.162-.327-.325-.327-.325 0-.893.57-1.625 1.547-.569.893-1.219 2.44-1.625 3.497-.08.325-.162.325-.486.325h-.651c-.163 0-.245-.081-.245-.081 0-.08.081-.405.163-.651.406-1.058.813-2.359 1.218-3.579.081-.326.162-.569.162-.731 0-.081-.081-.162-.243-.162-.163 0-.406.244-.732.732-.245.324-.326.569-.488.569-.081 0-.162 0-.162-.081 0-.164.245-.653.569-1.058.487-.57 1.138-1.22 1.788-1.22.406 0 .65.243.65.65 0 .244-.081.57-.161.894-.082.488-.326.978-.406 1.303h.08c.487-.978 1.869-2.847 3.168-2.847.488 0 .813.324.813.813v.08h.005z" fill="#292930"/></svg>