<svg width="140" height="33" fill="none" xmlns="http://www.w3.org/2000/svg"><path fill-rule="evenodd" clip-rule="evenodd" d="M16.233 22.753c-3.298 0-6.035-2.737-6.035-6.034 0-3.297 2.675-6.035 6.035-6.035 3.297 0 6.034 2.675 6.034 6.035 0 3.297-2.737 6.034-6.034 6.034zm0-8.71a2.655 2.655 0 0 0-2.676 2.676 2.655 2.655 0 0 0 2.676 2.675 2.655 2.655 0 0 0 2.675-2.675 2.655 2.655 0 0 0-2.675-2.675z" fill="#61B2AA"/><path fill-rule="evenodd" clip-rule="evenodd" d="M.244 16.408c0 12.629 3.049 15.677 15.677 15.677 12.63 0 15.678-3.048 15.678-15.677C31.599 3.778 28.55.73 15.92.73 3.293.73.245 3.78.245 16.408zm3.36 0c0-10.7 1.617-12.318 12.318-12.318 10.7 0 12.317 1.617 12.317 12.318 0 10.7-1.617 12.318-12.318 12.318-10.7 0-12.317-1.618-12.317-12.318zM41.926 23.5V5.957H44.6v6.096a4.372 4.372 0 0 1 1.929-1.12c.746-.248 1.493-.31 2.24-.31.995 0 1.866.186 2.674.497.81.311 1.431.81 1.991 1.431.56.622.995 1.307 1.244 2.115.311.81.436 1.68.436 2.551 0 .933-.125 1.804-.436 2.613-.31.809-.684 1.493-1.244 2.115-.56.622-1.244 1.058-1.99 1.431a7.314 7.314 0 0 1-2.676.498 7.138 7.138 0 0 1-2.302-.374c-.746-.248-1.368-.622-1.99-1.182V23.5h-2.551zm10.514-6.22c0-.623-.063-1.183-.25-1.68a4.476 4.476 0 0 0-.746-1.307 3.249 3.249 0 0 0-1.182-.87c-.497-.25-.995-.312-1.68-.312a4.75 4.75 0 0 0-1.68.311 3.006 3.006 0 0 0-1.243.871c-.311.373-.623.809-.81 1.307-.186.497-.248 1.057-.248 1.617s.062 1.12.249 1.68c.186.498.435.933.809 1.306.373.373.746.684 1.244.871a4.75 4.75 0 0 0 1.68.311 4.75 4.75 0 0 0 1.68-.31c.497-.25.87-.498 1.181-.872.311-.373.56-.808.747-1.306.186-.498.249-1.058.249-1.618z" fill="#61B2AA"/><path d="M67.744 22.38c-.56.498-1.12.81-1.804 1.058-.685.249-1.369.311-2.116.311a6.509 6.509 0 0 1-2.24-.373c-.684-.249-1.243-.622-1.741-1.058-.498-.497-.809-.995-1.12-1.68a6.153 6.153 0 0 1-.373-2.177v-7.527h2.675v7.465c0 1.929.995 2.924 2.986 2.924.622 0 1.182-.124 1.618-.311.435-.187.808-.498 1.12-.871.31-.373.497-.809.684-1.306.124-.498.249-1.058.249-1.618v-6.283h2.675v12.629h-2.613V22.38zm17.73-9.58l-7.714 8.274h7.9V23.5H73.779v-1.928l7.715-8.274h-7.528V10.87h11.51V12.8zm14.433 0l-7.714 8.274h7.901V23.5H88.211v-1.928l7.715-8.274h-7.528V10.87h11.51V12.8zm21.152.56h-4.23v10.203h-2.8V13.36h-3.981v-2.426h3.981c0-1.12.125-1.991.373-2.613.249-.685.623-1.182 1.12-1.556.498-.373 1.12-.56 1.867-.684.746-.124 1.617-.186 2.613-.186h1.182v2.488h-1.742c-.622 0-1.058 0-1.431.062a2.445 2.445 0 0 0-.809.311c-.187.187-.249.436-.311.747-.062.31-.062.809-.062 1.368h4.23v2.489zm3.982-3.484a2.05 2.05 0 0 1-1.369-.498 1.83 1.83 0 0 1-.56-1.368c0-.56.187-.996.56-1.307a1.93 1.93 0 0 1 1.369-.56c.56 0 .995.187 1.368.56.374.374.56.809.56 1.307 0 .56-.186.995-.56 1.368-.373.374-.871.498-1.368.498zm-1.369 1.058h2.675v12.629h-2.675v-12.63zm15.802 2.426h-3.982v5.972c0 .25 0 .436.062.685.063.373.125.622.187.684.125.124.311.186.684.249.498.062.996.062 1.556.062h1.493V23.5h-1.556c-.933 0-1.741-.062-2.364-.186a3.856 3.856 0 0 1-1.617-.684c-.436-.312-.747-.81-.933-1.431-.187-.623-.249-1.431-.249-2.365v-5.536h-3.733V10.87h3.733V6.828h2.737v4.168h3.982v2.364z" fill="#61B2AA"/></svg>