<svg width="159" height="30" fill="none" xmlns="http://www.w3.org/2000/svg"><path d="M38.044 12.537c2.55 0 3.32 2.36 3.32 3.655H34.49c0-1.835 1.26-3.655 3.554-3.655zm7.323 10.912c-.725.25-1.48.475-2.237.63-.887.183-1.805.283-2.739.283-3.016 0-5.377-1.016-5.764-3.436h12.868c.095-.465.264-1.59.264-2.773 0-5.5-2.703-10.55-9.598-10.55-6.7 0-10.265 5.319-10.265 11.278 0 6.87 4.744 10.8 11.366 10.8 1.687 0 2.92-.154 3.937-.363 1.057-.219 2.22-.57 3.205-1.017l-1.037-4.852zm92.57-10.912c2.55 0 3.321 2.36 3.321 3.655h-6.874c0-1.835 1.26-3.655 3.553-3.655zm7.323 10.912c-.725.25-1.481.475-2.237.63-.888.183-1.805.283-2.739.283-3.015 0-5.376-1.016-5.762-3.436h12.866c.096-.465.264-1.59.264-2.773 0-5.5-2.703-10.55-9.597-10.55-6.7 0-10.265 5.319-10.265 11.278 0 6.87 4.743 10.8 11.366 10.8 1.686 0 2.919-.154 3.938-.363 1.055-.219 2.22-.57 3.204-1.017l-1.038-4.852zM50.911.6v28.629h6.977V.6h-6.977zM71.902 24.44c-2.267 0-3.756-2.268-3.756-5.777 0-2.795.998-5.779 3.78-5.779 2.684 0 3.637 3.093 3.637 5.748 0 3.526-1.448 5.808-3.661 5.808zm-.094 5.24c5.445 0 10.956-3.471 10.956-11.224 0-4.616-2.701-10.817-10.614-10.817-8.145 0-11.117 6.008-11.117 11.169 0 6.475 4.441 10.873 10.775 10.873zm13.99-21.578v21.125h6.978V8.102h-6.978zm0-7.494v5.485h6.978V.608h-6.978zM98.3 2.354v5.745H95.62v5.235H98.3v8.655c0 4.76 2.15 7.672 7.056 7.672.92 0 1.959-.095 2.916-.24.886-.135 1.671-.298 2.015-.411.006-.006-.051-5.519-.051-5.539-.224.079-1.806.348-2.385.348-.561 0-1.395-.072-1.99-.69-.426-.44-.73-1.157-.73-2.322v-7.473h4.51V8.1h-4.51V1.574l-6.83.78zm16.144 0v5.745h-2.681v5.235h2.681v8.655c0 4.76 2.149 7.672 7.056 7.672.92 0 1.958-.095 2.914-.24.887-.135 1.673-.298 2.017-.411.005-.006-.052-5.519-.052-5.539-.224.079-1.805.348-2.385.348-.561 0-1.394-.072-1.99-.69-.425-.44-.728-1.157-.728-2.322v-7.473h4.508V8.1h-4.508V1.574l-6.832.78zm36.212 23.425c0-2.158 1.729-3.907 3.86-3.907s3.86 1.749 3.86 3.907c0 2.16-1.729 3.908-3.86 3.908s-3.86-1.749-3.86-3.908zM.896 29.259h7.897c.534 0 1.18-.013 1.687-.04 10.807-.565 15.304-7.04 15.304-14.518 0-9.34-6.222-14.572-16.96-14.572-2.756 0-5.206.095-7.928.327V29.26zm10.094-5.704c-.29.024-.726.035-1.005.035H7.773c.003-.002 0-17.594 0-17.594.765-.069 1.737-.115 2.387-.115 4.056 0 8.378 2.665 8.378 8.82 0 6.421-4.062 8.563-7.548 8.854z" fill="#292930"/></svg>