<svg width="200" height="84" viewBox="0 0 200 84" fill="none" xmlns="http://www.w3.org/2000/svg">
<path fill-rule="evenodd" clip-rule="evenodd" d="M8.93891 51.9175C10.5644 51.9175 11.4589 52.4057 11.4589 53.7882C11.4589 55.0101 10.8905 55.9045 8.93891 55.9045H7.80109V51.9175H8.93891ZM0 68.43H11.7829C16.9833 68.43 19.8273 66.0713 19.8273 62.4108C19.8273 60.2136 18.528 57.9357 15.2771 57.5305V57.4497C18.4462 56.7159 19.2589 54.926 19.2589 52.8938C19.2589 49.396 17.0651 47.4446 12.5138 47.4446H0V68.43ZM7.80109 59.8904H8.93782C10.8884 59.8904 11.8636 60.4593 11.8636 61.761C11.8636 63.3073 11.0509 63.9582 9.01964 63.9582H7.80109V59.8904Z" fill="#292930"/>
<path fill-rule="evenodd" clip-rule="evenodd" d="M37.2173 68.43H30.3915L30.229 66.235H30.1471C28.9286 68.3492 27.2213 68.9181 25.5151 68.9181C22.5904 68.9181 20.4773 67.4548 20.4773 63.5497V53.8711H27.5464V62.9C27.5464 63.9582 27.9522 64.6079 28.765 64.6079C29.5777 64.6079 30.2279 64.1198 30.2279 62.9808V53.8711H37.2162V68.43H37.2173Z" fill="#292930"/>
<path fill-rule="evenodd" clip-rule="evenodd" d="M47.1315 58.3439C47.1315 57.6123 47.0508 57.205 46.8064 56.9614C46.5621 56.7998 46.237 56.6349 45.7505 56.6349C44.6126 56.6349 44.2057 57.1231 44.2057 57.7739C44.2057 58.4248 44.5308 58.6694 46.3995 58.9937C52.0875 59.7275 53.5504 60.8643 53.5504 63.7112C53.5504 66.8847 51.4374 68.918 45.5868 68.918C40.8741 68.918 37.9483 67.5355 37.8675 63.6304H44.2057C44.2057 64.4451 44.3683 64.931 44.6126 65.1767C44.9366 65.5011 45.3435 65.6649 45.8312 65.6649C46.8872 65.6649 47.2134 65.0959 47.2134 64.3621C47.2134 63.957 47.0508 63.4688 46.1563 63.3061C45.7504 63.2253 45.181 63.1423 43.0679 62.7372C39.4919 62.0033 38.1108 60.9473 38.1108 58.262C38.1108 55.6597 40.2239 53.3818 45.4243 53.3818C49.8937 53.3818 53.0628 54.5208 53.1435 58.3428H47.1315V58.3439Z" fill="#292930"/>
<path fill-rule="evenodd" clip-rule="evenodd" d="M54.2007 53.8711H61.2709V68.43H54.2007V53.8711Z" fill="#292930"/>
<path fill-rule="evenodd" clip-rule="evenodd" d="M62.734 53.8711H69.6416L69.8042 56.0661H69.886C71.0227 53.9519 72.8107 53.383 74.4362 53.383C77.4427 53.383 79.5558 54.8463 79.5558 58.7514V68.43H72.4867V59.4011C72.4867 58.3429 72.0809 57.6932 71.1874 57.6932C70.4565 57.6932 69.8053 58.1813 69.8053 59.3203V68.43H62.7362V53.8711H62.734Z" fill="#292930"/>
<path fill-rule="evenodd" clip-rule="evenodd" d="M86.9487 59.3203V59.1565C86.9487 57.774 87.6807 57.0423 88.8185 57.0423C89.8745 57.0423 90.6065 57.774 90.6065 59.1565V59.3203H86.9487ZM90.6054 63.7932C90.4428 64.8514 89.7119 65.2587 88.8992 65.2587C87.5181 65.2587 86.9487 64.5271 86.9487 62.9V62.4118H96.9447V61.4345C96.9447 56.2299 94.345 53.383 88.8185 53.383C83.5363 53.383 80.1228 56.0661 80.1228 61.0293C80.1228 66.9678 84.0239 68.9192 88.249 68.9192C93.7745 68.9192 96.2945 67.1294 96.781 63.7943H90.6054V63.7932Z" fill="#292930"/>
<path fill-rule="evenodd" clip-rule="evenodd" d="M106.615 58.3439C106.615 57.6123 106.452 57.205 106.289 56.9614C106.045 56.7998 105.639 56.6349 105.232 56.6349C104.014 56.6349 103.689 57.1231 103.689 57.7739C103.689 58.4248 104.014 58.6694 105.883 58.9937C111.491 59.7275 113.035 60.8643 113.035 63.7112C113.035 66.8847 110.84 68.918 105.071 68.918C100.275 68.918 97.3506 67.5355 97.3506 63.6304H103.689C103.689 64.4451 103.851 64.931 104.095 65.1767C104.42 65.5011 104.745 65.6649 105.232 65.6649C106.37 65.6649 106.695 65.0959 106.695 64.3621C106.695 63.957 106.533 63.4688 105.639 63.3061C105.152 63.2253 104.582 63.1423 102.47 62.7372C98.8953 62.0033 97.5131 60.9473 97.5131 58.262C97.5131 55.6597 99.6262 53.3818 104.827 53.3818C109.377 53.3818 112.465 54.5208 112.627 58.3428H106.615V58.3439Z" fill="#292930"/>
<path fill-rule="evenodd" clip-rule="evenodd" d="M122.054 58.3439C122.054 57.6123 121.972 57.205 121.728 56.9614C121.485 56.7998 121.16 56.6349 120.672 56.6349C119.534 56.6349 119.127 57.1231 119.127 57.7739C119.127 58.4248 119.453 58.6694 121.322 58.9937C127.01 59.7275 128.473 60.8643 128.473 63.7112C128.473 66.8847 126.279 68.918 120.509 68.918C115.797 68.918 112.871 67.5355 112.79 63.6304H119.128C119.128 64.4451 119.291 64.931 119.535 65.1767C119.86 65.5011 120.266 65.6649 120.754 65.6649C121.811 65.6649 122.136 65.0959 122.136 64.3621C122.136 63.957 121.973 63.4688 121.079 63.3061C120.673 63.2253 120.104 63.1423 117.992 62.7372C114.416 62.0033 113.035 60.9473 113.035 58.262C113.035 55.6597 115.148 53.3818 120.348 53.3818C124.817 53.3818 127.987 54.5208 128.067 58.3428H122.054V58.3439Z" fill="#292930"/>
<path fill-rule="evenodd" clip-rule="evenodd" d="M131.398 47.4446H138.875L140.663 60.622L142.614 47.4446H151.226L153.177 60.622H153.259L155.046 47.4446H162.523L157.971 68.43H148.951L147 54.8463H146.919L144.97 68.43H135.949L131.398 47.4446Z" fill="#292930"/>
<path fill-rule="evenodd" clip-rule="evenodd" d="M162.523 53.8711H169.51V68.43H162.523V53.8711Z" fill="#292930"/>
<path fill-rule="evenodd" clip-rule="evenodd" d="M171.055 53.8711H177.88L178.042 55.4152C179.099 54.1146 180.073 53.7073 180.969 53.7073C181.537 53.7073 182.106 53.7073 182.836 54.1146V59.4022C182.025 59.1565 181.131 58.9949 179.911 58.9949C178.53 58.9949 178.042 59.8903 178.042 60.7847V68.4311H171.055V53.8711Z" fill="#292930"/>
<path fill-rule="evenodd" clip-rule="evenodd" d="M189.338 59.3203V59.1565C189.338 57.774 190.069 57.0423 191.207 57.0423C192.264 57.0423 192.995 57.774 192.995 59.1565V59.3203H189.338ZM192.994 63.7932C192.831 64.8514 192.101 65.2587 191.288 65.2587C189.906 65.2587 189.338 64.5271 189.338 62.9V62.4118H199.333V61.4345C199.333 56.2299 196.733 53.383 191.207 53.383C185.925 53.383 182.593 56.0661 182.593 61.0293C182.593 66.9678 186.413 68.9192 190.638 68.9192C196.163 68.9192 198.682 67.1294 199.17 63.7943H192.994V63.7932Z" fill="#292930"/>
<path fill-rule="evenodd" clip-rule="evenodd" d="M147.082 26.2953C146.757 26.6207 143.588 29.2241 141.475 30.2801C141.23 30.4428 141.312 30.2801 141.475 30.1184C143.263 28.4105 145.05 27.1088 147.082 26.0506C147.082 26.0506 147.407 26.0506 147.082 26.2953ZM117.342 14.9065C83.3739 16.4517 47.051 30.1992 24.1354 48.6654C50.8703 30.4439 81.2619 19.137 113.44 17.4291C114.74 16.2082 116.122 15.4755 117.342 14.9065ZM181.78 51.3485C181.78 38.7411 171.622 27.1088 151.796 21.2512C152.04 20.1941 151.957 19.2178 151.715 18.4043C172.273 24.0173 182.918 36.2185 181.78 51.3485ZM133.512 13.5229C133.837 13.9303 134.487 14.1738 134.975 14.1738H134.893C134.975 14.3365 135.218 14.2557 135.218 14.4992C134.975 14.6619 134.568 14.4992 134.325 14.6619C134.487 14.2546 134.08 14.1738 133.838 14.0111C133.432 13.8484 133.026 13.9292 132.7 14.1738C132.456 13.9292 132.7 13.6048 132.945 13.6048C133.189 13.6048 133.512 13.5229 133.512 13.5229ZM136.599 14.663L136.844 14.9065C136.519 14.9065 136.194 15.232 135.867 15.232C135.867 15.3947 135.867 14.9065 135.542 14.9873H135.381L135.706 14.663H135.625C135.949 14.4992 136.355 14.5811 136.599 14.663ZM119.454 16.9399C119.779 16.6145 121.485 15.3947 121.485 15.3947C121.485 15.3947 119.615 16.9399 119.454 17.1026C119.291 17.2653 119.127 17.2653 119.454 16.9399ZM119.779 18.567C119.372 18.8105 119.291 18.567 119.779 18.3235C120.672 17.5918 121.322 17.3461 122.379 16.6156C122.379 16.6145 120.429 18.1608 119.779 18.567ZM120.265 19.9506C119.779 20.1941 119.615 20.0314 120.184 19.6252C121.403 18.8105 122.216 18.4862 123.598 17.5918C123.598 17.5907 121.079 19.4614 120.265 19.9506ZM121.322 22.8783C121.078 23.1218 120.51 23.0399 121.322 22.471C122.054 22.0637 123.842 20.6812 125.954 19.1359C124.248 20.6812 121.892 22.4721 121.322 22.8783ZM120.591 21.4958C120.347 21.7393 119.94 21.6585 120.51 21.2512C121.078 20.9258 123.435 19.1359 124.898 18.0789C123.435 19.2178 121.079 21.1704 120.591 21.4958ZM121.972 24.0981C121.486 24.3427 121.567 24.0981 121.972 23.8535C122.785 23.1218 123.191 22.9591 123.76 22.471L127.987 19.3795C125.872 20.9258 124.167 22.6348 121.972 24.0981ZM122.785 25.319C122.298 25.5625 122.217 25.4009 122.704 24.9117C123.355 24.4235 123.842 24.18 124.492 23.6919L130.261 19.4614C127.742 21.4139 125.305 23.2037 122.785 25.319ZM149.358 22.7964C146.108 26.0496 142.45 28.7348 138.711 31.0936C136.762 31.988 137.493 31.3371 137.655 31.1744C142.286 27.3512 147.488 23.5281 149.194 22.6337C149.439 22.5529 149.439 22.6348 149.358 22.7964ZM127.662 14.3376C127.662 14.4184 127.662 14.4184 127.662 14.3376V14.3376ZM137.818 7.50479C137.818 7.42289 137.818 7.42289 137.818 7.50479V7.50479ZM129.854 12.7105C129.854 12.7105 129.854 12.7105 129.935 12.6297L129.854 12.7105ZM123.76 25.8879C124.573 25.3998 127.742 23.041 129.855 21.4958C127.824 23.1229 124.248 25.9698 123.599 26.458C123.273 26.7015 123.03 26.3761 123.76 25.8879ZM145.62 20.6812C145.295 21.0885 145.213 21.5766 145.052 21.9829C147.083 20.4376 149.764 18.567 150.415 18.1608C150.902 17.8353 150.822 18.1608 150.822 18.1608C148.952 20.4376 144.564 23.3664 144.158 23.6919C143.833 24.0173 143.671 24.2608 143.833 24.5862C146.027 22.7964 149.277 20.6812 150.253 20.1122C150.496 20.0303 150.74 20.1122 150.009 20.7631C149.115 21.7393 141.883 27.1896 137.819 30.2801L137.088 30.8501C135.543 31.5817 136.031 31.5009 134.975 31.8264C134.812 31.5828 135.3 31.2574 135.462 31.0128C135.3 30.4439 134.731 30.6874 134.079 31.0947C132.78 31.8264 133.023 31.0128 133.593 30.5247C134.161 29.8738 135.056 29.7111 135.462 28.8167C135.462 28.8167 135.867 28.2478 135.3 28.6551C134.568 29.0614 133.431 30.2003 131.642 31.0958C131.236 31.3393 130.749 31.1766 131.562 30.363C133.35 29.1433 133.105 29.2252 133.999 28.5732C134.975 27.8416 136.437 27.4342 136.03 25.9709C133.917 27.5161 132.211 28.7359 130.26 30.363C129.61 30.8512 129.204 30.6885 129.854 30.1195C130.911 29.1433 131.56 28.8178 132.78 27.8427L136.194 25.402C136.274 25.2393 136.438 24.9947 136.274 24.7511C136.194 24.5065 135.867 24.4257 135.624 24.3449C133.43 26.0528 131.154 27.9235 129.042 29.7133C128.066 30.5269 127.66 29.876 128.797 29.0624C131.073 27.4353 133.186 25.8901 135.38 24.3449C135.217 24.0195 134.649 23.8568 134.567 23.3686C132.211 25.2393 129.772 27.0291 127.498 29.0624C126.604 29.7941 126.523 29.0624 127.092 28.5743C127.498 28.2489 131.967 25.2393 134.486 23.2867C134.161 22.8805 134.242 22.3924 133.836 22.1478C131.316 24.0184 128.635 25.9709 126.278 28.1681C124.735 29.2252 125.303 28.1681 126.034 27.6799C126.359 27.3545 130.991 24.2641 133.835 22.0669C133.51 21.7415 133.267 21.4172 133.429 21.0099C133.51 21.0099 133.591 20.928 133.672 20.8471C133.672 20.7652 133.592 20.6844 133.511 20.6844H133.267C130.341 22.9624 125.871 26.5421 124.978 27.1918C124.083 27.8427 123.84 27.5172 124.815 26.7845C127.578 25.0766 130.666 22.5551 133.429 20.5206C133.022 19.7071 134.322 18.2438 134.322 18.2438V18.163C134.322 18.163 134.16 17.7556 134.077 17.5121C134.403 17.9183 134.647 17.594 134.89 17.3494C135.052 16.9432 135.622 16.9432 135.947 16.6177C136.191 17.024 136.353 16.6177 136.515 16.8624C136.76 17.4313 137.409 17.024 137.898 17.1059C137.978 16.8624 138.303 17.1059 138.384 16.9432C141.472 14.5844 144.56 12.2256 147.566 9.70413C147.486 9.37871 147.323 9.13409 147.16 8.89057C146.755 8.80976 146.673 9.45952 146.185 9.37871C144.235 10.842 142.203 12.3064 140.171 13.7708C142.447 12.0629 144.884 10.1104 147.159 8.32054C147.079 8.15892 147.079 7.99511 146.997 7.9143C146.591 7.99511 146.347 7.18265 146.022 7.75159C143.746 9.37871 141.471 11.0866 139.115 12.7957L146.184 7.26455C146.103 6.85722 145.696 6.77641 145.616 6.37018C143.584 7.75268 141.634 9.13519 139.683 10.5996C141.796 9.05438 143.828 7.34645 145.859 5.80014C145.615 5.2312 144.966 5.63743 144.966 4.98659L140.089 8.56515L144.559 4.98659C144.559 4.82387 144.314 4.49845 144.071 4.41764C143.91 4.58035 144.153 4.66225 144.071 4.74306H144.153V4.98768C143.665 4.01141 143.015 4.74306 142.447 4.98768L140.903 6.20747C141.796 5.47581 142.609 4.82387 143.504 4.09222L142.854 3.52327C143.179 3.44137 143.665 4.17303 144.071 3.60408C143.828 3.19785 143.503 3.03514 143.015 2.95324C141.796 3.76679 140.739 4.66116 139.521 5.47472C140.334 4.82387 141.716 3.68489 142.69 2.87133C142.365 2.547 142.122 2.22158 141.715 2.13968C141.47 2.38429 140.902 2.4651 141.063 2.87133V3.19785C140.252 2.79052 139.764 3.60408 139.195 3.92951L139.275 4.33683C139.114 4.33683 138.625 4.33683 138.625 4.33683C138.219 3.68598 137.082 3.60518 137.243 2.70972C136.756 2.87133 136.675 1.97806 136.106 1.97806C136.024 1.73454 135.944 1.97806 135.78 1.97806C135.374 1.73454 134.887 1.65264 134.724 2.22267C134.968 2.87243 135.78 2.5481 135.943 3.11704C136.187 3.27975 136.43 3.27975 136.593 3.52437C136.431 3.84979 136.268 3.36165 135.943 3.44246C135.861 3.76789 136.511 3.76789 136.511 4.17412C136.348 4.49954 136.023 4.49954 135.943 4.74416C136.023 4.90687 136.105 4.90687 136.268 4.90687L136.512 4.58144C136.756 4.82497 136.999 5.3131 137.406 5.3131L137.325 5.39391C137.811 5.71933 138.543 5.96286 138.462 6.6956C138.543 6.77751 138.624 6.85831 138.788 6.77751L139.356 7.34645L139.113 7.50916C138.95 7.02103 138.381 7.18374 138.056 7.18374C137.975 6.93913 138.136 6.77641 138.056 6.6137C137.894 6.85832 137.65 6.6137 137.406 6.77641L137.567 6.93913L137.406 7.10184C137.161 6.85722 136.755 6.37018 136.512 6.77641C136.674 6.85722 136.918 6.85722 137.08 7.10184C137.08 7.26455 137.08 7.42726 137.161 7.50916C137.486 7.34645 137.406 7.75268 137.567 7.75268L137.811 7.50916C137.811 7.58997 137.811 7.67187 137.893 7.67187C137.649 7.67187 137.08 8.64814 136.674 7.9973C136.43 8.07811 136.105 8.24191 135.943 8.48543C136.023 8.56624 135.943 8.72895 136.023 8.81085C135.779 8.89166 135.373 8.81085 135.292 9.21709V9.3798C135.211 9.62332 134.48 9.78603 134.886 10.1115C135.048 10.6804 134.399 10.6804 134.155 11.0058C133.667 11.0877 133.586 11.7386 133.667 12.0629C133.506 12.4702 133.911 12.7957 133.83 13.1211C133.342 13.0392 133.342 12.4702 133.098 12.0629C133.342 11.6567 132.529 11.9821 132.447 11.5748C131.635 11.3312 131.39 12.3883 130.659 11.6567C130.334 11.9013 129.684 11.9821 129.684 12.551L129.846 12.7138C129.277 13.0392 129.358 13.69 129.44 14.1782C129.684 14.1782 129.765 14.5855 129.765 14.5855C130.09 15.0736 130.578 14.5855 130.903 14.6674C131.146 14.5047 131.064 13.8527 131.553 14.0165L131.959 14.0984C132.04 14.5866 131.553 14.912 131.553 15.5628C131.878 15.7256 132.528 15.4001 132.852 15.8883C132.934 16.2945 132.366 17.19 133.096 17.3516C133.259 17.9205 133.584 17.4335 133.909 17.4335C133.747 17.6781 133.584 18.0024 133.584 18.0843C133.34 17.8408 132.934 17.7589 132.609 17.6781L132.69 17.5973C132.121 16.9464 131.632 16.2137 130.658 15.9702C130.333 15.7266 130.09 15.1566 129.601 15.4012C129.357 15.482 129.115 15.3193 128.87 15.2385C128.626 15.1577 128.138 14.5069 127.652 14.3441C127.652 14.2622 127.57 14.0995 127.489 14.0187C127.814 13.2052 127.002 12.4724 126.921 11.7418L126.676 11.4972C126.758 12.0662 126.433 12.6362 126.921 13.1244C126.759 13.2063 126.596 12.6362 126.352 12.4735C126.597 12.0662 125.865 11.8227 126.272 11.4972C126.109 11.0091 125.947 10.1955 126.027 10.0328C126.108 9.87012 125.947 9.78822 125.865 9.62551V9.5436C125.784 9.13628 125.622 8.73005 125.784 8.32381C126.028 7.42944 127.166 6.6967 126.922 5.63962C127.247 5.3961 127.247 4.98986 127.49 4.66444C127.084 4.17521 128.303 3.36275 127.328 3.03732C126.841 3.44465 126.191 3.36275 125.623 3.52546L125.541 3.44356C125.866 3.36275 126.192 3.11813 126.192 3.11813C126.354 3.28084 126.436 3.20003 126.598 3.20003C127.086 2.95542 126.842 2.14186 127.329 2.38648V2.29802C127.573 2.13531 128.386 2.37992 128.386 1.80989C128.305 1.64717 128.142 1.72908 128.061 1.72908C128.548 1.32175 129.279 1.16013 130.092 0.915519C129.767 1.07823 129.36 1.16013 129.199 1.40365C129.443 1.72908 130.174 1.32175 130.092 1.89179C130.092 1.9726 130.011 1.9726 130.092 2.0545C130.498 2.21721 130.905 2.37992 131.23 2.62345C131.311 2.54264 131.636 2.46073 131.474 2.29802L131.23 2.0545C131.636 2.0545 132.043 1.48556 132.286 2.0545C132.368 2.0545 132.368 1.9726 132.368 1.80989L132.205 1.72908C132.45 1.48446 132.774 1.48446 132.937 1.48446L133.343 1.23985C133.182 1.32066 133.262 1.48446 133.262 1.64718C133.182 1.64718 133.1 1.64718 133.018 1.72908C133.18 1.80989 133.506 1.80989 133.668 1.9726C133.912 1.9726 133.993 1.72908 134.156 1.9726C134.236 1.80989 134.236 1.72908 134.236 1.56527C134.156 1.56527 134.156 1.48446 134.074 1.48446C134.4 1.07714 135.212 1.07714 135.619 1.23985C136.024 0.995237 135.862 0.995236 136.431 0.751715C136.431 1.07714 136.675 0.832525 136.837 0.995237C137.243 0.832525 138.3 1.15795 138.056 1.23985C138.462 1.56527 138.706 2.05341 139.274 2.05341L140.331 1.23985C140.331 1.23985 139.274 1.32066 139.113 1.07714C138.219 -0.305365 133.18 0.26358 133.18 0.26358C137.325 -0.63188 141.225 0.995236 142.281 1.56418C142.281 1.56418 143.419 2.29584 143.906 2.78397V2.86478L143.826 2.94668L144.151 3.35401C144.231 3.27211 144.231 3.1913 144.231 3.1094L144.069 2.94668C145.045 3.43482 145.939 4.41109 146.751 5.14275C146.751 5.14275 146.832 6.03711 146.67 5.79359C146.426 6.03821 146.67 6.28173 146.751 6.44444C146.832 6.60606 146.995 6.60606 147.076 6.60606C147.321 6.44444 147.076 6.28063 147.076 6.19983L147.402 6.36254V6.04039C147.646 6.36581 147.807 6.36581 147.807 6.69124C147.727 6.60933 147.482 6.60933 147.402 6.77314C146.995 7.18046 147.321 7.66751 147.157 7.91212L147.32 8.07374C147.481 7.66751 147.645 7.34208 147.726 6.85395C147.97 7.01666 148.131 7.66751 148.538 7.5856C149.351 8.72459 149.838 10.1082 150.244 11.4907C150.57 12.6297 150.488 13.4432 150.895 14.5822C150.895 14.8268 150.732 15.2331 150.732 15.2331C150.488 15.7212 150.001 15.8839 149.839 16.372L149.433 16.2093C147.645 17.511 145.775 18.65 143.988 20.0325C144.395 20.0325 144.556 20.5206 144.964 20.4398C146.995 19.0562 148.621 16.9421 150.897 16.2912C150.572 17.2675 149.678 17.7556 148.866 18.4065C147.57 19.3806 146.675 20.0314 145.62 20.6812ZM139.606 17.6726C142.207 15.7201 144.888 13.6048 147.407 11.4907C147.488 11.1653 147.651 10.8398 147.407 10.5144C144.319 12.467 141.475 14.663 138.55 16.941V17.0218C138.55 17.1037 138.631 17.1037 138.631 17.1037C138.631 17.0218 138.711 16.941 138.793 16.941C139.036 17.0218 138.874 17.1037 138.793 17.2664C138.956 17.5907 139.362 17.428 139.606 17.6726ZM141.231 18.1608C143.507 16.6145 145.701 14.5811 147.813 12.954C147.975 12.5467 147.568 12.4659 147.488 12.1404C144.806 14.093 142.206 15.8009 139.688 17.9162C140.013 18.7297 140.744 17.7534 141.231 18.1608ZM141.962 19.2987L148.057 14.4992C148.302 14.0111 148.138 13.8484 147.896 13.6048C147.896 13.6048 143.183 17.1026 141.394 18.4043C141.801 18.567 141.637 19.0551 141.962 19.2987ZM148.22 16.2082L148.788 15.6393C148.95 15.3139 148.706 15.1511 148.463 15.1511C146.349 16.5337 144.237 17.9981 142.124 19.6252L143.342 19.9506L148.22 16.2082ZM130.179 1.89179C130.179 1.89179 130.179 1.89179 130.099 1.89179C130.099 1.89179 130.099 1.89179 130.099 1.9726L130.179 1.89179ZM130.179 1.80989C130.179 1.89179 130.179 1.89179 130.179 1.89179V1.80989ZM119.779 13.1986C119.698 13.2794 119.534 13.3613 119.454 13.4421C119.454 13.5229 119.454 13.6867 119.454 13.7676C119.534 13.8484 119.615 13.8484 119.779 13.7676C119.779 13.6867 119.779 13.6048 119.779 13.5229C119.779 13.4421 119.779 13.2794 119.779 13.1986ZM119.698 12.3031C119.779 12.3031 119.859 12.3031 119.859 12.2223C119.94 11.8969 120.104 11.5715 120.184 11.2461C120.104 11.328 120.023 11.4088 119.94 11.4088C119.859 11.7342 119.779 12.0585 119.698 12.3031ZM119.779 14.7438C119.616 14.9065 119.454 15.0692 119.372 15.1511C119.372 15.232 119.372 15.3128 119.372 15.3128C119.372 16.2082 120.265 14.7438 120.265 14.7438C120.265 14.7438 119.859 14.9065 119.779 14.7438ZM120.184 10.676C120.265 10.676 120.347 10.676 120.347 10.676C120.915 9.04892 121.728 7.74722 121.728 7.74722C120.997 8.72459 120.51 9.70086 120.184 10.676Z" fill="#292930"/>
<path fill-rule="evenodd" clip-rule="evenodd" d="M3.81942 75.7519H3.08742C2.68161 75.7519 2.35651 75.9954 2.11215 76.3208C1.9496 76.6452 1.78706 76.9717 1.70524 77.296C1.5427 77.5417 1.46197 77.7033 1.29942 77.7033C1.13688 77.7033 1.13688 77.6225 1.13688 77.4598C1.13688 77.2141 1.62342 75.5892 1.78706 75.1819C1.86779 75.0202 1.94851 74.7745 2.11215 74.7745C2.35651 74.7745 2.35651 74.9383 2.35651 75.0202C2.43833 75.1819 2.43833 75.3446 2.6816 75.3446H6.5827C6.90779 75.3446 6.98851 75.183 7.07033 75.1011C7.23288 74.9394 7.23288 74.7745 7.39542 74.7745C7.55797 74.7745 7.55797 74.8553 7.55797 74.9383C7.55797 75.1 7.15215 76.6441 6.9896 77.2949C6.90888 77.5406 6.82706 77.7023 6.66451 77.7023C6.50197 77.7023 6.42124 77.6214 6.42124 77.3779C6.42124 77.1322 6.58379 76.6441 6.58379 76.3197C6.58379 75.8316 6.42124 75.7508 5.69033 75.7508H5.28233L3.25106 82.5017C3.25106 82.7474 3.16924 82.909 3.16924 82.9898C3.16924 83.1515 3.33179 83.3163 3.57615 83.3163C3.82051 83.3972 3.90124 83.3972 3.90124 83.5599C3.90124 83.7226 3.81942 83.7215 3.49433 83.7215C3.08742 83.7215 2.6816 83.7215 2.11215 83.7215C1.62451 83.7215 1.2187 83.7215 0.893605 83.7215C0.811787 83.7215 0.650333 83.7215 0.650333 83.5599C0.650333 83.3982 0.811787 83.3982 0.975423 83.3163C1.46306 83.2355 1.54379 83.2355 1.78815 82.5825L3.81942 75.7519Z" fill="#292930"/>
<path fill-rule="evenodd" clip-rule="evenodd" d="M11.8636 79.2497C11.8636 81.282 10.4007 83.8865 8.93779 83.8865C8.53197 83.8865 8.28761 83.7226 8.28761 83.2356C8.28761 82.9091 8.45016 82.7475 8.69452 82.7475C8.85707 82.7475 8.93779 82.8283 8.93779 83.0718C8.93779 83.3175 8.93779 83.3983 9.01961 83.3983C9.50725 83.3983 10.4825 80.0622 10.4825 79.0051C10.4825 78.6 10.32 78.4361 10.1574 78.4361C9.83234 78.4361 9.3447 79.0051 8.77525 80.1441C8.28761 81.0395 7.79997 82.1785 7.39416 83.3175C7.23161 83.7226 7.23161 83.7226 6.66325 83.7226C6.09488 83.7226 6.01307 83.7226 6.01307 83.6418C6.01307 83.561 6.01307 83.4802 6.09488 83.3175C6.58252 81.3639 7.47597 78.5181 8.04543 76.4028C8.20797 75.9955 8.2887 75.6712 8.2887 75.5903C8.2887 75.4265 8.20797 75.4265 8.04543 75.3446C7.88288 75.3446 7.72034 75.3446 7.72034 75.2638C7.63852 75.2638 7.63852 75.183 7.63852 75.183C7.63852 75.0214 7.72034 74.9395 7.88288 74.9395C8.2887 74.8565 8.93888 74.8565 9.50834 74.4514C9.58907 74.4514 9.75161 74.2876 9.91525 74.2876C9.99597 74.2876 9.99597 74.3684 9.99597 74.4514C9.99597 74.5322 9.99597 74.613 9.91525 74.7757C9.7527 75.3446 9.34579 76.7293 8.37052 80.0633V80.1441C9.0207 79.0859 9.91525 77.461 10.8087 77.461C11.7011 77.461 11.8636 78.3542 11.8636 79.2497Z" fill="#292930"/>
<path fill-rule="evenodd" clip-rule="evenodd" d="M15.8464 77.8661C16.0907 77.8661 16.1715 78.0299 16.1715 78.2735C16.1715 78.4351 16.1715 78.7616 16.0078 79.1689C15.6827 79.8198 15.1144 80.5514 13.8958 80.7131C14.3016 78.9232 15.1951 77.8661 15.7646 77.8661H15.8464ZM17.2275 78.6808C17.2275 77.9491 16.7398 77.461 15.8464 77.461C14.1402 77.461 12.2704 79.5752 12.2704 81.852C12.2704 83.1526 12.8387 83.8865 13.8151 83.8865C14.9518 83.8865 15.9282 82.9091 16.334 82.1785C16.5773 81.852 16.6591 81.6096 16.6591 81.5277C16.6591 81.4458 16.5773 81.3639 16.4966 81.3639C16.4158 81.3639 16.334 81.6096 16.0907 81.9328C15.6031 82.5837 15.0336 83.0718 14.4653 83.0718C13.9776 83.0718 13.7344 82.5837 13.7344 81.9328C13.7344 81.6085 13.8162 81.282 13.8969 81.0396C13.8969 81.0396 13.9776 81.0396 14.1402 81.0396C16.0896 80.7131 17.2275 80.0622 17.2275 78.6808Z" fill="#292930"/>
<path fill-rule="evenodd" clip-rule="evenodd" d="M20.4787 81.1203C20.4787 79.4932 21.2096 77.949 22.3474 76.8909C23.4852 75.8327 25.1107 75.101 26.8169 75.101C27.142 75.101 27.467 75.1818 27.6296 75.2626C27.7921 75.3435 27.7921 75.3435 27.7921 75.4243C27.7921 75.5881 27.7921 75.67 27.7103 75.9124C27.5489 76.4005 27.3045 76.9706 27.2227 77.3779C27.142 77.6214 27.0601 77.7022 26.8976 77.7022C26.735 77.7022 26.6532 77.6214 26.6532 77.3779C26.6532 77.1322 26.8976 76.3197 26.8976 75.9124C26.8976 75.6689 26.735 75.5881 26.4099 75.5881C25.6779 75.5881 24.4594 76.1559 23.5659 77.2938C22.5099 78.5966 22.103 80.3056 22.103 81.5254C22.103 82.1763 22.2656 82.6622 22.51 82.9887C22.7532 83.3152 23.1601 83.4769 23.5659 83.4769C23.891 83.4769 24.2161 83.3152 24.2161 83.0695C24.2979 82.826 24.3787 82.6622 24.4605 82.4187L24.8674 80.9554C24.9492 80.7097 24.9492 80.548 24.9492 80.4672C24.9492 80.2215 24.8674 80.1407 24.6241 80.1407C24.2172 80.0599 24.1365 80.0599 24.1365 79.8972C24.1365 79.8164 24.2172 79.7356 24.3809 79.7356C24.7867 79.7356 25.2743 79.8164 25.7619 79.8164C26.3303 79.8164 26.8179 79.7356 27.1441 79.7356C27.3067 79.7356 27.3874 79.8164 27.3874 79.8972C27.3874 80.0588 27.3067 80.0588 27.0623 80.1407C26.7372 80.2215 26.5747 80.2215 26.4939 80.6289L25.6812 83.3141C25.6812 83.4758 25.4369 83.5577 25.031 83.7193C24.4627 83.8831 23.8932 83.8831 23.3249 83.8831C22.5121 83.8831 21.7812 83.6374 21.2936 83.1492C20.8027 82.7474 20.4787 82.0157 20.4787 81.1203Z" fill="#292930"/>
<path fill-rule="evenodd" clip-rule="evenodd" d="M27.6282 83.0719C27.6282 82.8284 27.7907 82.2594 27.9533 81.6086C28.2784 80.1431 28.9286 78.03 29.3355 76.7283C29.4969 76.1572 29.5787 75.8329 29.5787 75.6701C29.5787 75.4244 29.4969 75.3436 29.1718 75.2628C29.0093 75.2628 28.8467 75.182 28.8467 75.1012C28.8467 74.9396 29.0093 74.8555 29.3344 74.8555C29.9846 74.8555 30.4711 74.612 30.878 74.4504C31.1224 74.3674 31.2031 74.2866 31.2838 74.2866C31.3657 74.2866 31.3657 74.3674 31.3657 74.4504C31.3657 74.5312 31.2838 74.7747 31.2031 75.182C30.3904 78.0289 29.6595 80.2239 29.3344 81.3629C29.1718 82.0159 29.09 82.3402 29.09 82.5019C29.09 82.5827 29.1707 82.6635 29.2526 82.6635C29.4958 82.6635 29.6595 82.5019 30.0653 81.9318C30.2278 81.5267 30.3904 81.1193 30.4711 81.1193C30.6337 81.1193 30.6337 81.2002 30.6337 81.281C30.6337 81.4448 30.4711 81.9318 30.146 82.42C29.6584 83.0708 29.0082 83.8855 28.2773 83.8855C27.8726 83.8865 27.6282 83.5611 27.6282 83.0719Z" fill="#292930"/>
<path fill-rule="evenodd" clip-rule="evenodd" d="M35.1045 79.0051C35.1045 79.739 34.6976 81.2023 34.3736 81.9339C33.8859 82.9113 33.4801 83.4802 32.9914 83.4802C32.5856 83.4802 32.3412 83.1537 32.3412 82.4221C32.3412 81.6904 32.747 80.2249 33.1539 79.4933C33.5597 78.4351 34.0474 77.8661 34.4532 77.8661C34.8612 77.8661 35.1045 78.1926 35.1045 79.0051ZM36.4048 79.9006C36.4048 78.3543 35.5921 77.461 34.3736 77.461C32.5856 77.461 31.1237 79.4933 31.1237 81.4469C31.1237 82.9102 31.8547 83.8865 33.0743 83.8865C34.0496 83.8865 34.943 83.3175 35.5125 82.5018C36.0798 81.7712 36.4048 80.7939 36.4048 79.9006Z" fill="#292930"/>
<path fill-rule="evenodd" clip-rule="evenodd" d="M41.4435 79.169C41.4435 80.308 39.9806 83.56 38.7621 83.56C38.3552 83.56 38.1926 83.3165 38.1926 82.9911C38.1926 81.8521 40.0624 78.4352 40.9559 78.4352C41.281 78.4352 41.4435 78.6809 41.4435 79.169ZM42.9872 79.2498C42.9872 78.4352 42.7439 77.46 41.7686 77.46C40.6308 77.46 39.6555 79.0849 39.1679 79.7379H39.0861L40.4672 75.4255C40.6297 74.7747 40.7923 74.5323 40.7923 74.4504C40.7923 74.3674 40.7104 74.2866 40.5479 74.2866C40.5479 74.2866 40.4661 74.3674 40.3853 74.3674C39.9784 74.6131 39.4101 74.7747 38.5973 74.8555C38.2723 74.8555 38.1904 74.9385 38.1097 75.1012C38.1097 75.2628 38.2723 75.2628 38.5166 75.2628C38.761 75.3436 38.8417 75.4244 38.8417 75.6701C38.8417 75.8318 38.8417 75.9945 38.6792 76.321C38.4359 77.3792 37.7039 79.3306 37.2981 80.7939C37.1355 81.447 37.0537 82.0159 37.0537 82.2594C37.0537 83.3984 37.7846 83.8865 38.6792 83.8865C41.0366 83.8865 42.9872 81.364 42.9872 79.2498Z" fill="#292930"/>
<path fill-rule="evenodd" clip-rule="evenodd" d="M47.7819 78.518C47.7819 78.9231 47.2942 79.9813 46.7259 80.8768C46.0757 81.8519 45.3448 82.6644 45.0197 82.6644C44.7764 82.6644 44.6139 82.5028 44.6139 82.1785C44.6139 81.6903 45.0197 80.713 45.6699 79.574C46.2382 78.5988 46.8077 78.0299 47.2953 78.0299C47.6193 78.0299 47.7819 78.1926 47.7819 78.518ZM43.1499 82.6644C43.1499 83.3982 43.3932 83.8864 44.1252 83.8864C45.263 83.8864 46.4815 81.8519 47.051 80.9576V81.0384C46.8884 81.6073 46.7259 82.1774 46.5633 82.6633C46.5633 82.909 46.4815 83.1515 46.4815 83.3163C46.4815 83.6407 46.6441 83.8853 46.9692 83.8853C47.5375 83.8853 48.1877 83.3972 48.5946 82.8271C49.0822 82.2582 49.4073 81.6073 49.4073 81.3616C49.4073 81.2808 49.4073 81.2 49.3255 81.2C49.163 81.2 49.163 81.3616 48.8379 81.8509C48.5128 82.4198 48.2695 82.6633 48.107 82.6633C48.0252 82.6633 48.0252 82.5825 48.0252 82.5017C48.0252 82.3401 48.0252 82.0965 48.1877 81.5265C48.5946 80.3875 49.0004 79.1677 49.3244 78.0288C49.4062 77.865 49.4062 77.7022 49.4062 77.6214C49.4062 77.4598 49.3244 77.4598 49.1619 77.4598C49.0004 77.4598 48.7561 77.4598 48.5117 77.4598C48.3492 77.4598 48.1866 77.4598 48.1866 77.6214C48.1059 77.7022 48.0241 77.948 47.9422 77.948C47.8604 77.948 47.6172 77.6214 47.0488 77.6214C46.235 77.6214 45.2608 78.2723 44.5288 79.2486C43.7182 80.2248 43.1499 81.5276 43.1499 82.6644Z" fill="#292930"/>
<path fill-rule="evenodd" clip-rule="evenodd" d="M49.895 83.0719C49.895 82.8284 49.9758 82.2594 50.1383 81.6086C50.5452 80.1431 51.1943 78.03 51.6012 76.7283C51.7638 76.1572 51.8456 75.8329 51.8456 75.6701C51.8456 75.4244 51.7638 75.3436 51.4387 75.2628C51.2761 75.2628 51.1136 75.182 51.1136 75.1012C51.1136 74.9396 51.2761 74.8555 51.6012 74.8555C52.2514 74.8555 52.739 74.612 53.1448 74.4504C53.3892 74.3674 53.4699 74.2866 53.5518 74.2866C53.6336 74.2866 53.6336 74.3674 53.6336 74.4504C53.6336 74.5312 53.5518 74.7747 53.471 75.182C52.6583 78.0289 51.9274 80.2239 51.6023 81.3629C51.4398 82.0159 51.359 82.3402 51.359 82.5019C51.359 82.5827 51.4398 82.6635 51.5216 82.6635C51.7648 82.6635 51.9285 82.5019 52.3343 81.9318C52.4968 81.5267 52.6583 81.1193 52.7401 81.1193C52.8219 81.1193 52.9027 81.2002 52.9027 81.281C52.9027 81.4448 52.7401 81.9318 52.4161 82.42C51.9285 83.0708 51.2783 83.8855 50.5463 83.8855C50.0576 83.8865 49.895 83.5611 49.895 83.0719Z" fill="#292930"/>
<path fill-rule="evenodd" clip-rule="evenodd" d="M58.7519 76.0763C58.7519 75.8327 58.5893 75.7519 58.3449 75.7519C58.1006 75.6711 57.9391 75.6711 57.9391 75.5062C57.9391 75.3446 58.0199 75.2627 58.2642 75.2627C58.6711 75.2627 59.1577 75.3435 59.7271 75.3435C60.2955 75.3435 60.7831 75.2627 61.1082 75.2627C61.2708 75.2627 61.3515 75.3435 61.3515 75.4243C61.3515 75.67 61.19 75.67 60.8639 75.7508C60.457 75.7508 60.2955 75.9125 60.2137 76.3198C59.726 77.7831 59.0759 80.2227 58.5075 82.0955C58.3449 82.5006 58.2642 82.908 58.1824 83.1515C58.1824 83.2345 58.1824 83.3153 58.3449 83.3153C58.5075 83.3153 58.67 83.3153 58.9133 83.3153C60.0511 83.3153 60.5388 83.0696 61.0264 82.0955C61.514 81.2808 61.514 81.2 61.6766 81.2C61.7573 81.2 61.8391 81.2808 61.8391 81.3616C61.8391 81.6074 61.6766 82.1763 61.3515 83.1515C61.19 83.7204 61.19 83.7204 60.9457 83.7204C60.6206 83.7204 60.1329 83.7204 57.9391 83.7204C56.9639 83.7204 56.3944 83.7204 55.9068 83.7204C55.7453 83.7204 55.6635 83.7204 55.6635 83.5588C55.6635 83.478 55.826 83.3972 56.1511 83.3153C56.3944 83.3153 56.6388 83.1515 56.7195 82.8271C57.3697 80.63 58.1824 78.1096 58.5075 76.9706C58.67 76.322 58.7519 76.1571 58.7519 76.0763Z" fill="#292930"/>
<path fill-rule="evenodd" clip-rule="evenodd" d="M65.8211 77.8661C66.0643 77.8661 66.1461 78.0299 66.1461 78.2735C66.1461 78.4351 66.1461 78.7616 65.9836 79.1689C65.7392 79.8198 65.0901 80.5514 63.8705 80.7131C64.2763 78.9232 65.1709 77.8661 65.7392 77.8661H65.8211ZM67.2021 78.6808C67.2021 77.9491 66.7145 77.461 65.8211 77.461C64.1149 77.461 62.2461 79.5752 62.2461 81.852C62.2461 83.1526 62.8145 83.8865 63.7898 83.8865C64.9276 83.8865 65.9029 82.9091 66.3087 82.1785C66.5531 81.852 66.6338 81.6096 66.6338 81.5277C66.6338 81.4458 66.552 81.3639 66.4712 81.3639C66.3894 81.3639 66.3087 81.6096 66.0643 81.9328C65.5767 82.5837 65.0083 83.0718 64.5207 83.0718C63.9523 83.0718 63.708 82.5837 63.708 81.9328C63.708 81.6085 63.7887 81.282 63.8705 81.0396C63.9523 81.0396 63.9523 81.0396 64.1138 81.0396C66.0643 80.7131 67.2021 80.0622 67.2021 78.6808Z" fill="#292930"/>
<path fill-rule="evenodd" clip-rule="evenodd" d="M71.6717 78.518C71.6717 78.9231 71.184 79.9813 70.5349 80.8768C69.9655 81.8519 69.2346 82.6644 68.8277 82.6644C68.5844 82.6644 68.5026 82.5028 68.5026 82.1785C68.5026 81.6903 68.9095 80.713 69.5586 79.574C70.1269 78.5988 70.6964 78.0299 71.184 78.0299C71.5102 78.0299 71.6717 78.1926 71.6717 78.518ZM67.0396 82.6644C67.0396 83.3982 67.2022 83.8864 68.0149 83.8864C69.0709 83.8864 70.3713 81.8519 70.9407 80.9576V81.0384C70.7782 81.6073 70.6156 82.1774 70.4531 82.6633C70.3713 82.909 70.3713 83.1515 70.3713 83.3163C70.3713 83.6407 70.4531 83.8853 70.8589 83.8853C71.4284 83.8853 72.0786 83.3972 72.4844 82.8271C72.972 82.2582 73.2971 81.6073 73.2971 81.3616C73.2971 81.2808 73.2971 81.2 73.2164 81.2C73.0538 81.2 73.0538 81.3616 72.7287 81.8509C72.4036 82.4198 72.1604 82.6633 71.9978 82.6633C71.9171 82.6633 71.8353 82.5825 71.8353 82.5017C71.8353 82.3401 71.9171 82.0965 72.0796 81.5265C72.4855 80.3875 72.8924 79.1677 73.2175 78.0288C73.2982 77.865 73.2982 77.7022 73.2982 77.6214C73.2982 77.4598 73.2175 77.4598 73.0538 77.4598C72.8095 77.4598 72.648 77.4598 72.4036 77.4598C72.1593 77.4598 72.0786 77.4598 71.9967 77.6214C71.9967 77.7022 71.916 77.948 71.8342 77.948C71.7524 77.948 71.5091 77.6214 70.9407 77.6214C70.128 77.6214 69.1527 78.2723 68.3411 79.2486C67.6091 80.2248 67.0396 81.5276 67.0396 82.6644Z" fill="#292930"/>
<path fill-rule="evenodd" clip-rule="evenodd" d="M78.335 78.3543C78.335 78.7617 77.8474 79.739 77.1972 80.878C76.4663 82.0978 75.8161 82.7486 75.491 82.7486C75.2467 82.7486 75.0841 82.5848 75.0841 82.1797C75.0841 81.448 75.491 80.3899 76.0594 79.4944C76.6278 78.6011 77.2779 77.8673 77.8474 77.8673C78.1725 77.8673 78.335 78.0311 78.335 78.2746V78.3543ZM73.6223 82.4221C73.6223 83.4803 73.9474 83.8876 74.5976 83.8876C75.6536 83.8876 76.6288 82.4221 77.5234 81.1215C77.3608 81.6097 77.279 82.017 77.1983 82.3413C77.1176 82.7486 77.0358 82.9922 77.0358 83.2368C77.0358 83.7227 77.1983 83.8876 77.6052 83.8876C78.2554 83.8876 78.9863 83.1538 79.4739 82.4221C79.7183 82.017 79.9616 81.6097 79.9616 81.364C79.9616 81.2831 79.8808 81.2023 79.799 81.2023C79.6365 81.2023 79.5547 81.5289 79.3932 81.8532C78.9863 82.504 78.8248 82.6656 78.6612 82.6656C78.4987 82.6656 78.4987 82.5848 78.4987 82.504C78.4987 82.3424 78.5805 81.9351 78.8238 81.2842C79.4739 79.3328 80.2048 77.0548 80.7743 75.1842C80.8561 74.7769 80.9368 74.5333 80.9368 74.4525C80.9368 74.3695 80.9368 74.2887 80.8561 74.2887C80.7743 74.2887 80.6128 74.4525 80.4492 74.4525C80.0423 74.6961 79.4739 74.8577 78.9045 74.8577C78.5794 74.8577 78.4976 74.9407 78.4168 75.1034C78.4168 75.1842 78.5794 75.265 78.8238 75.265C79.067 75.3458 79.1488 75.4266 79.1488 75.5915C79.1488 75.7531 79.067 75.9158 79.067 76.0775C78.9045 76.5656 78.7419 77.1356 78.5794 77.7046C78.2543 77.543 78.011 77.4611 77.6859 77.4611C76.7107 77.4611 75.7354 78.1119 74.9227 79.0052C74.1099 79.9815 73.6223 81.2012 73.6223 82.4221Z" fill="#292930"/>
<path fill-rule="evenodd" clip-rule="evenodd" d="M83.7795 77.8661C84.0239 77.8661 84.1864 78.0299 84.1864 78.2735C84.1864 78.4351 84.1057 78.7616 83.942 79.1689C83.6988 79.8198 83.0486 80.5514 81.9108 80.7131C82.3166 78.9232 83.1293 77.8661 83.7795 77.8661ZM85.1617 78.6808C85.1617 77.9491 84.674 77.461 83.7795 77.461C82.1541 77.461 80.2046 79.5752 80.2046 81.852C80.2046 83.1526 80.773 83.8865 81.7493 83.8865C82.886 83.8865 83.8624 82.9091 84.35 82.1785C84.5115 81.852 84.5933 81.6096 84.5933 81.5277C84.5933 81.4458 84.5933 81.3639 84.5115 81.3639C84.35 81.3639 84.35 81.6096 84.1057 81.9328C83.5373 82.5837 82.9679 83.0718 82.4802 83.0718C81.9926 83.0718 81.7493 82.5837 81.7493 81.9328C81.7493 81.6085 81.7493 81.282 81.83 81.0396C81.9119 81.0396 81.9926 81.0396 82.0744 81.0396C84.0239 80.7131 85.1617 80.0622 85.1617 78.6808Z" fill="#292930"/>
<path fill-rule="evenodd" clip-rule="evenodd" d="M90.444 78.2734C90.444 79.1688 89.9564 79.8197 89.4687 79.8197C89.3062 79.8197 89.2244 79.7389 89.1436 79.574C89.1436 79.3305 89.2244 79.2496 89.2244 78.9231C89.2244 78.7615 89.2244 78.6796 89.0618 78.6796C88.8993 78.6796 88.5742 79.1677 88.1684 80.0621C87.8433 80.7938 87.1931 82.3401 86.868 83.3163C86.7055 83.6407 86.7055 83.7215 86.2178 83.7215C85.5676 83.7215 85.4869 83.7215 85.4869 83.6407C85.4869 83.5599 85.4869 83.4791 85.5676 83.2355C85.8927 82.0965 86.2996 80.6311 86.6247 79.4113C86.7055 79.1677 86.7873 78.7604 86.7873 78.6796C86.7873 78.518 86.7873 78.518 86.6247 78.518C86.4622 78.518 86.2996 78.6796 86.0564 79.1688C85.8938 79.4124 85.8131 79.574 85.7313 79.657C85.7313 79.8186 85.6495 79.8186 85.5687 79.8186C85.488 79.8186 85.4062 79.8186 85.4062 79.7378C85.4062 79.574 85.6506 79.0039 85.9746 78.518C86.3815 78.0299 86.868 77.5406 87.4375 77.5406C87.8444 77.5406 88.0876 77.7841 88.0876 78.1915C88.0876 78.5988 87.9251 79.1688 87.6 80.3078V80.3886C88.4127 78.5988 89.0618 77.4598 89.8745 77.4598C90.2815 77.4609 90.444 77.7852 90.444 78.2734Z" fill="#292930"/>
<path fill-rule="evenodd" clip-rule="evenodd" d="M97.1881 75.6711C97.1881 76.0763 96.8631 76.6463 96.2947 76.6463C95.9696 76.6463 95.7263 76.4028 95.7263 76.0773C95.7263 75.5084 96.1321 74.9406 96.539 74.9406C96.8641 74.9406 97.1892 75.1841 97.1892 75.5914V75.6711H97.1881ZM96.538 78.1107C96.538 78.2723 96.4561 78.7616 96.2947 79.1689C95.9696 80.0622 95.6445 80.8768 95.4001 81.7712C95.2376 82.0977 95.1569 82.3401 95.1569 82.5028C95.1569 82.5836 95.2376 82.6644 95.3183 82.6644C95.4809 82.6644 95.7252 82.4209 96.0503 81.7712C96.2947 81.3638 96.2947 81.2022 96.4561 81.2022C96.5379 81.2022 96.6187 81.2022 96.6187 81.283C96.6187 81.4468 96.3743 81.9339 96.1311 82.422C95.6434 83.1537 94.9932 83.8875 94.2623 83.8875C93.8554 83.8875 93.694 83.561 93.694 83.1537C93.694 82.9101 93.7747 82.422 93.9372 81.9339C94.1816 81.2022 94.5067 80.3898 94.75 79.7389C94.9932 79.17 95.075 78.8435 95.075 78.6807C95.075 78.5999 94.9932 78.5191 94.9125 78.5191C94.75 78.5191 94.5874 78.6807 94.3441 79.087C93.8565 79.6581 93.8565 79.9016 93.694 79.9016C93.694 79.9016 93.6121 79.8208 93.6121 79.74C93.6121 79.5762 93.8565 79.087 94.1805 78.601C94.6681 78.0321 95.3172 77.462 95.8867 77.462C96.2947 77.4609 96.538 77.7034 96.538 78.1107Z" fill="#292930"/>
<path fill-rule="evenodd" clip-rule="evenodd" d="M103.526 78.3543C103.526 78.6 103.445 78.8424 103.283 79.2497C103.038 80.143 102.632 81.0396 102.306 81.852C102.145 82.3402 102.062 82.5029 102.062 82.5837C102.062 82.7475 102.144 82.8294 102.225 82.8294C102.469 82.8294 102.712 82.5029 103.037 82.0977C103.443 81.5288 103.443 81.2831 103.606 81.2831C103.686 81.2831 103.767 81.2831 103.767 81.4469C103.767 81.6085 103.523 82.0158 103.199 82.5029C102.711 83.1537 101.979 83.8876 101.329 83.8876C100.841 83.8876 100.597 83.561 100.597 83.1537C100.597 82.8294 100.76 82.1785 101.085 81.5288C101.41 80.5514 101.735 79.9017 101.897 79.4125C101.978 79.0859 102.059 78.8435 102.059 78.6808C102.059 78.4351 101.897 78.3543 101.816 78.3543C101.409 78.3543 100.839 78.9232 100.109 79.9006C99.541 80.7939 98.8908 82.3402 98.485 83.3983C98.4031 83.7227 98.3224 83.7227 97.9962 83.7227H97.3461C97.1835 83.7227 97.1017 83.6419 97.1017 83.6419C97.1017 83.5611 97.1835 83.2367 97.2642 82.991C97.6701 81.9328 98.077 80.6322 98.4839 79.4125C98.5646 79.0859 98.6453 78.8435 98.6453 78.6808C98.6453 78.6 98.5646 78.5192 98.4839 78.5192C98.2384 78.5192 97.9951 78.7627 97.6701 79.2508C97.4257 79.5752 97.345 79.8198 97.1824 79.8198C97.1006 79.8198 97.0199 79.8198 97.0199 79.739C97.0199 79.5752 97.2642 79.0859 97.5882 78.6808C98.0759 78.1118 98.725 77.461 99.3751 77.461C99.7821 77.461 100.025 77.7045 100.025 78.1118C100.025 78.3554 99.9446 78.6808 99.8639 79.0051C99.7831 79.4933 99.5388 79.9825 99.457 80.3079H99.5388C100.025 79.3305 101.408 77.461 102.708 77.461C103.196 77.461 103.52 77.7853 103.52 78.2735V78.3543H103.526Z" fill="#292930"/>
<path fill-rule="evenodd" clip-rule="evenodd" d="M112.79 81.3639C113.44 79.086 113.928 77.6227 114.089 76.8102C114.252 76.4029 114.252 76.1572 114.252 76.0763C114.252 75.8328 114.171 75.752 113.846 75.6712C113.602 75.6712 113.52 75.5904 113.52 75.5074C113.52 75.3458 113.602 75.2639 113.764 75.2639C114.089 75.2639 114.414 75.3447 114.74 75.3447C115.066 75.3447 115.309 75.2639 115.552 75.2639C115.634 75.2639 115.715 75.3447 115.715 75.5074C115.715 75.6712 115.552 75.6712 115.39 75.6712C115.065 75.752 114.902 75.9147 114.738 76.4029C113.763 79.5741 113.195 81.6096 112.789 83.0718C112.626 83.7227 112.545 83.8057 112.301 83.8057C112.058 83.8057 111.976 83.56 111.896 83.2367L109.864 76.7294C109.214 78.7616 108.726 80.3898 108.401 81.5288C108.157 82.3413 108.076 82.7486 108.076 82.8294C108.076 83.1538 108.321 83.2367 108.482 83.3176C108.726 83.3984 108.97 83.3984 108.97 83.5611C108.97 83.7238 108.889 83.7227 108.725 83.7227C108.4 83.7227 108.157 83.7227 107.668 83.7227C107.262 83.7227 107.018 83.7227 106.693 83.7227C106.53 83.7227 106.53 83.7227 106.53 83.5611C106.53 83.3995 106.612 83.3995 106.693 83.3176C107.018 83.3176 107.261 83.2367 107.343 83.0718C107.506 82.7475 107.668 82.3402 107.831 81.7712C108.644 79.169 109.13 77.6227 109.374 76.8102C109.537 76.4029 109.537 76.1572 109.537 76.0763C109.537 75.8328 109.456 75.752 109.13 75.6712C108.969 75.6712 108.887 75.5904 108.887 75.5074C108.887 75.3458 108.968 75.2639 109.13 75.2639C109.456 75.2639 109.781 75.3447 110.025 75.3447C110.35 75.3447 110.593 75.2639 110.756 75.2639C110.918 75.2639 111 75.4255 111.081 75.752C111.572 77.6226 112.221 79.4933 112.79 81.3639Z" fill="#292930"/>
<path fill-rule="evenodd" clip-rule="evenodd" d="M118.316 77.8661C118.56 77.8661 118.722 78.0299 118.722 78.2735C118.722 78.4351 118.722 78.7616 118.56 79.1689C118.235 79.8198 117.584 80.5514 116.446 80.7131C116.853 78.9232 117.747 77.8661 118.316 77.8661ZM119.779 78.6808C119.779 77.9491 119.291 77.461 118.396 77.461C116.69 77.461 114.822 79.5752 114.822 81.852C114.822 83.1526 115.309 83.8865 116.284 83.8865C117.503 83.8865 118.398 82.9091 118.885 82.1785C119.047 81.852 119.21 81.6096 119.21 81.5277C119.21 81.4458 119.128 81.3639 119.048 81.3639C118.886 81.3639 118.886 81.6096 118.642 81.9328C118.154 82.5837 117.585 83.0718 117.016 83.0718C116.53 83.0718 116.286 82.5837 116.286 81.9328C116.286 81.6085 116.286 81.282 116.366 81.0396C116.447 81.0396 116.529 81.0396 116.611 81.0396C118.56 80.7131 119.779 80.0622 119.779 78.6808Z" fill="#292930"/>
<path fill-rule="evenodd" clip-rule="evenodd" d="M125.547 77.6226C125.792 77.6226 125.792 77.7034 125.792 77.7842C125.792 77.865 125.792 78.0299 125.711 78.2724C125.467 79.2497 124.492 81.7701 124.492 82.5826C124.492 82.8283 124.573 82.9899 124.818 82.9899C125.793 82.9899 127.093 80.3068 127.093 79.573C127.093 79.004 126.768 78.7605 126.768 78.1905C126.768 77.7831 126.93 77.4588 127.255 77.4588C127.662 77.4588 127.823 77.864 127.823 78.434C127.823 79.8187 125.872 83.8854 123.923 83.8854C123.435 83.8854 123.191 83.5589 123.191 83.0707C123.191 82.6634 123.354 82.0956 123.435 81.5266V81.4458C123.03 82.2583 122.136 83.8854 120.998 83.8854C120.43 83.8854 120.105 83.4781 120.105 82.8272C120.105 81.8498 121.487 79.1667 121.487 78.6786C121.487 78.5978 121.405 78.517 121.324 78.517C121.162 78.517 120.999 78.6786 120.674 79.0848C120.187 79.7379 120.187 79.8187 120.106 79.8187C120.025 79.8187 119.943 79.8187 119.943 79.7379C119.943 79.4114 121.162 77.4599 122.219 77.4599C122.707 77.4599 122.869 77.7034 122.869 78.1108C122.869 79.0859 121.488 81.7712 121.488 82.5018C121.488 82.7475 121.65 82.9091 121.813 82.9091C122.382 82.9091 123.112 81.5266 123.682 80.2238C124.007 79.3306 124.332 78.434 124.495 78.0289C124.575 77.7023 124.656 77.6215 124.82 77.6215H125.547V77.6226Z" fill="#292930"/>
<path fill-rule="evenodd" clip-rule="evenodd" d="M131.481 81.7712C131.481 82.3402 131.155 82.9102 130.749 83.2367C130.343 83.6419 129.774 83.8876 129.124 83.8876C128.718 83.8876 128.067 83.7238 127.742 83.4802C127.662 83.3994 127.58 83.3186 127.58 83.1537C127.58 82.9921 127.58 82.5029 127.742 82.0977C127.823 81.6096 127.904 81.4469 128.067 81.4469C128.231 81.4469 128.312 81.5277 128.312 81.852C128.473 82.5837 128.718 83.4791 129.45 83.4791C129.855 83.4791 130.1 82.991 130.1 82.5837C130.1 82.0158 129.775 81.5277 129.368 81.1204C129.043 80.6322 128.637 80.143 128.637 79.4933C128.637 78.3543 129.612 77.461 130.75 77.461C131.318 77.461 132.213 77.6226 132.213 78.0299C132.213 78.2735 132.132 78.5181 132.051 78.8424C131.889 79.3305 131.807 79.4933 131.644 79.4933C131.4 79.4933 131.319 79.0859 131.239 78.6808C131.157 78.2735 130.994 77.8661 130.588 77.8661C130.101 77.8661 129.856 78.2735 129.856 78.6808C129.856 79.1689 130.262 79.6581 130.588 80.0633C130.992 80.6322 131.481 81.1204 131.481 81.7712Z" fill="#292930"/>
<path fill-rule="evenodd" clip-rule="evenodd" d="M138.956 76.5644C139.036 76.2401 139.118 75.9135 139.2 75.8327C139.282 75.7519 139.85 75.7519 140.094 75.7519C141.151 75.7519 141.393 76.4028 141.393 77.379C141.393 78.518 140.987 80.2238 140.337 81.4468C139.687 82.6644 138.955 83.3175 137.817 83.3175C137.411 83.3175 137.248 83.2366 137.248 82.9101C137.248 82.6644 137.33 82.0977 137.411 81.852L138.956 76.5644ZM135.706 82.6644C135.543 83.1526 135.381 83.2356 134.975 83.3175C134.812 83.3175 134.65 83.3983 134.65 83.561C134.65 83.7237 134.811 83.7226 134.975 83.7226C135.218 83.7226 135.625 83.7226 136.194 83.7226C136.762 83.7226 137.493 83.7226 138.225 83.7226C139.688 83.7226 140.906 83.0718 141.719 81.9328C142.531 80.713 142.938 79.1689 142.938 77.865C142.938 77.1333 142.775 76.4825 142.286 75.9943C141.88 75.5062 141.23 75.2627 140.581 75.2627C139.93 75.2627 139.199 75.3435 138.467 75.3435C137.98 75.3435 137.574 75.2627 137.168 75.2627C136.923 75.2627 136.762 75.3435 136.762 75.5062C136.762 75.67 136.923 75.67 137.087 75.7519C137.412 75.7519 137.493 75.8327 137.493 76.1571C137.493 76.4028 137.412 76.8101 137.331 77.0525L135.706 82.6644Z" fill="#292930"/>
<path fill-rule="evenodd" clip-rule="evenodd" d="M146.758 75.6711C146.758 76.0763 146.351 76.6463 145.864 76.6463C145.457 76.6463 145.213 76.4028 145.213 76.0773C145.213 75.5084 145.62 74.9406 146.108 74.9406C146.433 74.9406 146.758 75.1841 146.758 75.5914V75.6711ZM146.108 78.1107C146.108 78.2723 145.945 78.7616 145.781 79.1689C145.537 80.0622 145.213 80.8768 144.888 81.7712C144.807 82.0977 144.727 82.3401 144.727 82.5028C144.727 82.5836 144.727 82.6644 144.888 82.6644C145.051 82.6644 145.213 82.4209 145.62 81.7712C145.864 81.3638 145.864 81.2022 146.026 81.2022C146.108 81.2022 146.108 81.2022 146.108 81.283C146.108 81.4468 145.945 81.9339 145.62 82.422C145.213 83.1537 144.482 83.8875 143.832 83.8875C143.425 83.8875 143.182 83.561 143.182 83.1537C143.182 82.9101 143.343 82.422 143.507 81.9339C143.75 81.2022 144.075 80.3898 144.319 79.7389C144.481 79.17 144.563 78.8435 144.563 78.6807C144.563 78.5999 144.563 78.5191 144.482 78.5191C144.32 78.5191 144.157 78.6807 143.832 79.087C143.425 79.6581 143.425 79.9016 143.264 79.9016C143.183 79.9016 143.183 79.8208 143.183 79.74C143.183 79.5762 143.426 79.087 143.751 78.601C144.239 78.0321 144.808 77.462 145.457 77.462C145.863 77.4609 146.108 77.7034 146.108 78.1107Z" fill="#292930"/>
<path fill-rule="evenodd" clip-rule="evenodd" d="M150.008 81.7712C150.008 82.3402 149.763 82.9102 149.357 83.2367C148.95 83.6419 148.381 83.8876 147.732 83.8876C147.326 83.8876 146.675 83.7238 146.35 83.4802C146.269 83.3994 146.106 83.3186 146.106 83.1537C146.106 82.9921 146.187 82.5029 146.268 82.0977C146.43 81.6096 146.512 81.4469 146.674 81.4469C146.836 81.4469 146.836 81.5277 146.918 81.852C147.081 82.5837 147.243 83.4791 147.975 83.4791C148.463 83.4791 148.706 82.991 148.706 82.5837C148.706 82.0158 148.381 81.5277 147.975 81.1204C147.568 80.6322 147.243 80.143 147.243 79.4933C147.243 78.3543 148.22 77.461 149.357 77.461C149.926 77.461 150.82 77.6226 150.82 78.0299C150.82 78.2735 150.738 78.5181 150.658 78.8424C150.495 79.3305 150.413 79.4933 150.252 79.4933C150.008 79.4933 149.927 79.0859 149.845 78.6808C149.764 78.2735 149.601 77.8661 149.195 77.8661C148.707 77.8661 148.464 78.2735 148.464 78.6808C148.464 79.1689 148.789 79.6581 149.195 80.0633C149.601 80.6322 150.008 81.1204 150.008 81.7712Z" fill="#292930"/>
<path fill-rule="evenodd" clip-rule="evenodd" d="M150.738 83.1537C150.738 82.9102 150.901 82.4221 151.064 81.6904C151.309 81.0396 151.796 79.4125 152.201 78.1119H151.39C151.309 78.1119 151.309 78.1119 151.309 78.0311C151.39 77.9503 151.39 77.8673 151.39 77.7854C151.39 77.7035 151.47 77.7046 151.551 77.7046H152.363L152.932 75.9147C153.013 75.7531 153.013 75.6712 153.177 75.6712C153.338 75.6712 153.502 75.6712 153.663 75.6712C153.826 75.6712 153.988 75.6712 154.151 75.6712C154.313 75.6712 154.313 75.6712 154.313 75.752C154.313 75.8328 154.313 75.9955 154.232 76.2402C154.07 76.5645 153.906 77.1334 153.744 77.7035H154.72C154.801 77.7035 154.882 77.7035 154.801 77.7843C154.801 77.8651 154.801 77.9481 154.801 78.03C154.72 78.1108 154.72 78.1108 154.64 78.1108H153.582C153.095 79.7379 152.77 80.7131 152.525 81.3639C152.363 82.0978 152.2 82.3413 152.2 82.5029C152.2 82.6645 152.281 82.7486 152.445 82.7486C152.525 82.7486 152.77 82.5848 153.095 82.1797C153.502 81.5288 153.502 81.2023 153.745 81.2023C153.827 81.2023 153.827 81.2831 153.827 81.3639C153.827 81.5277 153.664 81.9329 153.339 82.3413C152.853 83.0729 152.121 83.8876 151.39 83.8876C150.983 83.8865 150.738 83.6419 150.738 83.1537Z" fill="#292930"/>
<path fill-rule="evenodd" clip-rule="evenodd" d="M159.434 78.2734C159.434 79.1688 158.947 79.8197 158.459 79.8197C158.296 79.8197 158.133 79.7389 158.133 79.574C158.052 79.3305 158.215 79.2496 158.215 78.9231C158.215 78.7615 158.133 78.6796 158.052 78.6796C157.891 78.6796 157.566 79.1677 157.159 80.0621C156.752 80.7938 156.183 82.3401 155.859 83.3163C155.697 83.6407 155.697 83.7215 155.127 83.7215C154.477 83.7215 154.477 83.7215 154.477 83.6407C154.477 83.5599 154.477 83.4791 154.558 83.2355C154.883 82.0965 155.289 80.6311 155.615 79.4113C155.615 79.1677 155.776 78.7604 155.776 78.6796C155.776 78.518 155.696 78.518 155.615 78.518C155.452 78.518 155.289 78.6796 154.965 79.1688C154.883 79.4124 154.802 79.574 154.72 79.657C154.64 79.8186 154.64 79.8186 154.558 79.8186C154.477 79.8186 154.396 79.8186 154.396 79.7378C154.396 79.574 154.641 79.0039 154.965 78.518C155.371 78.0299 155.858 77.5406 156.428 77.5406C156.834 77.5406 156.996 77.7841 156.996 78.1915C156.996 78.5988 156.834 79.1688 156.589 80.3078V80.3886C157.402 78.5988 158.052 77.4598 158.865 77.4598C159.271 77.4609 159.434 77.7852 159.434 78.2734Z" fill="#292930"/>
<path fill-rule="evenodd" clip-rule="evenodd" d="M163.009 75.6711C163.009 76.0763 162.684 76.6463 162.196 76.6463C161.791 76.6463 161.546 76.4028 161.546 76.0773C161.546 75.5084 161.952 74.9406 162.44 74.9406C162.765 74.9406 163.008 75.1841 163.008 75.5914V75.6711H163.009ZM162.441 78.1107C162.441 78.2723 162.278 78.7616 162.116 79.1689C161.871 80.0622 161.547 80.8768 161.222 81.7712C161.061 82.0977 161.061 82.3401 161.061 82.5028C161.061 82.5836 161.061 82.6644 161.142 82.6644C161.386 82.6644 161.547 82.4209 161.953 81.7712C162.198 81.3638 162.197 81.2022 162.36 81.2022C162.441 81.2022 162.441 81.2022 162.441 81.283C162.441 81.4468 162.278 81.9339 161.953 82.422C161.547 83.1537 160.816 83.8875 160.165 83.8875C159.759 83.8875 159.515 83.561 159.515 83.1537C159.515 82.9101 159.677 82.422 159.84 81.9339C160.084 81.2022 160.328 80.3898 160.653 79.7389C160.815 79.17 160.897 78.8435 160.897 78.6807C160.897 78.5999 160.897 78.5191 160.735 78.5191C160.654 78.5191 160.49 78.6807 160.166 79.087C159.76 79.6581 159.76 79.9016 159.598 79.9016C159.516 79.9016 159.516 79.8208 159.516 79.74C159.516 79.5762 159.679 79.087 160.084 78.601C160.571 78.0321 161.142 77.462 161.791 77.462C162.196 77.4609 162.441 77.7034 162.441 78.1107Z" fill="#292930"/>
<path fill-rule="evenodd" clip-rule="evenodd" d="M167.478 79.169C167.478 80.308 166.016 83.56 164.797 83.56C164.391 83.56 164.229 83.3165 164.229 82.9911C164.229 81.8521 166.098 78.4352 166.991 78.4352C167.316 78.4352 167.478 78.6809 167.478 79.169ZM169.023 79.2498C169.023 78.4352 168.778 77.46 167.804 77.46C166.667 77.46 165.69 79.0849 165.122 79.7379L166.504 75.4255C166.667 74.7747 166.749 74.5323 166.749 74.4504C166.749 74.3674 166.749 74.2866 166.586 74.2866C166.586 74.2866 166.505 74.3674 166.424 74.3674C166.018 74.6131 165.448 74.7747 164.637 74.8555C164.312 74.8555 164.149 74.9385 164.149 75.1012C164.149 75.2639 164.312 75.2628 164.555 75.2628C164.799 75.3436 164.88 75.4244 164.88 75.6701C164.88 75.8318 164.799 75.9945 164.718 76.321C164.474 77.3792 163.743 79.3306 163.336 80.7939C163.175 81.447 163.092 82.0159 163.092 82.2594C163.092 83.3984 163.824 83.8865 164.717 83.8865C167.073 83.8865 169.023 81.364 169.023 79.2498Z" fill="#292930"/>
<path fill-rule="evenodd" clip-rule="evenodd" d="M169.673 83.0718C169.673 82.8283 169.753 82.5029 169.916 82.0158C170.242 81.1204 170.648 80.0622 170.973 79.3305C171.055 79.004 171.135 78.7616 171.135 78.6797C171.135 78.5978 171.135 78.5181 171.055 78.5181C170.892 78.5181 170.567 78.7616 170.323 79.1689C169.916 79.6571 169.835 79.9006 169.673 79.9006C169.592 79.9006 169.592 79.8198 169.592 79.739C169.592 79.4124 170.81 77.461 172.111 77.461C172.436 77.461 172.679 77.7045 172.679 78.1118C172.679 78.2735 172.598 78.6808 172.435 79.087C172.19 79.8209 171.785 80.7949 171.459 81.5288C171.297 82.0169 171.215 82.3413 171.215 82.504C171.215 82.6667 171.296 82.7497 171.459 82.7497C171.785 82.7497 172.353 82.1807 173.003 81.365C173.571 80.4717 174.222 79.2508 174.709 77.8672C174.709 77.7056 174.79 77.7056 174.954 77.6237C175.197 77.6237 175.685 77.6237 175.929 77.6237C176.09 77.6237 176.09 77.7045 176.09 77.7853C176.09 77.8661 176.09 78.031 176.01 78.1118C175.766 78.8435 175.034 80.7141 174.71 81.7723C174.629 82.0988 174.548 82.4232 174.548 82.504C174.548 82.6656 174.629 82.6656 174.71 82.6656C174.791 82.6656 175.035 82.504 175.442 81.9339C175.848 81.448 175.848 81.2831 176.011 81.2831C176.091 81.2831 176.173 81.2831 176.173 81.3639C176.173 81.6904 174.873 83.8876 173.573 83.8876C173.247 83.8876 173.004 83.6419 173.004 83.2367C173.004 82.8294 173.249 82.0977 173.491 81.2831C172.842 82.3413 171.378 83.8876 170.403 83.8876C169.916 83.8865 169.673 83.5611 169.673 83.0718Z" fill="#292930"/>
<path fill-rule="evenodd" clip-rule="evenodd" d="M176.58 83.1537C176.58 82.9102 176.661 82.4221 176.824 81.6904C177.069 81.0396 177.555 79.4125 178.043 78.1119H177.149C177.069 78.1119 177.069 78.1119 177.069 78.0311C177.149 77.9503 177.149 77.8673 177.149 77.7854C177.231 77.7046 177.231 77.7046 177.312 77.7046H178.123L178.775 75.9147C178.775 75.7531 178.855 75.6712 178.936 75.6712C179.099 75.6712 179.262 75.6712 179.424 75.6712C179.585 75.6712 179.749 75.6712 179.91 75.6712C180.073 75.6712 180.073 75.6712 180.073 75.752C180.073 75.8328 180.073 75.9955 179.992 76.2402C179.91 76.5645 179.667 77.1334 179.505 77.7035H180.562C180.642 77.7035 180.642 77.7035 180.642 77.7843C180.562 77.8651 180.562 77.9481 180.562 78.03C180.562 78.1119 180.481 78.1108 180.399 78.1108H179.424C178.855 79.7379 178.53 80.7131 178.367 81.3639C178.122 82.0978 178.042 82.3413 178.042 82.5029C178.042 82.6645 178.122 82.7486 178.204 82.7486C178.366 82.7486 178.529 82.5848 178.854 82.1797C179.261 81.5288 179.342 81.2023 179.505 81.2023C179.585 81.2023 179.585 81.2831 179.585 81.3639C179.585 81.5277 179.424 81.9329 179.099 82.3413C178.611 83.0729 177.88 83.8876 177.23 83.8876C176.742 83.8865 176.58 83.6419 176.58 83.1537Z" fill="#292930"/>
<path fill-rule="evenodd" clip-rule="evenodd" d="M183.812 75.6711C183.812 76.0763 183.487 76.6463 182.918 76.6463C182.593 76.6463 182.35 76.4028 182.35 76.0773C182.35 75.5084 182.756 74.9406 183.243 74.9406C183.568 74.9406 183.812 75.1841 183.812 75.5914V75.6711ZM183.162 78.1107C183.162 78.2723 183.081 78.7616 182.918 79.1689C182.593 80.0622 182.268 80.8768 182.025 81.7712C181.862 82.0977 181.78 82.3401 181.78 82.5028C181.78 82.5836 181.861 82.6644 181.943 82.6644C182.104 82.6644 182.349 82.4209 182.755 81.7712C182.999 81.3638 182.999 81.2022 183.08 81.2022C183.16 81.2022 183.242 81.2022 183.242 81.283C183.242 81.4468 183.08 81.9339 182.755 82.422C182.268 83.1537 181.617 83.8875 180.886 83.8875C180.48 83.8875 180.318 83.561 180.318 83.1537C180.318 82.9101 180.398 82.422 180.562 81.9339C180.887 81.2022 181.13 80.3898 181.374 79.7389C181.618 79.17 181.699 78.8435 181.699 78.6807C181.699 78.5999 181.618 78.5191 181.537 78.5191C181.375 78.5191 181.212 78.6807 180.969 79.087C180.562 79.6581 180.481 79.9016 180.399 79.9016C180.319 79.9016 180.238 79.8208 180.238 79.74C180.238 79.5762 180.482 79.087 180.888 78.601C181.294 78.0321 181.945 77.462 182.594 77.462C182.918 77.4609 183.162 77.7034 183.162 78.1107Z" fill="#292930"/>
<path fill-rule="evenodd" clip-rule="evenodd" d="M187.713 79.0051C187.713 79.739 187.225 81.2023 186.9 81.9339C186.494 82.9113 186.007 83.4802 185.601 83.4802C185.113 83.4802 184.869 83.1537 184.869 82.4221C184.869 81.6904 185.357 80.2249 185.682 79.4933C186.169 78.4351 186.575 77.8661 186.982 77.8661C187.47 77.8661 187.713 78.1926 187.713 79.0051ZM188.933 79.9006C188.933 78.3543 188.201 77.461 186.9 77.461C185.112 77.461 183.65 79.4933 183.65 81.4469C183.65 82.9102 184.381 83.8865 185.681 83.8865C186.657 83.8865 187.47 83.3175 188.118 82.5018C188.606 81.7712 188.933 80.7939 188.933 79.9006Z" fill="#292930"/>
<path fill-rule="evenodd" clip-rule="evenodd" d="M195.92 78.3543C195.92 78.6 195.839 78.8424 195.675 79.2497C195.431 80.143 195.025 81.0396 194.7 81.852C194.537 82.3402 194.456 82.5029 194.456 82.5837C194.456 82.7475 194.536 82.8294 194.618 82.8294C194.861 82.8294 195.105 82.5029 195.43 82.0977C195.837 81.5288 195.837 81.2831 195.998 81.2831C196.08 81.2831 196.161 81.2831 196.161 81.4469C196.161 81.6085 195.916 82.0158 195.592 82.5029C195.105 83.1537 194.374 83.8876 193.642 83.8876C193.236 83.8876 192.992 83.561 192.992 83.1537C192.992 82.8294 193.154 82.1785 193.479 81.5288C193.804 80.5514 194.129 79.9017 194.291 79.4125C194.373 79.0859 194.453 78.8435 194.453 78.6808C194.453 78.4351 194.291 78.3543 194.128 78.3543C193.803 78.3543 193.235 78.9232 192.503 79.9006C191.934 80.7939 191.284 82.3402 190.878 83.3983C190.798 83.7227 190.716 83.7227 190.392 83.7227H189.741C189.578 83.7227 189.496 83.6419 189.496 83.6419C189.496 83.5611 189.577 83.2367 189.659 82.991C190.065 81.9328 190.472 80.6322 190.877 79.4125C190.958 79.0859 191.039 78.8435 191.039 78.6808C191.039 78.6 190.958 78.5192 190.796 78.5192C190.633 78.5192 190.39 78.7627 190.064 79.2508C189.819 79.5752 189.738 79.8198 189.576 79.8198C189.495 79.8198 189.414 79.8198 189.414 79.739C189.414 79.5752 189.659 79.0859 189.983 78.6808C190.47 78.1118 191.121 77.461 191.771 77.461C192.177 77.461 192.421 77.7045 192.421 78.1118C192.421 78.3554 192.34 78.6808 192.26 79.0051C192.178 79.4933 191.934 79.9825 191.854 80.3079H191.934C192.421 79.3305 193.803 77.461 195.102 77.461C195.59 77.461 195.915 77.7853 195.915 78.2735V78.3543H195.92Z" fill="#292930"/>
</svg>
