<svg width="186" height="86" fill="none" xmlns="http://www.w3.org/2000/svg"><path d="M89.61 37.9c0 3.074-2.096 5.137-6.744 5.137h-8.712v-19.04h8.455c4.033 0 6.195 1.841 6.195 4.978 0 2.233-1.29 3.783-3.322 4.3 2.674.551 4.128 2.366 4.128 4.626zm-10.23-5.982h2.035c1.357 0 2.196-.519 2.196-1.811 0-1.292-.839-1.811-2.196-1.811H79.38v3.622zm0 6.756h2.744c1.32 0 2.065-.58 2.065-1.677 0-1.102-.745-1.684-2.065-1.684H79.38v3.361zm20.525 1.588c-.421 1.972-1.935 3.164-4.488 3.164-2.71 0-4.612-1.678-4.612-5.203v-10.12h5.227v9.019c0 1.49.418 2.394 1.614 2.394 1.356 0 2.198-1.23 2.198-3.653v-7.76h5.227v14.935h-4.682l-.484-2.776zM110.39 37.9c.291 1.228 1.226 1.874 2.356 1.874.936 0 1.581-.324 1.581-.97 0-.647-.549-.938-1.614-1.165l-1.999-.422c-2.71-.583-4.134-1.972-4.134-4.43 0-3.619 3.101-5.041 6.423-5.041 3.583 0 5.745 1.486 6.26 4.268l-4.746.713c-.16-.84-.672-1.326-1.677-1.326-.739 0-1.257.355-1.257.938 0 .582.418.873 1.19 1l2.005.356c3.288.549 4.678 2.327 4.678 4.85 0 3.523-3.067 4.879-6.743 4.879-3.389 0-5.648-1.226-6.487-3.877l4.164-1.647zm13.162-16.264c1.55 0 2.873 1.068 2.873 2.748 0 1.681-1.32 2.75-2.873 2.75-1.548 0-2.871-1.069-2.871-2.75 0-1.68 1.323-2.748 2.871-2.748zm2.616 6.468v14.935h-5.193V28.104h5.193zm7.422 2.876c.775-2.233 2.519-3.235 4.742-3.235 2.293 0 4.358 1.357 4.358 4.788v10.506h-5.194v-8.5c0-1.52-.454-2.458-1.774-2.458-1.13 0-2.099.68-2.099 2.976v7.982h-5.199V28.103h4.681l.485 2.877zm20.295 6.663l4.324 1.359c-.842 3.2-3.488 4.426-6.456 4.426-4.418 0-7.646-2.81-7.646-7.694 0-5.042 2.837-7.984 7.516-7.984 4.421 0 6.68 2.845 6.68 6.983 0 .55 0 1.199-.063 1.875h-9.103c.1 1.845.999 2.843 2.549 2.843 1.103 0 1.845-.486 2.199-1.808zm-.515-3.686c0-1.296-.451-2.427-1.905-2.427-1.259 0-2.062 1.034-2.192 2.427h4.097zm9.711 3.943c.291 1.228 1.224 1.874 2.353 1.874.936 0 1.584-.324 1.584-.97 0-.647-.548-.938-1.611-1.165l-2.005-.422c-2.71-.583-4.127-1.972-4.127-4.43 0-3.619 3.098-5.041 6.423-5.041 3.582 0 5.744 1.486 6.259 4.268l-4.745.713c-.161-.84-.679-1.326-1.681-1.326-.742 0-1.26.355-1.26.938 0 .582.421.873 1.193 1l2.005.356c3.292.549 4.679 2.327 4.679 4.85 0 3.523-3.068 4.879-6.744 4.879-3.389 0-5.648-1.226-6.49-3.877l4.167-1.647zm13.81 0c.291 1.228 1.23 1.874 2.356 1.874.936 0 1.584-.324 1.584-.97 0-.647-.548-.938-1.617-1.165l-1.999-.422c-2.71-.583-4.133-1.972-4.133-4.43 0-3.619 3.101-5.041 6.423-5.041 3.582 0 5.744 1.486 6.259 4.268l-4.742.713c-.161-.84-.675-1.326-1.678-1.326-.742 0-1.257.355-1.257.938 0 .582.418.873 1.191 1l2.001.356c3.295.549 4.682 2.327 4.682 4.85 0 3.523-3.068 4.879-6.744 4.879-3.389 0-5.648-1.226-6.49-3.877l4.164-1.647zm-92.09 28.195c-.612-.52-.836-1.226-1.063-2.133l-.584-2.36c-.321-1.36-.87-1.614-2.099-1.614h-1.644v6.11h-5.257V47.06h8.13c4.258 0 7.196 1.647 7.196 5.98 0 3.003-1.935 4.49-4.034 4.844 1.741.358 2.613 1.129 3.068 2.782l.899 3.265c.227.84.485 1.49 1.163 2.166H84.8v-.003zm-5.387-10.376h2.035c1.838 0 2.646-.746 2.646-2.1 0-1.361-.808-2.105-2.646-2.105h-2.035v4.205zm20.621 4.976l4.321 1.353c-.839 3.204-3.489 4.433-6.453 4.433-4.419 0-7.647-2.813-7.647-7.697 0-5.042 2.84-7.982 7.52-7.982 4.421 0 6.677 2.843 6.677 6.978 0 .552 0 1.198-.064 1.875h-9.097c.097 1.841.997 2.842 2.547 2.842 1.096.003 1.841-.476 2.196-1.802zm-.515-3.689c0-1.29-.454-2.42-1.905-2.42-1.257 0-2.065 1.034-2.195 2.42h4.1zm4.549-5.847h5.482l1.711 6.013c.614 2.166.969 3.656.969 3.656h.066s.321-1.49 1.003-3.656l1.935-6.013h5.066l-5.421 14.935h-5.614l-5.197-14.935zm19.936-6.46c1.547 0 2.874 1.069 2.874 2.746 0 1.684-1.327 2.746-2.874 2.746-1.547 0-2.871-1.062-2.871-2.746 0-1.677 1.324-2.745 2.871-2.745zm2.613 6.46v14.935h-5.193V51.159h5.193zm11.39 9.536l4.322 1.353c-.839 3.204-3.483 4.433-6.454 4.433-4.418 0-7.646-2.813-7.646-7.697 0-5.042 2.838-7.982 7.519-7.982 4.418 0 6.681 2.843 6.681 6.978 0 .552 0 1.198-.067 1.875h-9.097c.094 1.841.996 2.842 2.55 2.842 1.099.003 1.841-.476 2.192-1.802zm-.511-3.689c0-1.29-.452-2.42-1.905-2.42-1.26 0-2.069 1.034-2.196 2.42h4.101zm18.873-5.847l1.063 5.203c.548 2.685.839 4.69.839 4.69h.064s.321-1.972.935-4.626l1.196-5.267h5.064l-4.034 14.935h-5.838l-.906-4.365c-.451-2.203-.808-4.788-.808-4.788h-.064s-.354 2.585-.806 4.788l-.902 4.365h-5.808l-4.034-14.935h5.26l1.193 5.267c.615 2.651.936 4.626.936 4.626h.067s.29-2.002.839-4.69l1.066-5.203h4.678zm-50.589-36.094c0 .71.197 1.098.742 1.098.321 0 .645-.127.936-.29v3.685c-.709.519-1.384.713-2.58.713-2.002 0-3.098-.907-3.679-2.36-.839 1.553-2.163 2.427-4.291 2.427-2.741 0-4.455-1.617-4.455-4.172 0-3.2 2.29-4.817 6.777-4.817h1.517v-1.001c0-.971-.321-1.65-1.256-1.65-.906 0-1.324.548-1.39 1.78l-4.97-.777c.294-3.073 2.68-5.011 6.52-5.011 4.261 0 6.129 1.875 6.129 5.142v5.233zm-5.033-1.068h-.675c-1.871 0-2.52.58-2.52 1.55 0 .713.485 1.263 1.39 1.263.873 0 1.805-.452 1.805-1.842v-.97zm17.717-3.072c-.612-.227-.969-.388-1.805-.388-1.226 0-2.71.485-2.71 3.137v6.307h-5.2V5.043h4.455l.518 3.686c.418-2.491 2.516-3.686 5.066-3.686l-.324 5.882zm.825-5.886h5.488l1.707 6.016c.612 2.166.967 3.652.967 3.652h.066s.321-1.486.999-3.652l1.936-6.016h5.066l-5.421 14.938h-5.614L119.29 5.039zm28.751 10.026c0 .71.194 1.098.742 1.098.324 0 .645-.127.936-.29v3.685c-.709.519-1.387.713-2.583.713-1.999 0-3.098-.907-3.68-2.36-.838 1.553-2.159 2.427-4.288 2.427-2.743 0-4.454-1.617-4.454-4.172 0-3.2 2.286-4.817 6.774-4.817h1.517v-1.001c0-.971-.321-1.65-1.257-1.65-.905 0-1.326.548-1.39 1.78l-4.969-.777c.291-3.073 2.68-5.011 6.52-5.011 4.261 0 6.132 1.875 6.132 5.142v5.233zm-5.714-1.068c-1.869 0-2.514.58-2.514 1.55 0 .713.485 1.263 1.387 1.263.872 0 1.808-.452 1.808-1.842v-.97h-.681zm18.392-3.072c-.612-.227-.963-.388-1.805-.388-1.224 0-2.711.485-2.711 3.137v6.307h-5.193V5.043h4.455l.514 3.686c.421-2.491 2.52-3.686 5.067-3.686l-.327 5.882zM177.276 0v19.98h-4.712l-.484-2.588c-.549 2.006-2.323 2.977-4.585 2.977-3.486 0-5.972-2.716-5.972-7.566 0-5.012 2.389-8.116 6.583-8.116 1.908 0 3.419.874 3.937 2.297V0h5.233zm-5.196 11.44c0-1.905-.936-2.94-2.453-2.94-1.515 0-2.808 1.132-2.808 4.108 0 2.458 1.036 3.75 2.744 3.75 1.323 0 2.517-1.001 2.517-3.037v-1.88zm-97.926 8.541V.936h5.29v7.08h6.52V.936h5.29v19.042h-5.29v-7.372h-6.52v7.372l-5.29.003zM18.033 39.19c.415-.372 1.118-1.33 1.396-1.384.274-.052.235.38.119.503-.156.192-.64.88-.912 1.202-.35.387-.446 1.116.155 1.4.604.28 1.222-.087 1.203-.407-.022-.488.28-1.889.538-1.889.203 0 .218.36.184.765.09.822-.462 1.476-.395 1.904.067.42.157.824.88.842.726.013.81-.421.88-.842.07-.428-.482-1.08-.391-1.904-.028-.404-.02-.765.185-.765.26 0 .562 1.401.539 1.89-.013.317.603.686 1.21.405.604-.28.499-1.012.156-1.399-.28-.321-.763-1.01-.912-1.202-.116-.123-.161-.557.117-.503.278.054.987 1.012 1.394 1.384.416.37.69-.45.899-.864.312-.894-1.207-.924-1.673-1.177-.756-.397-1.33-1.543-1.471-2.34-.177-1.03-.388-1.483-.927-1.472-.532.021-.752.445-.929 1.472-.142.797-.717 1.945-1.467 2.34-.47.253-1.987.283-1.673 1.177.205.414.479 1.237.895.864z" fill="#292930"/><path d="M0 .941v27.433c.075 39.288 32.355 56.14 32.553 56.241l.502.273.957.505 1.431-.75c.24-.131 32.495-16.983 32.57-56.269V.941H0zm65.99 27.433c-.026 38.016-31.394 54.391-31.486 54.443l-.483.257-.474-.257c-.093-.05-31.459-16.427-31.491-54.443v-1.03h20.196a5.304 5.304 0 0 0-.8 2.062c-.348 2.073.656 4.266 4.442 4.46.072 3.11.832 4.38 4.765 4.45-.343 3.307 1.381 4.383 3.25 4.383 1.86 0 3.586-1.076 3.243-4.383 3.933-.07 4.698-1.34 4.758-4.45 3.784-.196 4.797-2.387 4.446-4.46a5.372 5.372 0 0 0-.802-2.062h20.432v1.03h.004zm.039-3.098H1.907V2.971h64.12l.002 22.305z" fill="#292930"/><path d="M19.513 35.424c.051-.438.295-.943-.19-.894-.52.056-.92.134-.455.765.47.626.587.572.645.13zm-.084 24.943c.465.628.584.576.636.138.049-.447.293-.948-.19-.894-.524.058-.916.138-.446.756zm4.086-25.025c.465-.616.071-.702-.448-.762-.479-.048-.244.464-.19.895.054.445.166.49.638-.133zm-.082 25.217c.053.434.172.485.64-.143.467-.613.07-.684-.449-.76-.487-.045-.245.462-.191.903zm13.066-12.68c.46-.617.066-.695-.453-.749-.485-.056-.237.445-.185.887.053.439.163.493.638-.138z" fill="#292930"/><path d="M31.008 51.733c.41-.376 1.118-1.33 1.394-1.39.28-.05.237.368.123.506-.155.186-.638.881-.912 1.2-.347.394-.454 1.108.151 1.398.604.282 1.229-.085 1.207-.406-.02-.492.274-1.885.537-1.885.204 0 .215.356.19.75.083.839-.468 1.491-.393 1.919.06.414.147.822.877.837.718.013.808-.42.88-.837.068-.426-.483-1.08-.401-1.92-.029-.395-.022-.749.185-.749.26 0 .567 1.395.536 1.885-.012.322.608.689 1.212.406.599-.292.502-1.006.159-1.397-.278-.317-.76-1.015-.914-1.2-.118-.139-.161-.56.12-.508.27.059.981 1.015 1.395 1.39.41.37.685-.453.899-.863.308-.9-1.205-.935-1.677-1.183-.752-.395-1.327-1.548-1.467-2.343-.175-1.019-.397-1.483-.93-1.465-.536.021-.758.447-.939 1.465-.131.793-.71 1.946-1.46 2.343-.475.248-1.983.283-1.677 1.183.21.41.493 1.233.905.864zM44.92 35.424c.045-.436.295-.943-.192-.894-.52.054-.913.134-.446.764.463.627.584.573.638.13z" fill="#292930"/><path d="M32.486 47.964c.056-.431.296-.945-.183-.89-.526.057-.92.141-.45.763.465.62.586.568.633.127zm-10.73 5.871c1.31.468 4.136-.212 4.485-2.7.345-2.49-1.655-3.977-4.553-3.975.349-3.506-1.864-4.517-4.494-4.314.352-3.51-1.443-4.654-4.549-4.523.414-4.106-2.349-4.58-4.486-4.44.318-3.06-1.845-4.314-3.326-4.476H4.18c-.017 0-.04.009-.062.009.211 14.065 4.907 24.985 10.531 33.1 2.571-.48 2.948-2.474 2.754-4.236 3.46.408 4.828-2.09 4.354-4.445zm27.169 6.58c.459-.613.073-.684-.45-.76-.49-.045-.244.462-.188.903.052.436.172.486.638-.143zm-28.05 5.939c.064.408.157.82.883.842.722.009.808-.43.883-.842.065-.423-.489-1.084-.407-1.906-.022-.395-.013-.76.196-.76.265 0 .556 1.397.535 1.887-.015.326.607.684 1.206.403.608-.285.503-1.006.155-1.394-.273-.32-.754-1.017-.911-1.199-.116-.14-.155-.556.119-.509.277.063.984 1.019 1.402 1.39.41.367.688-.462.897-.865.306-.886-1.207-.924-1.677-1.175-.754-.397-1.327-1.554-1.463-2.344-.183-1.021-.399-1.477-.935-1.464-.539.015-.754.443-.935 1.464-.136.79-.712 1.947-1.468 2.344-.465.248-1.98.287-1.67 1.172.207.406.48 1.233.894.866.416-.371 1.123-1.33 1.403-1.39.274-.046.229.369.117.51-.158.18-.64.876-.916 1.198-.34.39-.449 1.11.157 1.394.601.283 1.226-.075 1.211-.403-.032-.49.274-1.887.53-1.887.211 0 .22.364.192.76.086.822-.465 1.483-.399 1.908zm28.05-31.014c.459-.615.071-.701-.45-.76-.49-.05-.244.465-.188.897.052.444.172.49.638-.136z" fill="#292930"/><path d="M45.677 34.806c-.136.799-.711 1.945-1.465 2.34-.468.255-1.983.283-1.669 1.177.21.416.483 1.237.893.863.416-.371 1.129-1.327 1.403-1.384.273-.051.228.378.12.503-.153.19-.638.881-.916 1.205-.342.384-.448 1.116.153 1.397.61.283 1.222-.084 1.212-.406-.022-.488.273-1.889.532-1.889.22 0 .224.36.194.764.086.82-.47 1.475-.401 1.902.075.421.16.825.888.844.717.011.808-.423.875-.844.075-.427-.487-1.08-.397-1.902-.028-.406-.017-.764.192-.764.265 0 .558 1.403.539 1.889-.02.32.603.687 1.202.406.606-.28.507-1.013.162-1.405-.278-.316-.76-1.007-.92-1.197-.114-.125-.151-.557.12-.503.28.057.985 1.013 1.399 1.384.416.367.687-.449.9-.863.307-.894-1.206-.922-1.674-1.177-.752-.395-1.33-1.541-1.46-2.34-.193-1.028-.406-1.481-.936-1.472-.543.023-.77.444-.946 1.472zm.935 12.354c-2.903 0-4.902 1.485-4.56 3.974.34 2.491 3.172 3.17 4.483 2.7-.477 2.358.905 4.852 4.353 4.448-.186 1.701.187 3.595 2.521 4.173 5.62-8.104 10.314-18.996 10.519-33.044h-.468c-1.476.156-3.648 1.416-3.319 4.474-2.142-.136-4.907.336-4.49 4.44-3.11-.134-4.901 1.015-4.556 4.523-2.62-.203-4.83.806-4.483 4.312zm-4.348 20.29c.756-4.053-2.351-5.184-4.698-4.512.27-2.64-1.315-4.38-3.455-4.38-2.135 0-3.725 1.741-3.454 4.38-2.34-.674-5.452.457-4.694 4.512-2.769-.944-4.9.585-4.9 2.899 5.82 6.054 11.303 9.439 12.939 10.373 1.61-.945 7.2-4.38 13.134-10.572-.133-2.204-2.194-3.611-4.872-2.7z" fill="#292930"/><path d="M49.007 62.224c-.752-.397-1.33-1.552-1.461-2.342-.19-1.021-.403-1.48-.936-1.464-.534.015-.76.443-.94 1.464-.133.79-.71 1.947-1.462 2.342-.468.253-1.985.292-1.67 1.177.209.403.482 1.232.892.863.416-.369 1.129-1.325 1.403-1.386.273-.047.228.365.12.508-.153.18-.638.876-.916 1.196-.342.39-.448 1.111.153 1.396.61.283 1.222-.077 1.212-.403-.022-.49.273-1.887.532-1.887.217 0 .222.362.194.758.088.822-.468 1.483-.399 1.908.073.408.157.82.888.84.718.01.808-.43.873-.84.075-.425-.485-1.084-.395-1.908-.03-.393-.02-.758.192-.758.263 0 .558 1.397.537 1.887-.017.323.605.684 1.204.403.606-.287.505-1.006.16-1.396-.278-.318-.759-1.017-.92-1.196-.115-.143-.153-.557.12-.508.278.059.985 1.017 1.399 1.386.416.37.687-.462.9-.863.302-.885-1.21-.924-1.68-1.177z" fill="#292930"/><path d="M44.921 60.505c.045-.447.295-.948-.192-.894-.52.056-.913.136-.446.756.463.628.584.574.638.138zM39.852 8.902h-.6c.014.037.029.072.038.123v9.096c0 .06-.015.11-.037.157l.81.683V9.088c.002-.067-.099-.186-.211-.186z" fill="#292930"/><path d="M39.86 19.518h-5.092a1.05 1.05 0 0 1-.188.427h6.22c.157 0 .28-.133.28-.282v-1.49c.42-.06.732-.313.732-.622 0-.304-.314-.565-.732-.626v-4.801c.42-.063.732-.313.732-.624 0-.313-.314-.564-.732-.622V8.974a.278.278 0 0 0-.28-.279l-.541.102a.461.461 0 0 1 .105.29v9.962c-.002.275-.237.469-.504.469zM25.767 17.55c0 .309.32.568.746.622v1.49a.28.28 0 0 0 .271.282h6.295a.973.973 0 0 1-.187-.425h-4.836c-.267 0-.5-.194-.5-.468V9.088c0-.086.021-.164.064-.228l-.836-.165a.27.27 0 0 0-.271.279v1.902c-.427.06-.746.31-.746.624 0 .309.32.561.746.622v4.803c-.429.058-.746.322-.746.626z" fill="#292930"/><path d="M38.865 18.542h-4.513c.229.151.38.393.42.671H39.887l-.84-.71a.468.468 0 0 1-.181.04zm-27.942-9.64c-.237.002-.437.002-.595.002-.118 0-.21.12-.21.184l.001 9.814.79-.669a.382.382 0 0 1-.022-.11V9.025a.32.32 0 0 1 .036-.123zm22.25 10.443c0 .268.16.49.37.6h.565a.664.664 0 0 0 .375-.6.653.653 0 0 0-.653-.648.657.657 0 0 0-.657.648zm5.681-10.39a.888.888 0 0 0-.276-.082c-.263 0-.67-.017-1.137-.017-.716 0-1.571.058-2.222.335-.657.272-1.104.723-1.11 1.576l-.002 7.47h4.76c.063 0 .117-.05.117-.117V9.037l-.01-.008a.452.452 0 0 0-.12-.074zm-1.538 2.682c-.229.008-.457.015-.457.455v3.185c0 .423.191.449.457.47v.17h-1.677v-.17c.256-.032.444-.058.444-.47V12.09c0-.427-.222-.442-.444-.455v-.175h1.677v.177zm-6.129.048c-.269 0-.28.07-.303.281v1.673c.633-.006.877-.151.877-1.002 0-.662-.196-.952-.573-.952zm-9.06 7.833h-5.096c-.034.16-.099.304-.19.427h6.222a.283.283 0 0 0 .278-.282v-1.49c.418-.06.737-.313.737-.622 0-.304-.317-.565-.737-.626v-4.801c.416-.063.737-.313.737-.624 0-.313-.321-.564-.737-.622V8.974a.276.276 0 0 0-.278-.279l-.543.102c.06.078.105.177.105.29v9.962c0 .275-.237.469-.497.469z" fill="#292930"/><path d="M21.513 18.291l.815.691V9.088c0-.067-.104-.184-.215-.184-.16 0-.363 0-.6-.002a.246.246 0 0 1 .04.123v9.096c0 .06-.018.116-.04.17zm-.392.25h-4.506a.978.978 0 0 1 .418.672h5.105l-.836-.702a.538.538 0 0 1-.181.03zm-13.092-.99c0 .309.324.568.744.622v1.49c0 .149.12.282.278.282h6.288a.9.9 0 0 1-.185-.425H10.32c-.267 0-.502-.194-.504-.468V9.088a.447.447 0 0 1 .069-.228l-.832-.165a.277.277 0 0 0-.28.279v1.902c-.416.06-.741.31-.741.624 0 .309.325.561.74.622v4.803c-.42.058-.743.322-.743.626z" fill="#292930"/><path d="M14.973 9.19c-.653-.27-1.495-.334-2.202-.334-.483 0-.886.03-1.157.03a.91.91 0 0 0-.244.05c-.086.034-.16.086-.183.1v9.082c0 .067.056.116.13.116h4.747v-7.47h.002c-.006-.848-.446-1.286-1.093-1.573zm.112 2.473c-.26.04-.319.17-.43.54l-1.093 3.868h-.13l-1.22-3.95c-.122-.398-.2-.417-.4-.458v-.167h1.608v.167c-.3.023-.416.023-.416.27 0 .125.101.408.146.567l.623 2.08.612-2.162c.041-.15.093-.324.093-.457 0-.26-.14-.279-.412-.298v-.167h1.02v.167zM10.235 19.2c.02.013.047.013.086.013h4.83a.977.977 0 0 1 .422-.672H11.32a.43.43 0 0 1-.237-.069l-.85.728zm5.203.144c.002.268.155.49.373.6h.56a.655.655 0 0 0-.28-1.248.653.653 0 0 0-.653.648zm5.672-10.39a.887.887 0 0 0-.276-.082c-.265 0-.67-.017-1.131-.017-.718 0-1.573.058-2.233.335-.653.272-1.097.723-1.1 1.576l-.005 7.47h4.752c.07 0 .127-.05.127-.117V9.037l-.011-.008a.47.47 0 0 0-.123-.074zm-1.05 7.086h-2.805v-.166c.276-.04.426-.065.426-.46V12.22c0-.437-.2-.445-.426-.467v-.17h2.76v1.33h-.118c-.106-.935-.448-1.101-1.09-1.101-.268 0-.35.023-.35.306v1.53c.46.007.7-.165.776-.984h.119v2.228h-.119c-.06-.829-.306-1.023-.776-1.023v1.595c0 .292.089.367.399.367.476 0 .957-.168 1.256-1.17h.138l-.19 1.38zM32.72 9.19c-.648-.27-1.5-.335-2.204-.335-.48 0-.895.03-1.16.03a.924.924 0 0 0-.245.05c-.084.034-.153.086-.18.1h.003v9.082c0 .067.056.116.13.116h4.742v-7.47c-.004-.848-.441-1.286-1.086-1.573zm.265 6.729h-.98l-.994-2.068h-.129v1.293c0 .527.11.546.42.604h.002v.173H29.69v-.173c.321-.05.423-.073.423-.604V12.23c0-.563-.151-.576-.423-.593v-.177h1.541c.336 0 1.345.05 1.345 1.157 0 .814-.492 1.014-.748 1.131l.961 1.876c.065.123.138.123.196.123v.173zm23.622 2.613h-4.536c.237.142.4.384.448.66h5.045l-.817-.69a.266.266 0 0 1-.14.03zm-5.754-4.182h.933l-.478-1.596-.455 1.596zm.715 4.346a.658.658 0 1 0-.278 1.248h.558a.673.673 0 0 0 .377-.6.651.651 0 0 0-.657-.648z" fill="#292930"/><path d="M56.599 8.94c-.093-.037-.225-.08-.261-.071-.037 0-.078-.009-.12-.009h-.104c-.908 0-2.005.065-2.84.384-.848.326-1.416.842-1.423 1.816h-.304c0-.974-.575-1.49-1.413-1.816-.843-.317-1.931-.384-2.85-.384h-.042c-.05 0-.108.009-.151.009-.07-.018-.375.106-.416.157h.002v9.076c0 .076.054.134.12.134h9.808c.063 0 .123-.058.123-.134V9.035c-.005-.006-.009-.009-.013-.022a.497.497 0 0 0-.117-.073zm-6.84 3.851c-.095-1.057-.59-1.1-.92-1.116v3.47c0 .557.114.572.474.604v.173h-1.714v-.173c.354-.037.464-.05.464-.604v-3.47c-.337.015-.826.056-.914 1.116h-.142l.013-1.33h2.877l.004 1.33h-.142zm3.49 3.11h-1.544v-.156c.295-.032.375-.043.375-.261 0-.18-.147-.672-.212-.883h-1.077c-.136.479-.216.749-.216.861 0 .25.229.268.395.28l.002.156h-.97v-.155c.259-.052.321-.279.472-.777l1.06-3.608h.134l1.062 3.467c.218.702.291.933.52.918v.157zm1.621.027c-.459 0-.67-.226-.82-.226-.1 0-.121.116-.145.224h-.138v-1.63h.138c.097.66.375 1.414.987 1.414.577 0 .592-.654.592-.749 0-.436-.224-.596-.532-.796l-.319-.208c-.82-.54-.82-1.103-.82-1.407 0-.406.143-1.304 1.057-1.304.382 0 .61.22.744.22.114 0 .136-.097.164-.229h.135v1.434h-.13c-.087-.458-.376-1.214-.943-1.214-.241 0-.506.199-.506.626 0 .357.09.501.495.775l.696.48c.17.108.53.492.53 1.207 0 .585-.306 1.383-1.185 1.383zM45.75 19.19c.017 0 .032.004.051.004h4.83c.05-.274.22-.518.448-.662H46.8a.404.404 0 0 1-.211-.059l-.84.717zm.665-10.314c-.235.011-.446.011-.607.011-.119.002-.207.106-.207.181l.002 9.847.793-.678a.364.364 0 0 1-.024-.138V9.01a.28.28 0 0 1 .043-.134z" fill="#292930"/><path d="M57.604 19.496H52.52a.993.993 0 0 1-.196.45h6.224c.153 0 .269-.134.269-.283v-1.49c.425-.05.746-.313.746-.622 0-.304-.322-.565-.746-.626v-4.801c.425-.063.746-.316.746-.624 0-.313-.322-.564-.746-.624V8.974a.27.27 0 0 0-.27-.279l-.523.102c.052.078.09.168.09.272v9.959c-.004.276-.243.468-.51.468zM28.669 8.902c-.237.002-.438.002-.601.002-.119 0-.214.12-.214.184v9.842l.802-.677a.336.336 0 0 1-.03-.13V9.025a.286.286 0 0 1 .043-.123zm-.68 10.3c.024.012.043.012.063.012h4.834a.966.966 0 0 1 .424-.672h-4.252a.386.386 0 0 1-.217-.056l-.852.717zm15.522-1.65c0 .308.315.567.74.621v1.49a.29.29 0 0 0 .275.282h6.297a1.07 1.07 0 0 1-.198-.449h-4.832c-.267 0-.493-.192-.5-.462V9.071a.505.505 0 0 1 .059-.211l-.824-.165a.28.28 0 0 0-.276.279v1.902c-.422.06-.739.31-.739.624 0 .309.315.561.74.622v4.803c-.425.058-.742.322-.742.626z" fill="#292930"/><path d="M56.972 18.304l.834.702V9.068c0-.073-.097-.179-.215-.18-.166 0-.367 0-.6-.012.016.04.03.08.04.132v9.089a.372.372 0 0 1-.059.207z" fill="#292930"/></svg>