<svg width="86" height="28" fill="none" xmlns="http://www.w3.org/2000/svg"><path d="M53.44 22.41a.44.44 0 0 0 .464-.46V8.43h4.554c.27 0 .456-.19.456-.46V6.104c0-.272-.186-.46-.456-.46H46.325c-.273 0-.457.188-.457.46v1.868c0 .27.184.46.457.46h4.558V21.95c0 .273.186.46.456.46h2.1zm20.772-.585c.272.293.104.586-.228.586h-2.642c-.352 0-.542-.082-.773-.356l-1.58-1.762c-1.063 1.428-2.538 2.496-4.998 2.496-3.037 0-5.43-1.844-5.43-5.01 0-2.43 1.293-3.73 3.248-4.822-.96-1.107-1.398-2.285-1.398-3.31 0-2.6 1.811-4.382 4.539-4.382 2.788 0 4.495 1.657 4.495 4.11 0 2.096-1.497 3.266-3.08 4.15l2.333 2.534 1.312-2.306c.165-.27.352-.375.684-.375h2.02c.33 0 .518.23.313.585l-2.333 4.026 3.518 3.836zm-9.22-13.96c-1.082 0-1.706.691-1.706 1.614 0 .713.375 1.341 1.227 2.262 1.478-.862 2.105-1.382 2.105-2.305 0-.86-.542-1.57-1.625-1.57zm-.935 12.284c1.331 0 2.224-.651 2.955-1.762l-3.37-3.649c-1.292.736-2.128 1.47-2.128 2.935 0 1.447 1.166 2.477 2.543 2.477zm-16.169 1.72c.104.269-.062.541-.352.541h-2.167c-.31 0-.498-.145-.603-.44l-1.227-3.563h-6.723l-1.227 3.563c-.105.295-.29.44-.604.44h-2.039c-.27 0-.457-.273-.355-.542L38.233 6.06c.102-.293.291-.417.601-.417h2.79c.313 0 .522.125.623.417l5.64 15.808zm-5.308-6.207l-2.391-6.92-2.415 6.92h4.806zm34.92 6.749c-.27 0-.456-.188-.456-.461V8.43h-4.557a.438.438 0 0 1-.46-.46V6.104c0-.272.186-.46.46-.46H84.62c.271 0 .456.188.456.46v1.868c0 .27-.184.46-.456.46h-4.559V21.95c0 .273-.185.46-.456.46h-2.104z" fill="#252122"/><path d="M21.01 1.975A13.664 13.664 0 0 0 13.902.001c-2.63 0-5.12.742-7.21 2.031-.627.39-.98.703-.98 1.101 0 1.183 2.74 2.452 7.596 2.452 4.812 0 8.54-1.39 8.54-2.728 0-.322-.277-.546-.838-.882zm2.068 1.555c.06.092.088.19.088.323 0 1.557-4.723 4.309-12.247 4.309-5.522 0-6.556-2.068-6.556-3.383 0-.466.176-.947.57-1.436.02-.03.004-.043-.022-.02a14.238 14.238 0 0 0-1.958 2.048c-.277.351-.447.663-.447.851 0 2.721 6.776 4.697 13.111 4.697 6.747 0 9.758-2.222 9.758-4.171 0-.697-.267-1.104-.956-1.893a16.212 16.212 0 0 0-1.317-1.345c-.024-.015-.04-.002-.024.02zM1.341 7.995c-.408.814-.862 2.188-.992 2.902-.058.302-.035.45.069.676.854 1.825 5.165 4.74 15.228 4.74 6.134 0 10.903-1.517 11.677-4.289.144-.513.15-1.05-.032-1.778-.203-.813-.588-1.755-.911-2.42-.01-.022-.029-.019-.029.007.123 3.635-9.944 5.98-15.02 5.98-5.501 0-10.088-2.209-10.088-4.997 0-.27.053-.535.125-.812.006-.03-.017-.033-.027-.009zm9.764 11.615C3.99 19.61.64 16.274.03 13.996.023 13.963 0 13.97 0 14c0 .769.075 1.755.21 2.416.061.316.319.818.697 1.22 1.722 1.807 6.02 4.341 13.457 4.341 10.13 0 12.45-3.398 12.92-4.515.342-.803.515-2.249.515-3.462 0-.296-.006-.53-.016-.76 0-.04-.022-.04-.03-.003-.508 2.735-9.163 6.373-16.648 6.373zm3.737 6.163c3.421 0 7.18-.939 9.428-2.8.616-.505 1.203-1.183 1.729-2.087.3-.522.597-1.14.835-1.748.01-.03-.007-.047-.03-.014-2.087 3.1-8.143 5.034-14.394 5.034-4.42 0-9.173-1.42-11.034-4.143-.018-.023-.035-.013-.025.017 1.735 3.711 6.99 5.741 13.49 5.741zm-9.465-.716A13.824 13.824 0 0 0 13.902 28c3.51 0 6.71-1.316 9.153-3.471.03-.027.018-.044-.012-.027-1.097.737-4.222 2.347-9.141 2.347-4.278 0-6.982-.96-8.505-1.817-.03-.017-.043.005-.02.025z" fill="#3CA3D2"/></svg>