<svg width="62" height="28" fill="none" xmlns="http://www.w3.org/2000/svg"><g clip-path="url(#clip0)" filter="url(#filter0_i)" fill="#ED1944"><path d="M30.186 13.985c0 3.092 2.165 4.623 4.579 6.052l2.153 1.28c1.17.69 1.696 1.47 1.696 2.528 0 1.404-.99 2.274-2.581 2.274-2.936 0-3.817-2.55-4.294-5.046l-.073-.388H30.23v7.025h1.118l.138-.163c.257-.302.257-.302.51-.302.432-.017.987.123 1.627.281.803.196 1.72.418 2.675.418 2.426 0 5.847-1.702 5.847-5.489 0-2.64-1.513-3.826-3.34-4.994l-4.012-2.487c-.921-.576-1.37-1.34-1.37-2.341 0-.82.628-2.039 2.357-2.039 1.285 0 2.862.499 3.666 4.393l.081.384h1.407l-.175-6.287h-1.126l-.134.243c-.061.115-.163.184-.265.184-.057-.005-.375-.111-.563-.175-.718-.24-1.794-.602-2.887-.602-3.25-.008-5.598 2.201-5.598 5.25zM4.117 17.518c0-4.97 2.23-6.735 4.14-6.735 2.103 0 3.36 1.847 3.36 3.63v8.623c-.258 1.114-1.449 1.92-2.839 1.92-2.153 0-4.66-1.95-4.66-7.438zM14.977.052L14.859.1c-.669.248-3.295 1.147-5.415 1.693l-.35.09v1.54l.509-.056c1.19-.128 1.639.034 1.806.192.196.183.204.559.204 1.147v5.178c-1.089-.806-2.14-1.16-3.47-1.16-2.112 0-4.208 1.109-5.754 3.041C.873 13.666 0 16.217 0 18.759c0 8.922 6.48 9.182 7.217 9.182 1.807 0 3.283-.588 4.396-1.731v1.377l.534.418 5.998-2.217v-1.489l-.497.043c-1.166.094-1.61-.081-1.782-.248-.175-.166-.204-.46-.204-.98V.303l-.64-.269-.045.017z"/><path d="M59.77 26.008c-1.635-.303-1.843-.342-1.843-2.824v-7.805c0-4.419-1.692-6.658-5.027-6.658-1.884 0-3.605.84-4.991 2.414V.392l-.612-.384-.057.025-.16.064c-.782.337-3.824 1.284-5.218 1.694l-.339.098v1.53l.514-.059c.31-.038.546-.038.877-.038.342 0 .59.077.73.226.232.247.224.738.22 1.134v18.421c0 2.482-.147 2.695-1.962 2.896l-.416.047v1.501h8.604v-1.54L50.017 26c-1.664-.183-2.108-.235-2.108-2.858v-9.2c.208-.268 1.737-2.157 3.616-2.157 1.631 0 2.361 1.155 2.361 3.749v7.647c0 2.41-.395 2.683-2.096 2.819l-.032.004v1.549h8.4V26.08l-.388-.072z"/><path fill-rule="evenodd" clip-rule="evenodd" d="M24.115 27.194c2.838 0 4.274-1.715 5.28-3.75.066-.131.017-.225-.113-.166-.75.363-2.728 1.323-5.167 1.323-2.442 0-4.416-.96-5.166-1.323-.127-.064-.18.03-.114.167 1.007 2.03 2.442 3.749 5.28 3.749zm-4.147-8.675c.783 1.587 1.904 2.973 4.147 2.973 2.243 0 3.368-1.386 4.147-2.973.053-.106.012-.187-.098-.136-.501.239-2.059.968-4.049.968-1.99 0-3.547-.73-4.049-.968-.11-.051-.155.03-.098.136zm1.035-4.514c.575 1.177 1.415 2.256 3.111 2.256 1.697 0 2.537-1.08 3.111-2.256.041-.081.005-.15-.085-.111-.27.128-1.448.644-3.026.644-1.574 0-2.756-.516-3.025-.644-.09-.039-.123.03-.086.11zm3.113-2.653c1.179 0 1.753-.793 2.133-1.586.028-.06 0-.116-.074-.086-.053.022-.872.337-2.059.337-1.186 0-2.01-.315-2.059-.337-.073-.03-.102.026-.073.086.379.793.95 1.586 2.132 1.586z"/><path d="M20.88 3.382C20.88 1.514 22.329 0 24.115 0s3.234 1.514 3.234 3.382-1.448 3.382-3.234 3.382-3.233-1.514-3.233-3.382zm40.536 23.49l.229.362h-.135l-.212-.359h-.139v.359h-.118v-.828h.302c.187 0 .281.073.281.235 0 .15-.09.213-.208.23zm-.114-.103c.102 0 .192-.009.192-.137 0-.102-.09-.123-.176-.123h-.163v.256h.147v.004z"/><path d="M62 26.818c0 .418-.322.72-.697.72a.707.707 0 0 1-.701-.72.7.7 0 0 1 .7-.716.697.697 0 0 1 .698.716zm-.134 0c0-.341-.245-.597-.559-.597-.314 0-.559.256-.559.597 0 .346.245.601.559.601.31 0 .559-.255.559-.6z"/></g><defs><filter id="filter0_i" x="0" y="0" width="62" height="32" filterUnits="userSpaceOnUse" color-interpolation-filters="sRGB"><feFlood flood-opacity="0" result="BackgroundImageFix"/><feBlend in="SourceGraphic" in2="BackgroundImageFix" result="shape"/><feColorMatrix in="SourceAlpha" values="0 0 0 0 0 0 0 0 0 0 0 0 0 0 0 0 0 0 127 0" result="hardAlpha"/><feOffset dy="4"/><feGaussianBlur stdDeviation="2"/><feComposite in2="hardAlpha" operator="arithmetic" k2="-1" k3="1"/><feColorMatrix values="0 0 0 0 0 0 0 0 0 0 0 0 0 0 0 0 0 0 0.25 0"/><feBlend in2="shape" result="effect1_innerShadow"/></filter><clipPath id="clip0"><path fill="#fff" d="M0 0H62V28H0z"/></clipPath></defs></svg>