<svg width="82" height="18" fill="none" xmlns="http://www.w3.org/2000/svg"><path d="M80.114.028C80.741-.01 81.371 0 82.001.006c-1.887 3.906-3.706 7.844-5.557 11.77-.512.006-1.023.006-1.532-.004-.85-1.975-1.832-3.896-2.72-5.86a35.544 35.544 0 0 1 1.838 0c.53 1.209 1.157 2.376 1.643 3.603C77.16 6.35 78.685 3.21 80.114.028z" fill="#ED2224"/><path d="M32.705 1.707c1.215.013 2.43.01 3.648 0-.02 1.075-.01 2.15-.006 3.225-1.219-.02-2.437-.004-3.652-.01.013-1.072-.006-2.146.01-3.215zm-18.34 4.605c2.481-1.395 6.088-.92 7.766 1.49 1.03 1.424 1.32 3.231 1.311 4.95-2.849.025-5.7-.003-8.55.013.132.875.51 1.794 1.324 2.248 1.155.669 2.977.478 3.559-.853a58.87 58.87 0 0 1 3.51.003c-.367 1.335-1.34 2.46-2.573 3.088-1.33.72-2.913.862-4.39.615-1.55-.247-3.005-1.12-3.885-2.422-.953-1.38-1.215-3.136-.99-4.769.233-1.791 1.307-3.485 2.918-4.363zm1.938 2.045c-.812.387-1.215 1.256-1.391 2.087 1.62-.007 3.242-.007 4.863 0-.106-.647-.326-1.313-.825-1.766-.694-.663-1.803-.685-2.647-.32zM52.55 5.69c1.956-.35 4.124.06 5.627 1.407 2.57 2.261 2.68 6.65.297 9.081-1.883 1.947-5.045 2.312-7.465 1.211-1.87-.837-3.143-2.733-3.364-4.737-.09-1.16-.042-2.368.448-3.443.735-1.842 2.5-3.193 4.457-3.52zm.418 2.676c-1.03.355-1.502 1.468-1.653 2.46-.118 1.253-.102 2.66.72 3.697.876 1.132 2.81 1.1 3.69-.013.735-.906.837-2.137.767-3.256-.058-.983-.394-2.042-1.228-2.638-.665-.447-1.55-.517-2.296-.25zm12.597-2.003c1.202-.941 2.928-1.04 4.32-.475.99.421 1.742 1.293 2.08 2.302.39 1.033.276 2.152.292 3.23.006 2.068-.016 4.132.012 6.2-1.211.021-2.423-.004-3.638.012-.003-2.365 0-4.734-.003-7.096-.004-.615-.23-1.272-.745-1.646-.77-.526-1.912-.421-2.574.235-.521.526-.758 1.28-.745 2.01-.003 2.169.006 4.335-.003 6.503-1.196-.022-2.395 0-3.594-.01 0-3.909.01-7.815-.003-11.724 1.17.012 2.34-.013 3.514.015-.013.54-.02 1.078-.03 1.62.359-.405.67-.859 1.117-1.176zM0 5.911c1.257-.006 2.513-.006 3.77 0 .754 2.52 1.57 5.026 2.289 7.556.873-2.486 1.547-5.042 2.363-7.55 1.218-.019 2.433-.006 3.65-.01-1.39 3.904-2.752 7.813-4.12 11.723-1.26.006-2.523-.016-3.783.016C2.74 13.749 1.458 9.798 0 5.91zm24.268-.008c1.16-.006 2.324 0 3.485-.003-.01.656-.004 1.316-.036 1.975.304-.33.515-.732.832-1.056.783-.85 2.059-1.201 3.178-.91-.01 1.034-.01 2.065 0 3.095-.896-.105-1.883-.063-2.644.476-.813.564-1.174 1.585-1.164 2.54-.01 1.867-.003 3.735 0 5.602-1.218.006-2.433-.01-3.648.01.01-3.91.01-7.82-.003-11.729zm8.423.009c1.222-.016 2.44 0 3.661-.01-.022 3.91-.006 7.822-.006 11.732-1.218-.01-2.436-.006-3.651-.003.006-3.907.006-7.813-.004-11.72zm4.646-.014c3.293.016 6.586-.003 9.88.01-.032.894 0 1.791-.016 2.686-.112.225-.314.393-.474.586-1.697 1.861-3.35 3.757-5.06 5.606 1.937.038 3.874.003 5.812.019-.003.945 0 1.887-.003 2.828-3.38-.016-6.76-.012-10.139 0-.003-.907.003-1.813-.003-2.72a666.156 666.156 0 0 1 5.323-5.879c.052-.101.269-.2.157-.33-1.822.054-3.645 0-5.467.029-.016-.945-.007-1.89-.01-2.835z" fill="#010101"/></svg>