<svg width="213" height="47" fill="none" xmlns="http://www.w3.org/2000/svg"><path fill-rule="evenodd" clip-rule="evenodd" d="M23.753 32.718c-4.899 0-8.965-4.067-8.965-8.965 0-4.899 3.974-8.965 8.965-8.965 4.898 0 8.965 3.974 8.965 8.965 0 4.898-4.067 8.965-8.965 8.965zm0-12.94a3.945 3.945 0 0 0-3.974 3.975 3.945 3.945 0 0 0 3.974 3.974 3.945 3.945 0 0 0 3.974-3.974 3.945 3.945 0 0 0-3.974-3.974z" fill="#61B2AA"/><path fill-rule="evenodd" clip-rule="evenodd" d="M0 23.29c0 18.763 4.529 23.291 23.29 23.291 18.763 0 23.291-4.528 23.291-23.29S42.053 0 23.291 0 0 4.529 0 23.29zm4.99 0c0-15.896 2.404-18.3 18.3-18.3 15.898 0 18.3 2.404 18.3 18.3 0 15.898-2.402 18.3-18.3 18.3-15.896 0-18.3-2.402-18.3-18.3z" fill="#61B2AA"/><g clip-path="url(#clip0)" fill="#61B2AA"><path d="M86.845 25.622s12.882-6.198 12.882-13.575c0-6.692-6.536-8.758-10.635-8.758C77.215 3.29 64 12.435 64 21.332c0 7.919 6.945 6.208 6.945 6.208-.775-.854-1.851-2.733-1.666-5.676.434-6.95 10.487-14.99 19.708-14.99 4.285 0 6.75 1.66 6.75 4.157 0 4.89-11.1 13.402-14.48 13.997 2.67-6.726 5.683-13.35 6.921-14.491.571-.527-2.19-2.104-3.056-1.309-3.532 3.255-12.777 24.884-12.92 28.148-.043 1.026.076 1.769.3 2.306-.714-1.218-.704-2.666-.685-3.145.057-1.275-2.59-2.032-2.59-.537 0 3.221 1.071 8.998 8.892 8.998 7.189 0 15.243-5.94 15.243-11.974.005-6.477-6.517-7.402-6.517-7.402zm-11.044 15.93a3.772 3.772 0 0 1-2.404-.84c1.261.657 3.056-.34 3.056-.34-.552-.609 1.571-7.06 4.204-13.825.242.61.737 1.18 1.509 1.213 1.742.077 7.093-.25 7.093 3.94 0 4.67-6.489 9.851-13.458 9.851zm40.077-22.433c.567-.503-2.394-2.698-4.203-.877-.428.432-3.08 6.265-3.08 6.265s-6.555 13.202-9.13 13.202c-4.085 0 5.122-15.733 5.288-18.384.186-2.947-5.612-1.84-4.974-1.174 1.266 1.328-5.789 13.997-5.789 18.719 0 3.178 1.619 4.635 4.308 4.635 3.347 0 5.342-3.768 7.293-7.142-.285 1.098-1.894 7.18 1.49 7.18 1.89 0 3.014-1.375 3.014-1.375-3.318-3.341 4.789-20.167 5.783-21.049zm1.082 17.38s11.006-10.062 12.586-11.654c3.113-3.134.357-6.246-1.814-6.298-1.028-.024-9.558.834-9.254-1.285.105-.719-3.399 3.03-1.218 5.316 1.342 1.405 9.306-.776 9.287-.062-.024 1.069-12.425 11.116-14.376 13.465-1.69 2.032-1.538 4.779 1.928 4.865 2.037.053 30.438.964 33.18-1.313 3.137-2.608-.1-6.352-.1-6.352-.496 3.759-30.219 3.318-30.219 3.318z"/><path d="M139.466 19.49c-.029.95-9.345 7.747-11.792 10.2-1.175 1.18-.752 3.84 1.5 3.879 1.866.029 14.286-.302 15.966-1.644 2.566-2.052-.371-5.633-.371-5.633-.39 2.81-12.72 3.265-12.72 3.265s8.864-6.788 10.059-7.991c2.413-2.43.914-4.87-1.323-5.192-.772-.11-8.888.37-8.65-1.217.081-.537-2.418 1.913-.795 4.252.633.93 8.14-.456 8.126.081zM211.344 1c-.081 4.16-22.954 2.943-29.086 2.809-27.691-.614-32.527 10.402-32.656 16.39-.105 4.812 3.189 9.4 9.021 9.529 2.304.052 4.218-.197 5.722-.901v.004c.595-.263 1.19-.556 1.771-.896-.467.56-1.052 1.007-1.681 1.376a6.913 6.913 0 0 1-.414.23c-1.599 3.537-2.761 6.682-2.98 8.499-.69 5.651 5.87 3.964 5.308 3.37-1.071-1.127.562-6.438 3.051-12.267 1.391-1.131 6.265-2.22 7.66-.786 0 0 1.309-2.848.447-3.734-1.385-1.429-4.37-.58-6.102.09 2.637-5.507 5.631-10.665 7.445-12.41 1.328-1.28-2.485-2.296-3.937-1.14-1.685 1.346-4.246 5.526-7.012 10.612 0 0-.005.005-.005.01-.181.34-.366.676-.547 1.02-1.024 1.664-3.485 4.262-7.831 4.166-3.642-.081-5.76-2.646-5.679-6.437.143-6.486 6.393-11.86 30.171-11.265.828-1.424 1.947-2.522 3.251-2.507a3.73 3.73 0 0 1 2.766 1.347c.357.431.619.93.767 1.467 12.915.8 22.102 2.176 22.212-3.648.042-2.57-1.662-4.928-1.662-4.928z"/><path d="M185.133 16.74c2.032.138 4.393-4.535 4.484-5.815.1-1.443-.9-2.694-2.314-2.79-2.204-.149-5.507 8.374-2.17 8.604zm21.736-.8c.081.878-3.461.767-7.388.69.743-1.37 1.4-2.4 1.871-2.9.838-.882-2.338-2.085-3.532-.829-.7.738-1.595 2.042-2.542 3.696-2.642.048-4.908.288-5.703 1.06-2.457 2.396.266 4.433.266 4.433-.047-.886 1.357-1.294 3.375-1.466a57.295 57.295 0 0 0-1.799 4.367l-.029-.058s-6.155 12.612-9.806 12.53c-3.956-.086 4.241-17.28 4.675-17.76.69-.771-2.838-2.253-4.209-.68-.656.757-11.786 21.724-1.028 21.959 3.166.072 6.146-3.74 8.274-7.406-.414 4.491.799 7.914 5.198 7.971 7.169.096 12.249-11.494 12.287-13.297.076-3.48-2.723-2.454-2.723-2.454.985 1.035-5.389 12.808-9.083 12.76-4.042-.052-.728-10.627 2.604-18.047 4.213.043 8.711.326 9.416-.365 2.38-2.31-.124-4.204-.124-4.204z"/></g><defs><clipPath id="clip0"><path fill="#fff" transform="translate(64 1)" d="M0 0H149V44H0z"/></clipPath></defs></svg>