<svg width="226" height="210" fill="none" xmlns="http://www.w3.org/2000/svg"><path d="M79.85 78.68c0-15.37-18.99-18.87-18.99-18.87s32.72-18.9 32.72-38.85C93.58 2.87 73.89 0 65.21 0 32.8 0 0 25.89 0 52.02c0 19.97 17.95 15.7 17.95 15.7-2.25-2.17-4.51-7.12-4.51-15.1 0-18.84 25.92-42.86 51.09-42.86 11.67 0 19 2.32 19 9.07 0 13.26-28.89 38.16-37.98 40.33 6.13-18.61 13.19-37.02 16.37-40.32 1.47-1.52-6.31-5.31-8.53-3.01-9.05 9.39-30.5 69.38-30.34 78.22.05 2.77.5 4.76 1.2 6.17-2.15-3.17-2.37-7.08-2.4-8.37-.06-3.46-7.2-5.05-7.13-1.01.13 7.2 4.4 22.77 25.71 22.77 19.63.01 39.42-18.57 39.42-34.93zm-52.99 24.18c3.54 1.56 8.26-1.45 8.26-1.45-1.61-1.55 3.07-19.33 9.08-38.05.76 1.6 2.2 3.05 4.31 3.01 4.75-.09 19.96-1.91 19.96 9.43 0 12.65-15.89 28.9-34.92 28.9-2.89.01-5.06-.72-6.69-1.84zM83.469 80.1c0 10.98 4.83 14.99 10.82 14.99 6.02 0 12.13-9.07 16.89-18.6-.59 3.04-.94 5.51-.94 7.09 0 12.69 13.14 6.87 13.14 6.87-7.43-7.43 8.7-55.58 11.28-58.16 1.46-1.46-5.68-4.71-9.62-.77-1.18 1.18-3.74 8.12-6.4 16.64l-.02-.1s-15.65 37.55-22.73 37.55c-8.28 0 11.43-41.75 11.43-48.99 0-8.06-13.78-5.16-11.92-3.45 3.7 3.37-11.93 32.44-11.93 46.93zm80.512-43.318c.01 1.74-36.85 33.96-36.79 43.26.04 5.23 2.25 7.63 5.74 7.61 8.97-.06 76.9-9.61 83.47-16.48 7.38-7.7-1.799-14.16-1.799-14.16.16 9.21-74.591 19.93-74.591 19.93-.02-2.81 25.36-29.29 29.34-33.44 5.63-5.88 2.35-15.85-3.66-15.81-2.82.02-25.64 5.46-25.68.26-.01-1.76-6.37 7.51-2.38 11.56 3.52 3.56 26.33-4.47 26.35-2.73z" fill="#61B2AA"/><path d="M193.911 26.101c.03 1.28-28.66 25.99-28.5 32.82.09 3.84 2.45 4.9 4.91 4.85 4.77-.11 37.6-7.64 41.26-11.48 5.59-5.86-2.15-11.43-2.15-11.43.23 6.77-32.4 14.01-32.4 14.01-.05-2.07 19.14-19.66 21.95-22.71 5.69-6.2 2.69-14.05-3.09-13.91-2 .05-20.54 3.17-20.63-.65-.03-1.3-6.19 5.62-1.1 10.47 2.01 1.93 19.72-3.25 19.75-1.97zm-25.261 97.18c2.07-3.75 3.89-6.54 5.15-7.8 2.14-2.14-7.1-4.04-10.17-.98-1.88 1.88-4.31 5.36-6.88 9.82-7.84.84-14.41 2.06-16.08 4.31-3.37 4.53.24 11.08.24 11.08 1.31-1.77 5.06-2.94 9.93-3.78-1.7 3.75-3.31 7.73-4.7 11.75-2.32 4.1-17.17 29.92-24.71 30.03-10.16.16 7.46-38.13 8.56-39.23 1.75-1.75-6.44-5.82-9.91-2.24-1.67 1.72-25.51 49.43-1.84 49.43 9.1 0 17.6-10.27 23.41-19.54-1.31 11.82 1.71 20.91 13.39 20.91 18.62 0 30.47-28.93 30.47-33.26 0-5.98-6.21-6.68-6.21-6.68 0 4.38-13.55 32.74-23.14 32.74-10.22 0-1.82-26.2 6.91-45.35 12.11-1.03 24.94-1.48 26.93-3.68 4-4.41.17-11.51.17-11.51.35 2.35-10.1 3.11-21.52 3.98z" fill="#61B2AA"/><path d="M220.271 76.488c0 12.87-79.75 20.03-99.88 21.62-76.97 6.08-91.68 38.89-91.68 53.96 0 13.36 10.18 25.37 26.81 25.37 6.54 0 11.81-2.02 15.81-4.47v.01c1.6-.93 3.16-1.95 4.68-3.09-1.11 1.71-2.62 3.14-4.25 4.37-.36.27-.72.53-1.1.77-3.28 10.31-5.48 19.38-5.48 24.46 0 15.81 19 8.66 17.12 7.34-6.09-4.26-.53-26.35 7-47.2 5.31-2.57 15.64-4.38 18.98-1.05 0 0 3.53-7.86 1.12-10.27-3.6-3.6-10.95-1.77-15.8.03 5.65-14.08 11.4-25.74 13.73-28.07 4.7-4.7-7.68-4.45-11.37-.75-4.3 4.29-10.99 17.81-17.04 32.79 0 0 0 .01-.01.02-.4.99-.8 1.99-1.19 3-2.31 4.94-8.29 14.2-20.63 14.2-9.03 0-18.19-5.23-18.19-15.76 0-16.56 13.82-37.17 81.56-41.59l3.22-.21c2.39-4.56 5.36-6.96 8.63-6.96 4.14 0 7.64 2.35 9.34 5.85 42.87-2.68 83.73-6.13 83.73-23.3 0-9.36-5.11-11.07-5.11-11.07z" fill="#61B2AA"/><path d="M138.518 115.76c0-3.58-2.69-6.49-6.21-6.49-5.5 0-12.27 21.59-3.94 21.59 5.07 0 10.15-11.93 10.15-15.1z" fill="#61B2AA"/></svg>