<svg width="158" height="37" viewBox="0 0 158 37" fill="none" xmlns="http://www.w3.org/2000/svg">
<path fill-rule="evenodd" clip-rule="evenodd" d="M18.2911 25.6724C14.5569 25.6724 11.4568 22.5722 11.4568 18.838C11.4568 15.1038 14.4864 12.0036 18.2911 12.0036C22.0254 12.0036 25.1255 15.0333 25.1255 18.838C25.1255 22.5722 22.0254 25.6724 18.2911 25.6724ZM18.2911 15.8083C16.6001 15.8083 15.2615 17.147 15.2615 18.838C15.2615 20.529 16.6001 21.8677 18.2911 21.8677C19.9821 21.8677 21.3208 20.529 21.3208 18.838C21.3208 17.147 19.9821 15.8083 18.2911 15.8083Z" fill="white"/>
<path fill-rule="evenodd" clip-rule="evenodd" d="M0.183594 18.4857C0.183594 32.7886 3.636 36.241 17.9388 36.241C32.2417 36.241 35.6941 32.7886 35.6941 18.4857C35.6941 4.18288 32.2417 0.730469 17.9388 0.730469C3.636 0.730469 0.183594 4.18288 0.183594 18.4857ZM3.98829 18.4857C3.98829 6.36705 5.82018 4.53517 17.9388 4.53517C30.0575 4.53517 31.8894 6.36705 31.8894 18.4857C31.8894 30.6044 30.0575 32.4363 17.9388 32.4363C5.82018 32.4363 3.98829 30.6044 3.98829 18.4857Z" fill="white"/>
<path fill-rule="evenodd" clip-rule="evenodd" d="M47.39 26.5184V6.64943H50.4197V13.5543C51.0538 12.9201 51.8288 12.4974 52.6038 12.286C53.4493 12.0042 54.2948 11.9337 55.1403 11.9337C56.2676 11.9337 57.254 12.1451 58.17 12.4974C59.0859 12.8497 59.7905 13.4133 60.4246 14.1179C61.0587 14.8225 61.5519 15.5975 61.8338 16.5135C62.186 17.4294 62.327 18.4158 62.327 19.4022C62.327 20.4591 62.186 21.4455 61.8338 22.3614C61.4815 23.2774 61.0587 24.0524 60.4246 24.757C59.7905 25.4615 59.0155 25.9547 58.17 26.3775C57.254 26.7298 56.2676 26.9411 55.1403 26.9411C54.2244 26.9411 53.3789 26.8002 52.5334 26.5184C51.6879 26.2366 50.9833 25.8138 50.2788 25.1797V26.5184H47.39ZM59.2973 19.4727C59.2973 18.7681 59.2268 18.134 59.0155 17.5703C58.8041 17.0067 58.5223 16.5135 58.17 16.0907C57.8177 15.668 57.3245 15.3157 56.8313 15.1043C56.2676 14.8225 55.704 14.752 54.9289 14.752C54.2244 14.752 53.5902 14.8929 53.0266 15.1043C52.4629 15.3157 51.9697 15.668 51.6174 16.0907C51.2652 16.5135 50.9129 17.0067 50.7015 17.5703C50.4901 18.134 50.4197 18.7681 50.4197 19.4022C50.4197 20.0363 50.4901 20.6704 50.7015 21.3046C50.9129 21.8682 51.1947 22.3614 51.6174 22.7842C52.0402 23.2069 52.4629 23.5592 53.0266 23.7706C53.5902 23.9819 54.2244 24.1229 54.9289 24.1229C55.6335 24.1229 56.2676 23.9819 56.8313 23.7706C57.395 23.4887 57.8177 23.2069 58.17 22.7842C58.5223 22.3614 58.8041 21.8682 59.0155 21.3046C59.2268 20.7409 59.2973 20.1068 59.2973 19.4727Z" fill="white"/>
<path d="M76.6298 25.2502C75.9957 25.8138 75.3616 26.1661 74.5865 26.4479C73.8115 26.7298 73.0365 26.8002 72.191 26.8002C71.275 26.8002 70.4296 26.6593 69.6545 26.3775C68.8795 26.0957 68.2454 25.6729 67.6817 25.1797C67.1181 24.6161 66.7658 24.0524 66.4135 23.2774C66.1317 22.5023 65.9907 21.7273 65.9907 20.8114V12.286H69.0204V20.7409C69.0204 22.9251 70.1477 24.0524 72.4024 24.0524C73.1069 24.0524 73.741 23.9115 74.2342 23.7001C74.7274 23.4887 75.1502 23.1364 75.5025 22.7137C75.8548 22.291 76.0661 21.7978 76.2775 21.2341C76.4184 20.6704 76.5593 20.0363 76.5593 19.4022V12.286H79.589V26.5889H76.6298V25.2502Z" fill="white"/>
<path d="M96.7101 14.3997L87.9734 23.7706H96.9215V26.5184H83.4642V24.3342L92.2009 14.9634H83.6755V12.2156H96.7101V14.3997Z" fill="white"/>
<path d="M113.056 14.3997L104.32 23.7706H113.268V26.5184H99.8102V24.3342L108.547 14.9634H100.022V12.2156H113.056V14.3997Z" fill="white"/>
<path d="M137.012 15.0339H132.221V26.5889H129.05V15.0339H124.541V12.286H129.05C129.05 11.0178 129.191 10.0314 129.473 9.32681C129.755 8.55178 130.177 7.98812 130.741 7.56538C131.305 7.14264 132.009 6.93126 132.855 6.79035C133.7 6.64943 134.687 6.57898 135.814 6.57898H137.153V9.39727H135.18C134.475 9.39727 133.982 9.39727 133.559 9.46773C133.207 9.53819 132.855 9.6791 132.643 9.82001C132.432 10.0314 132.362 10.3132 132.291 10.6655C132.221 11.0178 132.221 11.5814 132.221 12.2156H137.012V15.0339Z" fill="white"/>
<path d="M141.521 11.0882C140.887 11.0882 140.394 10.8769 139.971 10.5246C139.548 10.1018 139.337 9.60864 139.337 8.97453C139.337 8.34041 139.548 7.84721 139.971 7.49492C140.394 7.07218 140.957 6.86081 141.521 6.86081C142.155 6.86081 142.648 7.07218 143.071 7.49492C143.494 7.91767 143.705 8.41087 143.705 8.97453C143.705 9.60864 143.494 10.1018 143.071 10.5246C142.648 10.9473 142.085 11.0882 141.521 11.0882Z" fill="white"/>
<path d="M139.971 12.286H143.001V26.5889H139.971V12.286Z" fill="white"/>
<path d="M157.867 15.0339H153.358V21.7978C153.358 22.0796 153.358 22.291 153.428 22.5728C153.499 22.9955 153.569 23.2774 153.64 23.3478C153.781 23.4887 153.992 23.5592 154.415 23.6296C154.978 23.7001 155.542 23.7001 156.176 23.7001H157.867V26.5184H156.106C155.049 26.5184 154.133 26.4479 153.428 26.307C152.653 26.1661 152.09 25.8843 151.596 25.532C151.103 25.1797 150.751 24.6161 150.54 23.9115C150.328 23.2069 150.258 22.291 150.258 21.2341V14.9634H146.03V12.2156H150.258V7.63584H153.358V12.3565H157.867V15.0339Z" fill="white"/>
</svg>
