<svg width="48" height="54" viewBox="0 0 48 54" fill="none" xmlns="http://www.w3.org/2000/svg">
<path fill-rule="evenodd" clip-rule="evenodd" d="M22.8472 24.5833C19.1667 24.5833 16.1111 21.5278 16.1111 17.8472C16.1111 14.1667 19.0972 11.1111 22.8472 11.1111C26.5278 11.1111 29.5833 14.0972 29.5833 17.8472C29.5833 21.5278 26.5278 24.5833 22.8472 24.5833ZM22.8472 14.8611C21.1805 14.8611 19.8611 16.1806 19.8611 17.8472C19.8611 19.5139 21.1805 20.8333 22.8472 20.8333C24.5139 20.8333 25.8333 19.5139 25.8333 17.8472C25.8333 16.1806 24.5139 14.8611 22.8472 14.8611Z" fill="#61B2AA"/>
<path fill-rule="evenodd" clip-rule="evenodd" d="M5 17.5C5 31.5972 8.40277 35 22.5 35C36.5972 35 40 31.5972 40 17.5C40 3.40278 36.5972 0 22.5 0C8.40277 0 5 3.40278 5 17.5ZM8.75 17.5C8.75 5.55556 10.5556 3.75 22.5 3.75C34.4444 3.75 36.25 5.55556 36.25 17.5C36.25 29.4444 34.4444 31.25 22.5 31.25C10.5556 31.25 8.75 29.4444 8.75 17.5Z" fill="#61B2AA"/>
<path fill-rule="evenodd" clip-rule="evenodd" d="M0 53.8131V45.0311H1.31632V48.083C1.59184 47.8028 1.92857 47.6159 2.26531 47.5225C2.63266 47.3979 3 47.3668 3.36735 47.3668C3.85715 47.3668 4.28572 47.4602 4.68367 47.6159C5.08164 47.7716 5.38776 48.0208 5.66326 48.3322C5.93877 48.6436 6.15306 48.9862 6.27551 49.391C6.42857 49.7958 6.4898 50.2318 6.4898 50.6678C6.4898 51.1349 6.42857 51.5709 6.27551 51.9758C6.12245 52.3806 5.93877 52.7232 5.66326 53.0346C5.38776 53.346 5.05102 53.564 4.68367 53.7509C4.28572 53.9066 3.85715 54 3.36735 54C2.96939 54 2.60204 53.9377 2.23469 53.8131C1.86735 53.6886 1.56123 53.5017 1.25511 53.2215V53.8131H0ZM5.17347 50.699C5.17347 50.3875 5.14286 50.1073 5.05102 49.8581C4.95919 49.609 4.83673 49.391 4.68367 49.2042C4.53061 49.0173 4.31633 48.8616 4.10204 48.7682C3.85715 48.6436 3.61224 48.6125 3.27551 48.6125C2.96939 48.6125 2.69388 48.6747 2.44898 48.7682C2.20409 48.8616 1.9898 49.0173 1.83674 49.2042C1.68367 49.391 1.53061 49.609 1.43878 49.8581C1.34694 50.1073 1.31632 50.3875 1.31632 50.6678C1.31632 50.9481 1.34694 51.2284 1.43878 51.5086C1.53061 51.7578 1.65306 51.9758 1.83674 52.1626C2.02041 52.3495 2.20409 52.5052 2.44898 52.5986C2.69388 52.692 2.96939 52.7543 3.27551 52.7543C3.58164 52.7543 3.85715 52.692 4.10204 52.5986C4.34694 52.474 4.53061 52.3495 4.68367 52.1626C4.83673 51.9758 4.95919 51.7578 5.05102 51.5086C5.14286 51.2595 5.17347 50.9792 5.17347 50.699Z" fill="#61B2AA"/>
<path d="M12.7041 53.2526C12.4286 53.5017 12.1531 53.6574 11.8163 53.782C11.4796 53.9066 11.1429 53.9377 10.7755 53.9377C10.3776 53.9377 10.0102 53.8754 9.67347 53.7509C9.33674 53.6263 9.06123 53.4394 8.81633 53.2215C8.57143 52.9723 8.41837 52.7232 8.26531 52.3806C8.14286 52.0381 8.08163 51.6955 8.08163 51.2907V47.5225H9.39796V51.2595C9.39796 52.2249 9.88775 52.7232 10.8673 52.7232C11.1735 52.7232 11.449 52.6609 11.6633 52.5675C11.8775 52.474 12.0612 52.3183 12.2143 52.1315C12.3673 51.9446 12.4592 51.7266 12.551 51.4775C12.6123 51.2284 12.6735 50.9481 12.6735 50.6678V47.5225H13.9898V53.8443H12.7041V53.2526Z" fill="#61B2AA"/>
<path d="M21.4286 48.4567L17.6327 52.5986H21.5204V53.8131H15.6735V52.8477L19.4694 48.7059H15.7653V47.4913H21.4286V48.4567Z" fill="#61B2AA"/>
<path d="M28.5306 48.4567L24.7347 52.5986H28.6225V53.8131H22.7755V52.8477L26.5714 48.7059H22.8674V47.4913H28.5306V48.4567Z" fill="#61B2AA"/>
<path d="M38.9388 48.737H36.8571V53.8443H35.4796V48.737H33.5204V47.5225H35.4796C35.4796 46.9619 35.5408 46.526 35.6633 46.2145C35.7857 45.872 35.9694 45.6228 36.2143 45.436C36.4592 45.2491 36.7653 45.1557 37.1327 45.0934C37.5 45.0311 37.9286 45 38.4184 45H39V46.2457H38.1429C37.8367 46.2457 37.6225 46.2457 37.4388 46.2768C37.2857 46.308 37.1327 46.3702 37.0408 46.4325C36.949 46.526 36.9184 46.6505 36.8878 46.8062C36.8571 46.9619 36.8571 47.2111 36.8571 47.4913H38.9388V48.737Z" fill="#61B2AA"/>
<path d="M40.898 46.9931C40.6225 46.9931 40.4082 46.8997 40.2245 46.7439C40.0408 46.5571 39.949 46.3391 39.949 46.0588C39.949 45.7785 40.0408 45.5606 40.2245 45.4048C40.4082 45.218 40.6531 45.1246 40.898 45.1246C41.1735 45.1246 41.3878 45.218 41.5714 45.4048C41.7551 45.5917 41.8469 45.8097 41.8469 46.0588C41.8469 46.3391 41.7551 46.5571 41.5714 46.7439C41.3878 46.9308 41.1429 46.9931 40.898 46.9931Z" fill="#61B2AA"/>
<path d="M40.2245 47.5225H41.5408V53.8443H40.2245V47.5225Z" fill="#61B2AA"/>
<path d="M48 48.737H46.0408V51.7266C46.0408 51.8512 46.0408 51.9446 46.0714 52.0692C46.102 52.2561 46.1327 52.3806 46.1633 52.4118C46.2245 52.474 46.3163 52.5052 46.5 52.5363C46.7449 52.5675 46.9898 52.5675 47.2653 52.5675H48V53.8131H47.2347C46.7755 53.8131 46.3776 53.782 46.0714 53.7197C45.7347 53.6574 45.4898 53.5329 45.2755 53.3772C45.0612 53.2215 44.9082 52.9723 44.8163 52.6609C44.7245 52.3495 44.6939 51.9446 44.6939 51.4775V48.7059H42.8572V47.4913H44.6939V45.4671H46.0408V47.5536H48V48.737Z" fill="#61B2AA"/>
</svg>
